<?xml version="1.0" standalone="no"?>
<!DOCTYPE svg PUBLIC "-//W3C//DTD SVG 1.1//EN" "http://www.w3.org/Graphics/SVG/1.1/DTD/svg11.dtd" >
<svg xmlns="http://www.w3.org/2000/svg" xmlns:xlink="http://www.w3.org/1999/xlink" version="1.1">
<metadata>
Created by FontForge 20160405 at Fri Sep  2 12:29:59 2016
 By www-data
2005 Albert-Jan Pool published by FSI FontShop International GmbH
</metadata>
<defs>
<font id="DINPro-Medium" horiz-adv-x="325" >
  <font-face 
    font-family="DIN Pro Medium"
    font-weight="500"
    font-stretch="normal"
    units-per-em="1000"
    panose-1="2 11 6 4 2 1 1 2 1 2"
    ascent="800"
    descent="-200"
    x-height="507"
    cap-height="712"
    bbox="-200 -232 1170 1172"
    underline-thickness="70"
    underline-position="-137"
    stemh="97"
    stemv="102"
    unicode-range="U+000D-FEFF"
  />
<missing-glyph horiz-adv-x="568" 
d="M81 0v712h406v-712h-406zM151 70h266v572h-266v-572z" />
    <glyph glyph-name=".notdef" horiz-adv-x="568" 
d="M81 0v712h406v-712h-406zM151 70h266v572h-266v-572z" />
    <glyph glyph-name=".null" horiz-adv-x="0" 
 />
    <glyph glyph-name=".null" horiz-adv-x="0" 
 />
    <glyph glyph-name="CR" unicode="&#xd;" horiz-adv-x="240" 
 />
    <glyph glyph-name="space" unicode=" " horiz-adv-x="240" 
 />
    <glyph glyph-name="exclam" unicode="!" horiz-adv-x="332" 
d="M245 712l-22 -500h-80l-22 500h124zM239 0h-112v109h112v-109z" />
    <glyph glyph-name="quotedbl" unicode="&#x22;" horiz-adv-x="444" 
d="M366 521h-101v191h101v-191zM179 521h-101v191h101v-191z" />
    <glyph glyph-name="numbersign" unicode="#" horiz-adv-x="672" 
d="M623 426h-92l-20 -124h79v-94h-94l-33 -208h-106l33 208h-137l-32 -208h-107l33 208h-79v94h94l20 124h-81v94h95l31 196h107l-31 -196h136l31 196h106l-31 -196h78v-94zM424 426h-136l-20 -124h137z" />
    <glyph glyph-name="dollar" unicode="$" horiz-adv-x="608" 
d="M556 203c0 -119 -87 -194 -216 -206v-111h-82v108c-95 4 -165 30 -228 94l72 71c48 -48 101 -65 165 -68v222l-26 3c-57 7 -105 30 -134 57c-35 33 -53 78 -53 136c0 114 76 195 204 207v90h82v-89c79 -5 137 -29 191 -80l-69 -68c-35 33 -80 50 -131 54v-216l34 -5
c66 -10 103 -26 133 -53c39 -34 58 -85 58 -146zM449 200c0 31 -9 57 -28 74c-24 22 -53 26 -83 30l-7 1v-212c74 7 118 45 118 107zM267 414v208c-70 -7 -108 -51 -108 -109c0 -26 8 -49 27 -66c21 -19 50 -29 81 -33z" />
    <glyph glyph-name="percent" unicode="%" horiz-adv-x="842" 
d="M784 130c0 -86 -62 -137 -140 -137s-140 51 -140 137v101c0 86 62 137 140 137s140 -51 140 -137v-101zM338 481c0 -86 -62 -136 -140 -136s-140 50 -140 136v101c0 86 62 137 140 137s140 -51 140 -137v-101zM629 712l-335 -712h-82l336 712h81zM707 133v95
c0 45 -20 72 -63 72s-63 -26 -63 -72v-95c0 -46 20 -72 63 -72s63 27 63 72zM261 484v95c0 45 -20 72 -63 72s-63 -26 -63 -72v-95c0 -46 20 -71 63 -71s63 26 63 71z" />
    <glyph glyph-name="ampersand" unicode="&#x26;" horiz-adv-x="730" 
d="M684 0h-131l-58 70c-31 -27 -89 -76 -197 -76c-148 0 -230 83 -230 212c0 99 71 155 141 201c-32 37 -74 87 -74 153c0 91 68 158 174 158c101 0 169 -68 169 -159c0 -56 -31 -95 -76 -126l-52 -36l150 -179c26 37 37 78 38 143h98c-3 -91 -23 -163 -71 -219zM434 142
l-169 201c-52 -36 -96 -69 -96 -135c0 -71 55 -121 129 -121c48 0 89 13 136 55zM380 558c0 40 -29 71 -71 71c-44 0 -70 -30 -70 -70c0 -29 19 -56 55 -98l34 23c28 19 52 41 52 74z" />
    <glyph glyph-name="quotesingle" unicode="'" horiz-adv-x="257" 
d="M179 521h-101v191h101v-191z" />
    <glyph glyph-name="parenleft" unicode="(" horiz-adv-x="317" 
d="M260 -24l-70 -70c-38 38 -62 62 -81 95c-21 37 -23 75 -23 116v478c0 40 3 80 23 116c19 33 39 53 81 95l70 -70c-24 -24 -41 -38 -56 -66c-10 -19 -15 -45 -15 -81v-466c0 -36 5 -62 15 -81c15 -28 32 -42 56 -66z" />
    <glyph glyph-name="parenright" unicode=")" horiz-adv-x="317" 
d="M232 117c0 -41 -3 -79 -24 -116c-19 -35 -46 -60 -80 -95l-70 70c24 24 40 38 55 66c11 19 15 45 15 81v466c0 36 -4 62 -15 81c-15 28 -31 42 -55 66l70 70c37 -37 62 -62 80 -95c21 -36 24 -76 24 -116v-478z" />
    <glyph glyph-name="asterisk" unicode="*" horiz-adv-x="485" 
d="M424 466l-37 -65l-111 69l4 -131h-75l4 131l-111 -69l-37 65l115 61l-115 62l37 65l111 -69l-4 130h75l-4 -130l111 69l37 -65l-115 -62z" />
    <glyph glyph-name="plus" unicode="+" horiz-adv-x="533" 
d="M482 225h-168v-168h-95v168h-168v95h168v167h95v-167h168v-95z" />
    <glyph glyph-name="comma" unicode="," horiz-adv-x="272" 
d="M194 -60l-116 -95v271h116v-176z" />
    <glyph glyph-name="hyphen" unicode="-" horiz-adv-x="426" 
d="M359 230h-292v95h292v-95z" />
    <glyph glyph-name="period" unicode="." horiz-adv-x="278" 
d="M200 0h-122v122h122v-122z" />
    <glyph glyph-name="slash" unicode="/" horiz-adv-x="380" 
d="M383 786l-285 -860h-98l285 860h98z" />
    <glyph glyph-name="zero" unicode="0" horiz-adv-x="533" 
d="M472 198c0 -127 -92 -204 -206 -204c-113 0 -205 77 -205 204v316c0 127 92 204 205 204c114 0 206 -77 206 -204v-316zM370 201v310c0 68 -39 116 -104 116c-64 0 -103 -48 -103 -116v-310c0 -68 39 -116 103 -116c65 0 104 48 104 116z" />
    <glyph glyph-name="one" unicode="1" horiz-adv-x="533" 
d="M355 0h-102v601l-139 -122v113l139 120h102v-712z" />
    <glyph glyph-name="two" unicode="2" horiz-adv-x="533" 
d="M477 0h-414v91l274 333c27 33 38 59 38 95c0 64 -38 108 -104 108c-54 0 -105 -30 -105 -110h-102c0 121 86 201 207 201c122 0 206 -77 206 -200c0 -63 -23 -100 -67 -154l-223 -273h290v-91z" />
    <glyph glyph-name="three" unicode="3" horiz-adv-x="533" 
d="M478 200c0 -137 -99 -207 -218 -207c-114 0 -214 61 -218 200h102c4 -76 57 -108 116 -108c66 0 116 43 116 118c0 72 -39 117 -119 117h-17v89h17c74 0 108 43 108 108c0 72 -47 110 -105 110c-62 0 -102 -39 -107 -102h-102c6 121 95 194 209 194
c121 0 207 -81 207 -199c0 -76 -34 -125 -89 -152c61 -27 100 -80 100 -168z" />
    <glyph glyph-name="four" unicode="4" horiz-adv-x="533" 
d="M498 107h-76v-107h-99v107h-288v95l251 510h110l-250 -510h177v166h99v-166h76v-95z" />
    <glyph glyph-name="five" unicode="5" horiz-adv-x="533" 
d="M479 238c0 -76 -8 -137 -60 -189c-32 -32 -81 -56 -150 -56c-68 0 -121 24 -152 55c-38 38 -50 85 -54 136h102c8 -63 40 -99 104 -99c30 0 56 10 74 28c30 30 34 77 34 125c0 85 -22 149 -104 149c-58 0 -90 -29 -101 -64h-93v389h384v-91h-292v-188c24 25 66 41 118 41
c56 0 99 -17 128 -46c54 -54 62 -123 62 -190z" />
    <glyph glyph-name="six" unicode="6" horiz-adv-x="533" 
d="M477 211c0 -131 -87 -217 -210 -217s-211 81 -211 213c0 58 22 113 53 175l162 330h109l-153 -306c19 8 41 11 63 11c103 0 187 -81 187 -206zM375 209c0 70 -41 123 -109 123c-64 0 -108 -46 -108 -123c0 -76 44 -124 108 -124s109 48 109 124z" />
    <glyph glyph-name="seven" unicode="7" horiz-adv-x="533" 
d="M487 621l-238 -621h-110l239 621h-217v-112h-98v203h424v-91z" />
    <glyph glyph-name="eight" unicode="8" horiz-adv-x="533" 
d="M486 201c0 -129 -98 -207 -220 -207s-219 78 -219 207c0 85 48 137 98 167c-46 28 -86 78 -86 153c0 119 91 197 207 197s208 -78 208 -197c0 -75 -40 -125 -86 -153c50 -30 98 -82 98 -167zM383 203c0 66 -51 119 -117 119s-117 -53 -117 -119s51 -118 117 -118
s117 52 117 118zM372 518c0 62 -44 109 -106 109s-105 -47 -105 -109c0 -63 43 -108 105 -108s106 45 106 108z" />
    <glyph glyph-name="nine" unicode="9" horiz-adv-x="533" 
d="M477 505c0 -58 -22 -113 -53 -175l-162 -330h-109l153 306c-19 -8 -42 -11 -64 -11c-103 0 -186 81 -186 206c0 131 87 217 210 217s211 -81 211 -213zM375 503c0 76 -45 124 -109 124s-108 -48 -108 -124c0 -70 40 -123 108 -123c64 0 109 46 109 123z" />
    <glyph glyph-name="colon" unicode=":" horiz-adv-x="303" 
d="M225 285h-121v122h121v-122zM225 0h-121v122h121v-122z" />
    <glyph glyph-name="semicolon" unicode=";" horiz-adv-x="303" 
d="M222 -60l-116 -95v271h116v-176zM225 285h-121v122h121v-122z" />
    <glyph glyph-name="less" unicode="&#x3c;" horiz-adv-x="533" 
d="M451 55l-369 177v91l369 177v-108l-245 -115l245 -114v-108z" />
    <glyph glyph-name="equal" unicode="=" horiz-adv-x="533" 
d="M482 327h-431v95h431v-95zM482 133h-431v95h431v-95z" />
    <glyph glyph-name="greater" unicode="&#x3e;" horiz-adv-x="533" 
d="M451 232l-369 -177v108l245 114l-245 115v108l369 -177v-91z" />
    <glyph glyph-name="question" unicode="?" horiz-adv-x="511" 
d="M470 527c0 -48 -21 -86 -48 -123l-77 -108c-11 -15 -18 -38 -18 -54v-30h-102v35c0 41 10 67 34 99l78 105c18 24 31 48 31 76c0 56 -40 100 -98 100c-62 0 -97 -47 -97 -101h-102c0 113 86 192 199 192c109 0 200 -73 200 -191zM332 0h-113v109h113v-109z" />
    <glyph glyph-name="at" unicode="@" horiz-adv-x="736" 
d="M672 0h-96v50c-32 -38 -69 -57 -127 -57c-54 0 -100 21 -131 56c-38 43 -45 95 -45 185c0 88 7 141 43 184c29 35 77 57 132 57s94 -19 126 -56v61c0 47 -9 79 -37 108c-27 27 -63 37 -106 37h-126c-43 0 -77 -9 -105 -37c-30 -30 -37 -60 -37 -108v-312
c0 -56 11 -79 50 -110l-70 -70c-59 48 -79 86 -79 175v318c0 75 17 132 59 175c42 42 99 59 172 59h146c71 0 129 -17 171 -59c43 -43 60 -100 60 -175v-481zM574 234c0 86 -18 155 -102 155s-101 -69 -101 -155s17 -154 101 -154s102 68 102 154z" />
    <glyph glyph-name="A" unicode="A" horiz-adv-x="625" 
d="M617 0h-115l-49 143h-281l-49 -143h-115l261 712h87zM423 235l-108 316l-111 -316h219z" />
    <glyph glyph-name="B" unicode="B" horiz-adv-x="663" 
d="M596 201c0 -131 -89 -201 -215 -201h-288v712h277c132 0 215 -75 215 -195c0 -77 -48 -132 -96 -151c55 -22 107 -75 107 -165zM488 206c0 63 -42 108 -117 108h-170v-217h170c75 0 117 46 117 109zM477 513c0 66 -47 102 -116 102h-160v-204h160c69 0 116 36 116 102z
" />
    <glyph glyph-name="C" unicode="C" horiz-adv-x="628" 
d="M577 213c-25 -141 -124 -219 -254 -219c-78 0 -138 26 -184 72c-69 70 -72 141 -72 290s3 220 72 290c46 46 106 72 184 72c131 0 229 -78 254 -219h-110c-16 73 -65 123 -144 123c-43 0 -79 -16 -105 -44c-36 -38 -43 -81 -43 -222s7 -184 43 -222
c26 -28 62 -44 105 -44c79 0 129 50 146 123h108z" />
    <glyph glyph-name="D" unicode="D" horiz-adv-x="666" 
d="M599 356c0 -114 -2 -202 -54 -266c-50 -62 -113 -90 -202 -90h-250v712h250c89 0 152 -28 202 -90c52 -64 54 -152 54 -266zM491 356c0 106 -3 172 -38 211c-30 35 -71 49 -122 49h-130v-520h130c51 0 92 14 122 49c35 39 38 105 38 211z" />
    <glyph glyph-name="E" unicode="E" horiz-adv-x="603" 
d="M548 0h-455v712h455v-97h-347v-208h296v-96h-296v-214h347v-97z" />
    <glyph glyph-name="F" unicode="F" horiz-adv-x="585" 
d="M548 615h-347v-217h296v-97h-296v-301h-108v712h455v-97z" />
    <glyph glyph-name="G" unicode="G" horiz-adv-x="649" 
d="M583 276c0 -93 -17 -150 -64 -201c-53 -56 -121 -81 -196 -81c-78 0 -138 26 -184 72c-69 70 -72 141 -72 290s3 220 72 290c46 46 106 72 184 72c150 0 239 -99 258 -220h-108c-18 78 -70 124 -150 124c-43 0 -79 -16 -106 -44c-35 -38 -42 -81 -42 -222s7 -184 42 -222
c27 -28 63 -44 106 -44c47 0 89 18 117 51c26 30 35 66 35 112v40h-152v92h260v-109z" />
    <glyph glyph-name="H" unicode="H" horiz-adv-x="691" 
d="M598 0h-108v311h-289v-311h-108v712h108v-304h289v304h108v-712z" />
    <glyph glyph-name="I" unicode="I" horiz-adv-x="294" 
d="M201 0h-108v712h108v-712z" />
    <glyph glyph-name="J" unicode="J" horiz-adv-x="506" 
d="M423 225c0 -148 -106 -231 -237 -231c-73 0 -124 20 -173 69l72 71c25 -25 49 -43 101 -43c80 0 129 49 129 142v479h108v-487z" />
    <glyph glyph-name="K" unicode="K" horiz-adv-x="658" 
d="M648 0h-127l-200 351l-120 -144v-207h-108v712h108v-358l291 358h132l-231 -279z" />
    <glyph glyph-name="L" unicode="L" horiz-adv-x="574" 
d="M544 0h-451v712h108v-615h343v-97z" />
    <glyph glyph-name="M" unicode="M" horiz-adv-x="813" 
d="M721 0h-108v476l-164 -347h-80l-168 347v-476h-108v712h108l208 -443l204 443h108v-712z" />
    <glyph glyph-name="N" unicode="N" horiz-adv-x="722" 
d="M629 0h-99l-329 501v-501h-108v712h99l329 -500v500h108v-712z" />
    <glyph glyph-name="O" unicode="O" horiz-adv-x="646" 
d="M579 356c0 -149 -2 -220 -72 -290c-46 -46 -106 -72 -184 -72s-138 26 -184 72c-70 70 -72 141 -72 290s2 220 72 290c46 46 106 72 184 72s138 -26 184 -72c70 -70 72 -141 72 -290zM471 356c0 141 -6 185 -42 222c-27 28 -63 44 -106 44s-79 -16 -106 -44
c-35 -38 -42 -81 -42 -222s7 -183 42 -221c27 -28 63 -45 106 -45s79 17 106 45c36 37 42 80 42 221z" />
    <glyph glyph-name="P" unicode="P" horiz-adv-x="629" 
d="M591 496c0 -124 -89 -215 -228 -215h-162v-281h-108v712h270c139 0 228 -92 228 -216zM483 496c0 76 -50 119 -126 119h-156v-238h156c76 0 126 44 126 119z" />
    <glyph glyph-name="Q" unicode="Q" horiz-adv-x="646" 
d="M579 356c0 -129 -2 -198 -46 -260l70 -69l-60 -59l-71 70c-39 -28 -90 -44 -149 -44c-78 0 -138 26 -184 72c-70 70 -72 141 -72 290s2 220 72 290c46 46 106 72 184 72s138 -26 184 -72c70 -70 72 -141 72 -290zM471 356c0 141 -6 184 -42 222c-27 28 -63 44 -106 44
s-79 -16 -106 -44c-36 -38 -42 -81 -42 -222s6 -183 42 -221c27 -28 63 -45 106 -45c27 0 52 7 74 24l-76 75l60 60l69 -70c19 37 21 85 21 177z" />
    <glyph glyph-name="R" unicode="R" horiz-adv-x="655" 
d="M612 0h-126l-150 300h-135v-300h-108v712h276c135 0 221 -87 221 -208c0 -102 -62 -167 -142 -189zM482 503c0 70 -49 112 -121 112h-160v-223h160c72 0 121 41 121 111z" />
    <glyph glyph-name="S" unicode="S" horiz-adv-x="590" 
d="M538 203c0 -131 -106 -209 -256 -209c-107 0 -183 25 -252 94l71 71c52 -52 111 -69 183 -69c94 0 147 40 147 110c0 32 -8 57 -28 74c-18 16 -42 25 -78 30l-84 12c-58 9 -103 27 -134 57c-35 32 -53 78 -53 137c0 124 90 208 238 208c95 0 160 -24 221 -81l-68 -68
c-44 42 -96 55 -157 55c-84 0 -129 -46 -129 -111c0 -26 7 -50 26 -66c18 -16 39 -26 78 -32l85 -13c65 -10 101 -25 132 -53c38 -35 58 -84 58 -146z" />
    <glyph glyph-name="T" unicode="T" horiz-adv-x="560" 
d="M530 615h-196v-615h-108v615h-196v97h500v-97z" />
    <glyph glyph-name="U" unicode="U" horiz-adv-x="675" 
d="M593 240c0 -147 -111 -246 -256 -246s-255 99 -255 246v472h108v-467c0 -95 58 -154 147 -154s148 59 148 154v467h108v-472z" />
    <glyph glyph-name="V" unicode="V" horiz-adv-x="564" 
d="M559 712l-236 -712h-84l-234 712h112l164 -518l164 518h114z" />
    <glyph glyph-name="W" unicode="W" horiz-adv-x="871" 
d="M860 712l-186 -712h-94l-145 499l-144 -499h-94l-186 712h114l124 -509l143 509h87l143 -509l124 509h114z" />
    <glyph glyph-name="X" unicode="X" horiz-adv-x="578" 
d="M568 0h-125l-155 273l-154 -273h-124l220 365l-206 347h124l140 -255l141 255h124l-206 -347z" />
    <glyph glyph-name="Y" unicode="Y" horiz-adv-x="544" 
d="M539 712l-213 -419v-293h-108v293l-213 419h118l149 -313l149 313h118z" />
    <glyph glyph-name="Z" unicode="Z" horiz-adv-x="552" 
d="M504 0h-456v93l329 522h-315v97h442v-88l-331 -527h331v-97z" />
    <glyph glyph-name="bracketleft" unicode="[" horiz-adv-x="347" 
d="M304 -74h-218v860h218v-91h-116v-678h116v-91z" />
    <glyph glyph-name="backslash" unicode="\" horiz-adv-x="380" 
d="M380 -74h-98l-282 852h98z" />
    <glyph glyph-name="bracketright" unicode="]" horiz-adv-x="347" 
d="M261 -74h-218v90h118v680h-118v90h218v-860z" />
    <glyph glyph-name="asciicircum" unicode="^" horiz-adv-x="571" 
d="M503 401h-106l-112 207l-112 -207h-106l172 318h93z" />
    <glyph glyph-name="underscore" unicode="_" horiz-adv-x="571" 
d="M571 -172h-571v70h571v-70z" />
    <glyph glyph-name="grave" unicode="`" horiz-adv-x="500" 
d="M302 599h-77l-111 162h113z" />
    <glyph glyph-name="a" unicode="a" horiz-adv-x="530" 
d="M454 0h-100v46c-37 -37 -72 -52 -135 -52s-105 15 -136 46c-26 27 -40 66 -40 109c0 85 59 146 176 146h133v36c0 65 -31 95 -111 95c-54 0 -82 -14 -111 -50l-66 63c47 56 96 74 181 74c140 0 209 -60 209 -174v-339zM352 183v41h-117c-62 0 -93 -26 -93 -73
s29 -72 96 -72c36 0 65 4 92 29c16 15 22 39 22 75z" />
    <glyph glyph-name="b" unicode="b" horiz-adv-x="553" 
d="M496 254c0 -84 -8 -165 -57 -215c-28 -28 -73 -45 -124 -45c-54 0 -96 14 -134 60v-54h-100v712h102v-256c37 44 79 57 133 57c51 0 95 -17 123 -45c49 -50 57 -131 57 -214zM394 254c0 90 -13 168 -105 168c-93 0 -106 -78 -106 -168s13 -169 106 -169
c92 0 105 79 105 169z" />
    <glyph glyph-name="c" unicode="c" horiz-adv-x="485" 
d="M448 66c-48 -51 -97 -72 -167 -72c-114 0 -226 70 -226 260s112 259 226 259c70 0 119 -20 167 -71l-70 -68c-32 35 -57 48 -97 48c-39 0 -72 -16 -94 -45c-22 -28 -30 -64 -30 -123s8 -96 30 -124c22 -29 55 -45 94 -45c40 0 65 13 97 48z" />
    <glyph glyph-name="d" unicode="d" horiz-adv-x="553" 
d="M472 0h-100v54c-38 -46 -79 -60 -134 -60c-51 0 -96 17 -124 45c-49 50 -57 131 -57 215c0 83 8 164 57 214c28 28 72 45 123 45c54 0 96 -13 133 -57v256h102v-712zM370 254c0 90 -13 168 -105 168c-93 0 -106 -78 -106 -168s13 -169 106 -169c92 0 105 79 105 169z" />
    <glyph glyph-name="e" unicode="e" horiz-adv-x="539" 
d="M485 224h-329c0 -88 45 -142 129 -142c57 0 87 16 123 52l65 -61c-52 -52 -101 -79 -190 -79c-127 0 -228 67 -228 260c0 165 85 259 215 259c136 0 215 -98 215 -246v-43zM384 295c-2 31 -4 47 -14 69c-17 38 -52 64 -100 64c-49 0 -84 -26 -101 -64
c-10 -22 -12 -38 -13 -69h228z" />
    <glyph glyph-name="f" unicode="f" horiz-adv-x="328" 
d="M300 429h-101v-429h-102v429h-58v78h58v69c0 73 44 141 139 141h64v-87h-45c-38 0 -56 -22 -56 -59v-64h101v-78z" />
    <glyph glyph-name="g" unicode="g" horiz-adv-x="549" 
d="M468 3c0 -124 -82 -214 -217 -214c-77 0 -126 18 -179 67l65 65c32 -30 60 -45 110 -45c86 0 119 61 119 129v65c-37 -44 -79 -58 -131 -58c-51 0 -93 17 -121 45c-49 49 -57 120 -57 206s8 157 57 206c28 28 71 44 122 44c54 0 95 -14 133 -60v54h99v-504zM366 263
c0 80 -11 159 -103 159s-104 -79 -104 -159s12 -159 104 -159s103 79 103 159z" />
    <glyph glyph-name="h" unicode="h" horiz-adv-x="568" 
d="M492 0h-102v309c0 79 -45 113 -102 113s-105 -35 -105 -113v-309h-102v712h102v-256c34 38 81 57 133 57s95 -17 125 -46c39 -38 51 -86 51 -143v-324z" />
    <glyph glyph-name="i" unicode="i" horiz-adv-x="264" 
d="M183 0h-102v507h102v-507zM186 607h-108v108h108v-108z" />
    <glyph glyph-name="j" unicode="j" horiz-adv-x="264" 
d="M183 -67c0 -75 -42 -140 -139 -140h-63v87h45c41 0 55 20 55 59v568h102v-574zM186 607h-108v108h108v-108z" />
    <glyph glyph-name="k" unicode="k" horiz-adv-x="548" 
d="M526 0h-126l-142 234l-75 -85v-149h-102v712h102v-439l197 234h124l-176 -199z" />
    <glyph glyph-name="l" unicode="l" horiz-adv-x="311" 
d="M280 0h-63c-97 0 -139 65 -139 140v572h102v-566c0 -39 14 -59 55 -59h45v-87z" />
    <glyph glyph-name="m" unicode="m" horiz-adv-x="877" 
d="M801 0h-102v309c0 79 -45 113 -102 113c-55 0 -105 -35 -105 -108v-314h-102v309c0 79 -45 113 -102 113s-105 -35 -105 -113v-309h-102v507h100v-51c34 37 84 57 135 57c63 0 112 -25 144 -74c41 50 92 74 159 74c52 0 98 -17 128 -46c39 -38 54 -86 54 -143v-324z" />
    <glyph glyph-name="n" unicode="n" horiz-adv-x="568" 
d="M492 0h-102v309c0 79 -45 113 -102 113s-105 -35 -105 -113v-309h-102v507h100v-51c35 38 84 57 135 57c52 0 95 -17 125 -46c39 -38 51 -86 51 -143v-324z" />
    <glyph glyph-name="o" unicode="o" horiz-adv-x="537" 
d="M480 254c0 -86 -12 -150 -60 -200c-33 -34 -83 -60 -152 -60s-118 26 -151 60c-48 50 -60 114 -60 200c0 85 12 149 60 199c33 34 82 60 151 60s119 -26 152 -60c48 -50 60 -114 60 -199zM378 254c0 55 -4 108 -35 139c-19 19 -45 29 -75 29s-55 -10 -74 -29
c-31 -31 -35 -84 -35 -139s4 -108 35 -139c19 -19 44 -30 74 -30s56 11 75 30c31 31 35 84 35 139z" />
    <glyph glyph-name="p" unicode="p" horiz-adv-x="553" 
d="M496 254c0 -83 -8 -165 -57 -215c-28 -28 -71 -45 -123 -45c-54 0 -96 13 -133 58v-257h-102v712h100v-54c38 46 80 60 134 60c52 0 96 -17 124 -45c49 -50 57 -131 57 -214zM394 254c0 90 -13 168 -105 168c-93 0 -106 -78 -106 -168s13 -169 106 -169
c92 0 105 79 105 169z" />
    <glyph glyph-name="q" unicode="q" horiz-adv-x="553" 
d="M57 254c0 83 8 164 57 214c28 28 72 45 124 45c54 0 96 -14 134 -60v54h100v-712h-102v257c-37 -45 -79 -58 -133 -58c-52 0 -95 17 -123 45c-49 50 -57 132 -57 215zM159 254c0 -90 13 -169 105 -169c93 0 106 79 106 169s-13 168 -106 168c-92 0 -105 -78 -105 -168z
" />
    <glyph glyph-name="r" unicode="r" horiz-adv-x="439" 
d="M437 465l-77 -77c-23 23 -41 34 -76 34c-55 0 -101 -44 -101 -114v-308h-102v507h100v-55c26 36 78 61 135 61c49 0 86 -13 121 -48z" />
    <glyph glyph-name="s" unicode="s" horiz-adv-x="499" 
d="M456 155c0 -106 -90 -161 -211 -161c-83 0 -153 14 -213 73l67 67c41 -42 96 -53 146 -53c63 0 111 22 111 70c0 35 -19 55 -68 60l-81 7c-96 9 -150 51 -150 140c0 100 85 155 191 155c77 0 141 -16 188 -57l-64 -65c-32 27 -77 37 -125 37c-62 0 -92 -26 -92 -65
c0 -35 20 -53 70 -58l71 -6c105 -9 160 -55 160 -144z" />
    <glyph glyph-name="t" unicode="t" horiz-adv-x="342" 
d="M293 0h-61c-95 0 -139 68 -139 141v288h-58v78h58v145h102v-145h98v-78h-98v-283c0 -37 18 -59 56 -59h42v-87z" />
    <glyph glyph-name="u" unicode="u" horiz-adv-x="568" 
d="M487 0h-100v51c-35 -38 -84 -57 -135 -57c-52 0 -95 17 -125 46c-39 38 -51 86 -51 143v324h102v-309c0 -79 45 -113 102 -113s105 35 105 113v309h102v-507z" />
    <glyph glyph-name="v" unicode="v" horiz-adv-x="471" 
d="M463 507l-186 -507h-83l-186 507h108l120 -357l119 357h108z" />
    <glyph glyph-name="w" unicode="w" horiz-adv-x="743" 
d="M735 507l-158 -507h-87l-119 354l-118 -354h-88l-157 507h108l98 -357l118 357h79l117 -357l98 357h109z" />
    <glyph glyph-name="x" unicode="x" horiz-adv-x="503" 
d="M481 0h-123l-106 173l-107 -173h-123l174 259l-167 248h123l100 -165l99 165h123l-166 -248z" />
    <glyph glyph-name="y" unicode="y" horiz-adv-x="468" 
d="M464 507l-224 -608c-10 -28 -22 -48 -37 -63c-28 -28 -65 -37 -104 -37h-41v92h26c43 0 58 13 73 54l28 79l-177 483h108l121 -357l118 357h109z" />
    <glyph glyph-name="z" unicode="z" horiz-adv-x="469" 
d="M421 0h-378v81l252 335h-238v91h364v-81l-254 -335h254v-91z" />
    <glyph glyph-name="braceleft" unicode="{" horiz-adv-x="407" 
d="M362 -74h-71c-51 0 -84 11 -107 34c-26 26 -36 57 -36 105v167c0 28 -6 48 -18 60c-11 11 -26 19 -48 19h-37v90h37c22 0 37 8 48 19c12 12 18 32 18 60v167c0 48 10 79 36 105c23 23 56 34 107 34h71v-91h-39c-32 0 -48 -3 -58 -14c-11 -11 -15 -29 -15 -64v-161
c0 -65 -34 -86 -66 -100c32 -14 66 -35 66 -100v-161c0 -35 4 -53 15 -64c10 -11 26 -14 58 -14h39v-91z" />
    <glyph glyph-name="bar" unicode="|" horiz-adv-x="338" 
d="M220 -74h-102v860h102v-860z" />
    <glyph glyph-name="braceright" unicode="}" horiz-adv-x="407" 
d="M362 311h-36c-22 0 -38 -8 -49 -19c-12 -12 -18 -32 -18 -60v-167c0 -48 -10 -79 -36 -105c-23 -23 -56 -34 -107 -34h-71v91h39c32 0 48 3 58 14c11 11 15 29 15 64v161c0 65 35 86 67 100c-32 14 -67 35 -67 100v161c0 35 -4 53 -15 64c-10 11 -26 14 -58 14h-39v91h71
c51 0 84 -11 107 -34c26 -26 36 -57 36 -105v-167c0 -28 6 -48 18 -60c11 -11 27 -19 49 -19h36v-90z" />
    <glyph glyph-name="asciitilde" unicode="~" horiz-adv-x="574" 
d="M531 280c-59 -59 -95 -78 -148 -78c-39 0 -71 13 -112 33c-28 14 -51 24 -79 24s-47 -6 -85 -44l-64 64c59 59 94 78 147 78c39 0 70 -13 111 -33c28 -14 52 -24 80 -24s47 6 85 44z" />
    <glyph glyph-name="uni00A0" unicode="&#xa0;" horiz-adv-x="240" 
 />
    <glyph glyph-name="exclamdown" unicode="&#xa1;" horiz-adv-x="332" 
d="M211 -205h-124l22 500h80zM205 398h-112v109h112v-109z" />
    <glyph glyph-name="cent" unicode="&#xa2;" horiz-adv-x="498" 
d="M459 184c-42 -45 -84 -67 -141 -74v-110h-80v111c-107 18 -183 106 -183 255s76 237 183 255v91h80v-90c57 -7 99 -29 141 -74l-68 -66c-26 29 -49 43 -82 48v-328c33 5 56 19 82 48zM247 204v324c-24 -5 -43 -19 -58 -39c-21 -29 -32 -64 -32 -123c0 -58 10 -94 31 -123
c15 -20 35 -34 59 -39z" />
    <glyph glyph-name="sterling" unicode="&#xa3;" horiz-adv-x="564" 
d="M516 0h-411v313h-62v78h62v96c0 148 107 231 238 231c73 0 124 -20 173 -69l-72 -71c-25 25 -49 43 -101 43c-80 0 -129 -49 -129 -142v-88h129v-78h-129v-216h302v-97z" />
    <glyph glyph-name="currency" unicode="&#xa4;" horiz-adv-x="665" 
d="M597 81l-67 -67l-74 74c-35 -24 -78 -38 -124 -38s-89 14 -124 38l-73 -74l-67 67l73 74c-24 35 -38 78 -38 124s14 89 38 124l-73 73l67 67l73 -73c35 24 78 37 124 37s89 -13 124 -37l74 73l67 -67l-74 -73c24 -35 38 -78 38 -124s-14 -89 -38 -124zM468 279
c0 75 -61 135 -136 135s-136 -60 -136 -135s61 -136 136 -136s136 61 136 136z" />
    <glyph glyph-name="yen" unicode="&#xa5;" horiz-adv-x="544" 
d="M538 712l-146 -290h87v-78h-127l-26 -51v-52h153v-78h-153v-163h-108v163h-153v78h153v52l-26 51h-127v78h87l-147 290h118l150 -314l148 314h117z" />
    <glyph glyph-name="brokenbar" unicode="&#xa6;" horiz-adv-x="344" 
d="M220 436h-102v350h102v-350zM220 -74h-102v350h102v-350z" />
    <glyph glyph-name="section" unicode="&#xa7;" horiz-adv-x="543" 
d="M472 264c0 -78 -52 -133 -97 -156c50 -22 88 -66 88 -141c0 -114 -90 -178 -191 -178c-98 0 -190 53 -194 170h100c4 -49 38 -79 94 -79c57 0 91 32 91 84c0 36 -23 71 -78 88l-70 21c-92 28 -141 87 -141 186c0 78 51 133 97 156c-49 24 -84 61 -84 134
c0 93 68 169 186 169s185 -69 188 -165h-98c-4 54 -39 76 -90 76c-56 0 -88 -28 -88 -77c0 -41 29 -67 75 -81l70 -21c92 -28 142 -88 142 -186zM372 261c0 36 -9 61 -29 80c-18 17 -40 28 -70 28s-54 -10 -71 -28c-18 -19 -28 -42 -28 -80c0 -39 12 -62 28 -79
c17 -18 41 -28 71 -28s53 10 70 28c16 17 29 39 29 79z" />
    <glyph glyph-name="dieresis" unicode="&#xa8;" horiz-adv-x="500" 
d="M404 604h-92v108h92v-108zM188 604h-92v108h92v-108z" />
    <glyph glyph-name="copyright" unicode="&#xa9;" horiz-adv-x="862" 
d="M793 356c0 -200 -162 -362 -362 -362s-362 162 -362 362s162 362 362 362s362 -162 362 -362zM720 356c0 165 -128 294 -289 294s-289 -129 -289 -294s128 -294 289 -294s289 129 289 294zM568 208c-38 -34 -75 -52 -131 -52c-108 0 -179 78 -179 200s71 200 179 200
c56 0 92 -18 131 -52l-46 -47c-30 26 -51 35 -85 35c-76 0 -108 -58 -108 -136s32 -136 108 -136c34 0 55 9 85 35z" />
    <glyph glyph-name="ordfeminine" unicode="&#xaa;" horiz-adv-x="452" 
d="M379 307h-81v36c-29 -29 -57 -40 -106 -40c-50 0 -83 11 -108 36c-21 21 -32 53 -32 87c0 68 47 117 139 117h105v28c0 50 -25 74 -87 74c-44 0 -64 -10 -87 -39l-55 52c38 45 79 58 146 58c111 0 166 -48 166 -139v-270zM296 453v32h-93c-47 0 -70 -21 -70 -57
s21 -55 71 -55c31 0 55 2 75 22c12 11 17 29 17 58z" />
    <glyph glyph-name="guillemotleft" unicode="&#xab;" horiz-adv-x="592" 
d="M267 42l-230 230l230 229v-123l-107 -106l107 -107v-123zM520 42l-230 230l230 229v-123l-108 -106l108 -107v-123z" />
    <glyph glyph-name="logicalnot" unicode="&#xac;" horiz-adv-x="533" 
d="M484 98h-95v141h-341v95h436v-236z" />
    <glyph glyph-name="uni00AD" unicode="&#xad;" horiz-adv-x="426" 
d="M359 230h-292v95h292v-95z" />
    <glyph glyph-name="registered" unicode="&#xae;" horiz-adv-x="862" 
d="M793 356c0 -200 -162 -362 -362 -362s-362 162 -362 362s162 362 362 362s362 -162 362 -362zM720 356c0 165 -127 295 -289 295s-290 -130 -290 -295s128 -295 290 -295s289 130 289 295zM588 161h-81l-80 155h-50v-155h-72v391h147c74 0 126 -55 126 -120
c0 -55 -34 -91 -77 -106zM507 432c0 33 -26 59 -64 59h-66v-118h66c38 0 64 26 64 59z" />
    <glyph glyph-name="macron" unicode="&#xaf;" horiz-adv-x="500" 
d="M95 618v73h309v-73h-309z" />
    <glyph glyph-name="degree" unicode="&#xb0;" horiz-adv-x="471" 
d="M410 549c0 -96 -79 -174 -175 -174s-174 78 -174 174s78 175 174 175s175 -79 175 -175zM326 549c0 52 -40 93 -91 93s-90 -41 -90 -93s39 -92 90 -92s91 40 91 92z" />
    <glyph glyph-name="plusminus" unicode="&#xb1;" horiz-adv-x="533" 
d="M482 316h-168v-169h-95v169h-168v95h168v168h95v-168h168v-95zM482 0h-431v95h431v-95z" />
    <glyph glyph-name="twosuperior" unicode="&#xb2;" 
d="M297 285h-260v69l161 186c16 19 22 32 22 52c0 33 -19 55 -53 55c-27 0 -53 -13 -53 -55h-77c0 77 56 124 130 124c75 0 130 -47 130 -124c0 -41 -17 -64 -46 -98l-121 -140h167v-69z" />
    <glyph glyph-name="threesuperior" unicode="&#xb3;" 
d="M302 408c0 -85 -62 -128 -135 -128c-70 0 -136 37 -137 126h77c1 -39 29 -57 60 -57c34 0 58 22 58 61c0 36 -21 60 -61 60h-11v66h11c38 0 56 24 56 55c0 37 -25 56 -54 56c-31 0 -52 -19 -54 -52h-76c2 76 59 121 130 121c75 0 130 -50 130 -122c0 -46 -21 -74 -50 -89
c31 -16 56 -45 56 -97z" />
    <glyph glyph-name="acute" unicode="&#xb4;" horiz-adv-x="500" 
d="M386 761l-111 -162h-77l75 162h113z" />
    <glyph glyph-name="mu" unicode="&#xb5;" horiz-adv-x="569" 
d="M487 0h-100v51c-35 -38 -83 -57 -134 -57c-31 0 -56 9 -75 25v-224h-102v712h102v-309c0 -79 46 -113 103 -113s104 35 104 113v309h102v-507z" />
    <glyph glyph-name="paragraph" unicode="&#xb6;" horiz-adv-x="637" 
d="M544 -205h-102v820h-108v-820h-102v522c-110 0 -194 91 -194 196c0 119 88 199 225 199h281v-917z" />
    <glyph glyph-name="periodcentered" unicode="&#xb7;" horiz-adv-x="278" 
d="M200 217h-122v122h122v-122z" />
    <glyph glyph-name="cedilla" unicode="&#xb8;" horiz-adv-x="500" 
d="M319 -64l-51 -147h-101l70 147h82z" />
    <glyph glyph-name="onesuperior" unicode="&#xb9;" 
d="M224 285h-77v341l-87 -76v87l87 75h77v-427z" />
    <glyph glyph-name="ordmasculine" unicode="&#xba;" horiz-adv-x="458" 
d="M398 510c0 -69 -9 -119 -48 -159c-26 -27 -66 -48 -121 -48s-94 21 -120 48c-39 40 -48 90 -48 159c0 68 9 118 48 158c26 27 65 48 120 48s95 -21 121 -48c39 -40 48 -90 48 -158zM314 510c0 43 -1 84 -26 109c-15 15 -35 23 -59 23s-43 -8 -58 -23
c-25 -25 -27 -66 -27 -109s2 -85 27 -110c15 -15 34 -23 58 -23s44 8 59 23c25 25 26 67 26 110z" />
    <glyph glyph-name="guillemotright" unicode="&#xbb;" horiz-adv-x="592" 
d="M556 272l-231 -230v123l107 107l-107 106v123zM303 272l-231 -230v123l108 107l-108 106v123z" />
    <glyph glyph-name="onequarter" unicode="&#xbc;" horiz-adv-x="847" 
d="M224 285h-77v341l-87 -76v87l87 75h77v-427zM632 712l-335 -712h-82l335 712h82zM828 61h-40v-61h-73v61h-174v71l146 295h84l-147 -295h91v83h73v-83h40v-71z" />
    <glyph glyph-name="onehalf" unicode="&#xbd;" horiz-adv-x="847" 
d="M224 285h-77v341l-87 -76v87l87 75h77v-427zM632 712l-335 -712h-82l335 712h82zM819 0h-260v69l161 186c16 19 22 32 22 52c0 33 -19 55 -53 55c-27 0 -53 -13 -53 -55h-77c0 77 56 124 130 124c75 0 130 -47 130 -124c0 -41 -17 -64 -46 -98l-121 -140h167v-69z" />
    <glyph glyph-name="threequarters" unicode="&#xbe;" horiz-adv-x="847" 
d="M302 409c0 -85 -62 -128 -135 -128c-70 0 -136 37 -137 126h77c1 -39 29 -57 60 -57c34 0 58 22 58 61c0 36 -21 60 -61 60h-11v66h11c38 0 56 24 56 55c0 37 -25 56 -54 56c-31 0 -52 -19 -54 -52h-76c2 76 59 121 130 121c75 0 130 -50 130 -122c0 -46 -21 -74 -50 -89
c31 -16 56 -45 56 -97zM632 712l-335 -712h-82l335 712h82zM828 61h-40v-61h-73v61h-174v71l146 295h84l-147 -295h91v83h73v-83h40v-71z" />
    <glyph glyph-name="questiondown" unicode="&#xbf;" horiz-adv-x="511" 
d="M440 -19c0 -113 -87 -192 -200 -192c-109 0 -199 74 -199 192c0 48 20 86 47 123l78 108c11 15 18 38 18 54v30h102v-36c0 -41 -11 -67 -35 -99l-77 -105c-18 -24 -31 -48 -31 -76c0 -56 39 -99 97 -99c62 0 98 46 98 100h102zM291 398h-112v109h112v-109z" />
    <glyph glyph-name="Agrave" unicode="&#xc0;" horiz-adv-x="625" 
d="M617 0h-115l-49 143h-281l-49 -143h-115l261 712h87zM423 235l-108 316l-111 -316h219zM361 781h-77l-111 162h113z" />
    <glyph glyph-name="Aacute" unicode="&#xc1;" horiz-adv-x="625" 
d="M617 0h-115l-49 143h-281l-49 -143h-115l261 712h87zM423 235l-108 316l-111 -316h219zM446 943l-111 -162h-77l75 162h113z" />
    <glyph glyph-name="Acircumflex" unicode="&#xc2;" horiz-adv-x="625" 
d="M617 0h-115l-49 143h-281l-49 -143h-115l261 712h87zM423 235l-108 316l-111 -316h219zM482 781h-85l-87 97l-87 -97h-85l129 161h86z" />
    <glyph glyph-name="Atilde" unicode="&#xc3;" horiz-adv-x="625" 
d="M617 0h-115l-49 143h-281l-49 -143h-115l261 712h87zM423 235l-108 316l-111 -316h219zM478 846c-45 -45 -73 -55 -104 -55c-29 0 -49 8 -75 23c-19 11 -36 19 -56 19c-17 0 -30 -2 -58 -30l-48 47c45 45 72 55 104 55c29 0 48 -8 75 -24c20 -12 35 -19 55 -19
c16 0 32 4 59 31z" />
    <glyph glyph-name="Adieresis" unicode="&#xc4;" horiz-adv-x="625" 
d="M617 0h-115l-49 143h-281l-49 -143h-115l261 712h87zM423 235l-108 316l-111 -316h219zM466 786h-92v108h92v-108zM250 786h-92v108h92v-108z" />
    <glyph glyph-name="Aring" unicode="&#xc5;" horiz-adv-x="625" 
d="M617 0h-115l-49 143h-281l-49 -143h-115l261 712h87zM423 235l-108 316l-111 -316h219zM435 875c0 -69 -56 -125 -125 -125s-125 56 -125 125s56 125 125 125s125 -56 125 -125zM374 875c0 35 -29 63 -64 63s-64 -28 -64 -63s29 -63 64 -63s64 28 64 63z" />
    <glyph glyph-name="AE" unicode="&#xc6;" horiz-adv-x="952" 
d="M897 0h-455v162h-235l-84 -162h-118l374 712h518v-97h-347v-209h296v-97h-296v-212h347v-97zM442 254v361l-188 -361h188z" />
    <glyph glyph-name="Ccedilla" unicode="&#xc7;" horiz-adv-x="628" 
d="M577 213c-25 -141 -124 -219 -254 -219c-78 0 -138 26 -184 72c-69 70 -72 141 -72 290s3 220 72 290c46 46 106 72 184 72c131 0 229 -78 254 -219h-110c-16 73 -65 123 -144 123c-43 0 -79 -16 -105 -44c-36 -38 -43 -81 -43 -222s7 -184 43 -222
c26 -28 62 -44 105 -44c79 0 129 50 146 123h108zM374 -64l-51 -147h-101l70 147h82z" />
    <glyph glyph-name="Egrave" unicode="&#xc8;" horiz-adv-x="603" 
d="M548 0h-455v712h455v-97h-347v-208h296v-96h-296v-214h347v-97zM363 781h-77l-111 162h113z" />
    <glyph glyph-name="Eacute" unicode="&#xc9;" horiz-adv-x="603" 
d="M548 0h-455v712h455v-97h-347v-208h296v-96h-296v-214h347v-97zM447 943l-111 -162h-77l75 162h113z" />
    <glyph glyph-name="Ecircumflex" unicode="&#xca;" horiz-adv-x="603" 
d="M548 0h-455v712h455v-97h-347v-208h296v-96h-296v-214h347v-97zM483 781h-85l-87 97l-87 -97h-85l129 161h86z" />
    <glyph glyph-name="Edieresis" unicode="&#xcb;" horiz-adv-x="603" 
d="M548 0h-455v712h455v-97h-347v-208h296v-96h-296v-214h347v-97zM465 786h-92v108h92v-108zM249 786h-92v108h92v-108z" />
    <glyph glyph-name="Igrave" unicode="&#xcc;" horiz-adv-x="294" 
d="M201 0h-108v712h108v-712zM202 781h-77l-111 162h113z" />
    <glyph glyph-name="Iacute" unicode="&#xcd;" horiz-adv-x="294" 
d="M201 0h-108v712h108v-712zM286 943l-111 -162h-77l75 162h113z" />
    <glyph glyph-name="Icircumflex" unicode="&#xce;" horiz-adv-x="294" 
d="M201 0h-108v712h108v-712zM320 781h-85l-87 97l-87 -97h-85l129 161h86z" />
    <glyph glyph-name="Idieresis" unicode="&#xcf;" horiz-adv-x="294" 
d="M201 0h-108v712h108v-712zM302 786h-92v108h92v-108zM86 786h-92v108h92v-108z" />
    <glyph glyph-name="Eth" unicode="&#xd0;" horiz-adv-x="684" 
d="M618 356c0 -114 -2 -202 -54 -266c-50 -62 -113 -90 -202 -90h-250v318h-74v83h74v311h250c89 0 152 -28 202 -90c52 -64 54 -152 54 -266zM510 356c0 106 -3 172 -38 211c-30 35 -71 49 -122 49h-130v-215h138v-83h-138v-222h130c51 0 92 14 122 49c35 39 38 105 38 211
z" />
    <glyph glyph-name="Ntilde" unicode="&#xd1;" horiz-adv-x="722" 
d="M629 0h-99l-329 501v-501h-108v712h99l329 -500v500h108v-712zM530 846c-45 -45 -73 -55 -104 -55c-29 0 -49 8 -75 23c-19 11 -36 19 -56 19c-17 0 -30 -2 -58 -30l-48 47c45 45 72 55 104 55c29 0 48 -8 75 -24c20 -12 35 -19 55 -19c16 0 32 4 59 31z" />
    <glyph glyph-name="Ograve" unicode="&#xd2;" horiz-adv-x="646" 
d="M579 356c0 -149 -2 -220 -72 -290c-46 -46 -106 -72 -184 -72s-138 26 -184 72c-70 70 -72 141 -72 290s2 220 72 290c46 46 106 72 184 72s138 -26 184 -72c70 -70 72 -141 72 -290zM471 356c0 141 -6 185 -42 222c-27 28 -63 44 -106 44s-79 -16 -106 -44
c-35 -38 -42 -81 -42 -222s7 -183 42 -221c27 -28 63 -45 106 -45s79 17 106 45c36 37 42 80 42 221zM375 781h-77l-111 162h113z" />
    <glyph glyph-name="Oacute" unicode="&#xd3;" horiz-adv-x="646" 
d="M579 356c0 -149 -2 -220 -72 -290c-46 -46 -106 -72 -184 -72s-138 26 -184 72c-70 70 -72 141 -72 290s2 220 72 290c46 46 106 72 184 72s138 -26 184 -72c70 -70 72 -141 72 -290zM471 356c0 141 -6 185 -42 222c-27 28 -63 44 -106 44s-79 -16 -106 -44
c-35 -38 -42 -81 -42 -222s7 -183 42 -221c27 -28 63 -45 106 -45s79 17 106 45c36 37 42 80 42 221zM459 943l-111 -162h-77l75 162h113z" />
    <glyph glyph-name="Ocircumflex" unicode="&#xd4;" horiz-adv-x="646" 
d="M579 356c0 -149 -2 -220 -72 -290c-46 -46 -106 -72 -184 -72s-138 26 -184 72c-70 70 -72 141 -72 290s2 220 72 290c46 46 106 72 184 72s138 -26 184 -72c70 -70 72 -141 72 -290zM471 356c0 141 -6 185 -42 222c-27 28 -63 44 -106 44s-79 -16 -106 -44
c-35 -38 -42 -81 -42 -222s7 -183 42 -221c27 -28 63 -45 106 -45s79 17 106 45c36 37 42 80 42 221zM495 781h-85l-87 97l-87 -97h-85l129 161h86z" />
    <glyph glyph-name="Otilde" unicode="&#xd5;" horiz-adv-x="646" 
d="M579 356c0 -149 -2 -220 -72 -290c-46 -46 -106 -72 -184 -72s-138 26 -184 72c-70 70 -72 141 -72 290s2 220 72 290c46 46 106 72 184 72s138 -26 184 -72c70 -70 72 -141 72 -290zM471 356c0 141 -6 185 -42 222c-27 28 -63 44 -106 44s-79 -16 -106 -44
c-35 -38 -42 -81 -42 -222s7 -183 42 -221c27 -28 63 -45 106 -45s79 17 106 45c36 37 42 80 42 221zM492 846c-45 -45 -73 -55 -104 -55c-29 0 -49 8 -75 23c-19 11 -36 19 -56 19c-17 0 -30 -2 -58 -30l-48 47c45 45 72 55 104 55c29 0 48 -8 75 -24c20 -12 35 -19 55 -19
c16 0 32 4 59 31z" />
    <glyph glyph-name="Odieresis" unicode="&#xd6;" horiz-adv-x="646" 
d="M579 356c0 -149 -2 -220 -72 -290c-46 -46 -106 -72 -184 -72s-138 26 -184 72c-70 70 -72 141 -72 290s2 220 72 290c46 46 106 72 184 72s138 -26 184 -72c70 -70 72 -141 72 -290zM471 356c0 141 -6 185 -42 222c-27 28 -63 44 -106 44s-79 -16 -106 -44
c-35 -38 -42 -81 -42 -222s7 -183 42 -221c27 -28 63 -45 106 -45s79 17 106 45c36 37 42 80 42 221zM477 786h-92v108h92v-108zM261 786h-92v108h92v-108z" />
    <glyph glyph-name="multiply" unicode="&#xd7;" horiz-adv-x="533" 
d="M476 132l-64 -63l-146 145l-145 -145l-64 63l146 146l-146 146l64 64l145 -146l146 146l64 -64l-146 -146z" />
    <glyph glyph-name="Oslash" unicode="&#xd8;" horiz-adv-x="646" 
d="M556 756l-52 -107c74 -72 75 -144 75 -293s-2 -220 -72 -290c-46 -46 -106 -72 -184 -72c-46 0 -86 9 -120 26l-30 -64h-82l51 107l-3 3c-69 69 -72 141 -72 290s3 220 72 290c46 46 106 72 184 72c46 0 86 -9 120 -26l30 64h83zM175 356c0 -106 4 -155 21 -190l207 433
c-22 15 -50 23 -80 23c-43 0 -79 -16 -106 -44c-35 -38 -42 -81 -42 -222zM471 356c0 105 -4 156 -20 190l-207 -433c22 -15 49 -23 79 -23c43 0 80 17 106 45c36 38 42 80 42 221z" />
    <glyph glyph-name="Ugrave" unicode="&#xd9;" horiz-adv-x="675" 
d="M593 240c0 -147 -111 -246 -256 -246s-255 99 -255 246v472h108v-467c0 -95 58 -154 147 -154s148 59 148 154v467h108v-472zM390 781h-77l-111 162h113z" />
    <glyph glyph-name="Uacute" unicode="&#xda;" horiz-adv-x="675" 
d="M593 240c0 -147 -111 -246 -256 -246s-255 99 -255 246v472h108v-467c0 -95 58 -154 147 -154s148 59 148 154v467h108v-472zM474 943l-111 -162h-77l75 162h113z" />
    <glyph glyph-name="Ucircumflex" unicode="&#xdb;" horiz-adv-x="675" 
d="M593 240c0 -147 -111 -246 -256 -246s-255 99 -255 246v472h108v-467c0 -95 58 -154 147 -154s148 59 148 154v467h108v-472zM510 781h-85l-87 97l-87 -97h-85l129 161h86z" />
    <glyph glyph-name="Udieresis" unicode="&#xdc;" horiz-adv-x="675" 
d="M593 240c0 -147 -111 -246 -256 -246s-255 99 -255 246v472h108v-467c0 -95 58 -154 147 -154s148 59 148 154v467h108v-472zM491 786h-92v108h92v-108zM275 786h-92v108h92v-108z" />
    <glyph glyph-name="Yacute" unicode="&#xdd;" horiz-adv-x="544" 
d="M539 712l-213 -419v-293h-108v293l-213 419h118l149 -313l149 313h118zM408 943l-111 -162h-77l75 162h113z" />
    <glyph glyph-name="Thorn" unicode="&#xde;" horiz-adv-x="637" 
d="M591 359c0 -124 -89 -215 -228 -215h-162v-144h-108v712h108v-137h162c139 0 228 -92 228 -216zM482 359c0 75 -51 119 -126 119h-155v-237h155c75 0 126 43 126 118z" />
    <glyph glyph-name="germandbls" unicode="&#xdf;" horiz-adv-x="565" 
d="M501 152c0 -49 -15 -87 -41 -113c-28 -26 -61 -39 -114 -39h-53v87h32c25 0 38 5 52 17s21 31 21 57v156c0 25 -6 39 -18 53s-30 19 -52 19h-35v81h31c43 0 74 26 74 75c0 24 -8 45 -25 60c-17 16 -45 24 -81 24c-80 0 -108 -44 -108 -113v-516h-103v522
c0 133 87 197 214 197c117 0 205 -53 205 -171c0 -58 -27 -94 -62 -116c42 -21 63 -52 63 -115v-165z" />
    <glyph glyph-name="agrave" unicode="&#xe0;" horiz-adv-x="530" 
d="M454 0h-100v46c-37 -37 -72 -52 -135 -52s-105 15 -136 46c-26 27 -40 66 -40 109c0 85 59 146 176 146h133v36c0 65 -31 95 -111 95c-54 0 -82 -14 -111 -50l-66 63c47 56 96 74 181 74c140 0 209 -60 209 -174v-339zM352 183v41h-117c-62 0 -93 -26 -93 -73
s29 -72 96 -72c36 0 65 4 92 29c16 15 22 39 22 75zM309 599h-77l-111 162h113z" />
    <glyph glyph-name="aacute" unicode="&#xe1;" horiz-adv-x="530" 
d="M454 0h-100v46c-37 -37 -72 -52 -135 -52s-105 15 -136 46c-26 27 -40 66 -40 109c0 85 59 146 176 146h133v36c0 65 -31 95 -111 95c-54 0 -82 -14 -111 -50l-66 63c47 56 96 74 181 74c140 0 209 -60 209 -174v-339zM352 183v41h-117c-62 0 -93 -26 -93 -73
s29 -72 96 -72c36 0 65 4 92 29c16 15 22 39 22 75zM393 761l-111 -162h-77l75 162h113z" />
    <glyph glyph-name="acircumflex" unicode="&#xe2;" horiz-adv-x="530" 
d="M454 0h-100v46c-37 -37 -72 -52 -135 -52s-105 15 -136 46c-26 27 -40 66 -40 109c0 85 59 146 176 146h133v36c0 65 -31 95 -111 95c-54 0 -82 -14 -111 -50l-66 63c47 56 96 74 181 74c140 0 209 -60 209 -174v-339zM352 183v41h-117c-62 0 -93 -26 -93 -73
s29 -72 96 -72c36 0 65 4 92 29c16 15 22 39 22 75zM429 599h-85l-87 97l-87 -97h-85l129 161h86z" />
    <glyph glyph-name="atilde" unicode="&#xe3;" horiz-adv-x="530" 
d="M454 0h-100v46c-37 -37 -72 -52 -135 -52s-105 15 -136 46c-26 27 -40 66 -40 109c0 85 59 146 176 146h133v36c0 65 -31 95 -111 95c-54 0 -82 -14 -111 -50l-66 63c47 56 96 74 181 74c140 0 209 -60 209 -174v-339zM352 183v41h-117c-62 0 -93 -26 -93 -73
s29 -72 96 -72c36 0 65 4 92 29c16 15 22 39 22 75zM425 664c-45 -45 -73 -55 -104 -55c-29 0 -49 8 -75 23c-19 11 -36 19 -56 19c-17 0 -30 -2 -58 -30l-48 47c45 45 72 55 104 55c29 0 48 -8 75 -24c20 -12 35 -19 55 -19c16 0 32 4 59 31z" />
    <glyph glyph-name="adieresis" unicode="&#xe4;" horiz-adv-x="530" 
d="M454 0h-100v46c-37 -37 -72 -52 -135 -52s-105 15 -136 46c-26 27 -40 66 -40 109c0 85 59 146 176 146h133v36c0 65 -31 95 -111 95c-54 0 -82 -14 -111 -50l-66 63c47 56 96 74 181 74c140 0 209 -60 209 -174v-339zM352 183v41h-117c-62 0 -93 -26 -93 -73
s29 -72 96 -72c36 0 65 4 92 29c16 15 22 39 22 75zM411 604h-92v108h92v-108zM195 604h-92v108h92v-108z" />
    <glyph glyph-name="aring" unicode="&#xe5;" horiz-adv-x="530" 
d="M454 0h-100v46c-37 -37 -72 -52 -135 -52s-105 15 -136 46c-26 27 -40 66 -40 109c0 85 59 146 176 146h133v36c0 65 -31 95 -111 95c-54 0 -82 -14 -111 -50l-66 63c47 56 96 74 181 74c140 0 209 -60 209 -174v-339zM352 183v41h-117c-62 0 -93 -26 -93 -73
s29 -72 96 -72c36 0 65 4 92 29c16 15 22 39 22 75zM382 701c0 -69 -56 -125 -125 -125s-125 56 -125 125s56 125 125 125s125 -56 125 -125zM321 701c0 35 -29 63 -64 63s-64 -28 -64 -63s29 -63 64 -63s64 28 64 63z" />
    <glyph glyph-name="ae" unicode="&#xe6;" horiz-adv-x="837" 
d="M782 224h-329c0 -88 45 -142 129 -142c57 0 88 16 123 52l65 -61c-51 -52 -101 -79 -190 -79c-74 0 -138 23 -179 79c-52 -63 -103 -79 -182 -79c-63 0 -105 15 -136 46c-26 27 -40 66 -40 109c0 85 59 146 176 146h133v36c0 65 -31 95 -111 95c-54 0 -82 -14 -111 -50
l-66 63c47 56 96 74 181 74c83 0 140 -22 172 -67c35 45 87 67 150 67c137 0 215 -98 215 -246v-43zM682 295c-2 31 -4 47 -14 69c-17 38 -52 64 -100 64c-49 0 -84 -26 -101 -64c-10 -22 -12 -38 -13 -69h228zM352 183v41h-117c-62 0 -93 -26 -93 -73s29 -72 96 -72
c36 0 65 4 92 29c16 15 22 39 22 75z" />
    <glyph glyph-name="ccedilla" unicode="&#xe7;" horiz-adv-x="485" 
d="M448 66c-48 -51 -97 -72 -167 -72c-114 0 -226 70 -226 260s112 259 226 259c70 0 119 -20 167 -71l-70 -68c-32 35 -57 48 -97 48c-39 0 -72 -16 -94 -45c-22 -28 -30 -64 -30 -123s8 -96 30 -124c22 -29 55 -45 94 -45c40 0 65 13 97 48zM319 -64l-51 -147h-101l70 147
h82z" />
    <glyph glyph-name="egrave" unicode="&#xe8;" horiz-adv-x="539" 
d="M485 224h-329c0 -88 45 -142 129 -142c57 0 87 16 123 52l65 -61c-52 -52 -101 -79 -190 -79c-127 0 -228 67 -228 260c0 165 85 259 215 259c136 0 215 -98 215 -246v-43zM384 295c-2 31 -4 47 -14 69c-17 38 -52 64 -100 64c-49 0 -84 -26 -101 -64
c-10 -22 -12 -38 -13 -69h228zM325 599h-77l-111 162h113z" />
    <glyph glyph-name="eacute" unicode="&#xe9;" horiz-adv-x="539" 
d="M485 224h-329c0 -88 45 -142 129 -142c57 0 87 16 123 52l65 -61c-52 -52 -101 -79 -190 -79c-127 0 -228 67 -228 260c0 165 85 259 215 259c136 0 215 -98 215 -246v-43zM384 295c-2 31 -4 47 -14 69c-17 38 -52 64 -100 64c-49 0 -84 -26 -101 -64
c-10 -22 -12 -38 -13 -69h228zM409 761l-111 -162h-77l75 162h113z" />
    <glyph glyph-name="ecircumflex" unicode="&#xea;" horiz-adv-x="539" 
d="M485 224h-329c0 -88 45 -142 129 -142c57 0 87 16 123 52l65 -61c-52 -52 -101 -79 -190 -79c-127 0 -228 67 -228 260c0 165 85 259 215 259c136 0 215 -98 215 -246v-43zM384 295c-2 31 -4 47 -14 69c-17 38 -52 64 -100 64c-49 0 -84 -26 -101 -64
c-10 -22 -12 -38 -13 -69h228zM444 599h-85l-87 97l-87 -97h-85l129 161h86z" />
    <glyph glyph-name="edieresis" unicode="&#xeb;" horiz-adv-x="539" 
d="M485 224h-329c0 -88 45 -142 129 -142c57 0 87 16 123 52l65 -61c-52 -52 -101 -79 -190 -79c-127 0 -228 67 -228 260c0 165 85 259 215 259c136 0 215 -98 215 -246v-43zM384 295c-2 31 -4 47 -14 69c-17 38 -52 64 -100 64c-49 0 -84 -26 -101 -64
c-10 -22 -12 -38 -13 -69h228zM426 604h-92v108h92v-108zM210 604h-92v108h92v-108z" />
    <glyph glyph-name="igrave" unicode="&#xec;" horiz-adv-x="264" 
d="M183 0h-102v507h102v-507zM175 599h-77l-111 162h113z" />
    <glyph glyph-name="iacute" unicode="&#xed;" horiz-adv-x="264" 
d="M183 0h-102v507h102v-507zM277 761l-111 -162h-77l75 162h113z" />
    <glyph glyph-name="icircumflex" unicode="&#xee;" horiz-adv-x="264" 
d="M183 0h-102v507h102v-507zM307 599h-85l-87 97l-87 -97h-85l129 161h86z" />
    <glyph glyph-name="idieresis" unicode="&#xef;" horiz-adv-x="264" 
d="M183 0h-102v507h102v-507zM287 604h-92v108h92v-108zM71 604h-92v108h92v-108z" />
    <glyph glyph-name="eth" unicode="&#xf0;" horiz-adv-x="537" 
d="M476 249c0 -84 -11 -147 -59 -196c-32 -34 -82 -59 -149 -59s-116 25 -148 59c-48 49 -59 112 -59 196s11 147 59 196c25 26 61 44 104 51c11 2 22 3 34 3c14 0 29 -2 42 -5l-45 81h-116v72h78l-39 70h108l39 -70h87v-72h-50l51 -94c51 -94 63 -139 63 -232zM374 249
c0 53 -3 104 -33 135c-18 18 -44 29 -73 29s-54 -11 -72 -29c-30 -31 -33 -82 -33 -135s3 -104 33 -135c18 -18 43 -29 72 -29s55 11 73 29c30 31 33 82 33 135z" />
    <glyph glyph-name="ntilde" unicode="&#xf1;" horiz-adv-x="568" 
d="M492 0h-102v309c0 79 -45 113 -102 113s-105 -35 -105 -113v-309h-102v507h100v-51c35 38 84 57 135 57c52 0 95 -17 125 -46c39 -38 51 -86 51 -143v-324zM455 664c-45 -45 -73 -55 -104 -55c-29 0 -49 8 -75 23c-19 11 -36 19 -56 19c-17 0 -30 -2 -58 -30l-48 47
c45 45 72 55 104 55c29 0 48 -8 75 -24c20 -12 35 -19 55 -19c16 0 32 4 59 31z" />
    <glyph glyph-name="ograve" unicode="&#xf2;" horiz-adv-x="537" 
d="M480 254c0 -86 -12 -150 -60 -200c-33 -34 -83 -60 -152 -60s-118 26 -151 60c-48 50 -60 114 -60 200c0 85 12 149 60 199c33 34 82 60 151 60s119 -26 152 -60c48 -50 60 -114 60 -199zM378 254c0 55 -4 108 -35 139c-19 19 -45 29 -75 29s-55 -10 -74 -29
c-31 -31 -35 -84 -35 -139s4 -108 35 -139c19 -19 44 -30 74 -30s56 11 75 30c31 31 35 84 35 139zM313 599h-77l-111 162h113z" />
    <glyph glyph-name="oacute" unicode="&#xf3;" horiz-adv-x="537" 
d="M480 254c0 -86 -12 -150 -60 -200c-33 -34 -83 -60 -152 -60s-118 26 -151 60c-48 50 -60 114 -60 200c0 85 12 149 60 199c33 34 82 60 151 60s119 -26 152 -60c48 -50 60 -114 60 -199zM378 254c0 55 -4 108 -35 139c-19 19 -45 29 -75 29s-55 -10 -74 -29
c-31 -31 -35 -84 -35 -139s4 -108 35 -139c19 -19 44 -30 74 -30s56 11 75 30c31 31 35 84 35 139zM404 761l-111 -162h-77l75 162h113z" />
    <glyph glyph-name="ocircumflex" unicode="&#xf4;" horiz-adv-x="537" 
d="M480 254c0 -86 -12 -150 -60 -200c-33 -34 -83 -60 -152 -60s-118 26 -151 60c-48 50 -60 114 -60 200c0 85 12 149 60 199c33 34 82 60 151 60s119 -26 152 -60c48 -50 60 -114 60 -199zM378 254c0 55 -4 108 -35 139c-19 19 -45 29 -75 29s-55 -10 -74 -29
c-31 -31 -35 -84 -35 -139s4 -108 35 -139c19 -19 44 -30 74 -30s56 11 75 30c31 31 35 84 35 139zM440 599h-85l-87 97l-87 -97h-85l129 161h86z" />
    <glyph glyph-name="otilde" unicode="&#xf5;" horiz-adv-x="537" 
d="M480 254c0 -86 -12 -150 -60 -200c-33 -34 -83 -60 -152 -60s-118 26 -151 60c-48 50 -60 114 -60 200c0 85 12 149 60 199c33 34 82 60 151 60s119 -26 152 -60c48 -50 60 -114 60 -199zM378 254c0 55 -4 108 -35 139c-19 19 -45 29 -75 29s-55 -10 -74 -29
c-31 -31 -35 -84 -35 -139s4 -108 35 -139c19 -19 44 -30 74 -30s56 11 75 30c31 31 35 84 35 139zM436 664c-45 -45 -73 -55 -104 -55c-29 0 -49 8 -75 23c-19 11 -36 19 -56 19c-17 0 -30 -2 -58 -30l-48 47c45 45 72 55 104 55c29 0 48 -8 75 -24c20 -12 35 -19 55 -19
c16 0 32 4 59 31z" />
    <glyph glyph-name="odieresis" unicode="&#xf6;" horiz-adv-x="537" 
d="M480 254c0 -86 -12 -150 -60 -200c-33 -34 -83 -60 -152 -60s-118 26 -151 60c-48 50 -60 114 -60 200c0 85 12 149 60 199c33 34 82 60 151 60s119 -26 152 -60c48 -50 60 -114 60 -199zM378 254c0 55 -4 108 -35 139c-19 19 -45 29 -75 29s-55 -10 -74 -29
c-31 -31 -35 -84 -35 -139s4 -108 35 -139c19 -19 44 -30 74 -30s56 11 75 30c31 31 35 84 35 139zM422 604h-92v108h92v-108zM206 604h-92v108h92v-108z" />
    <glyph glyph-name="divide" unicode="&#xf7;" horiz-adv-x="533" 
d="M484 230h-436v95h436v-95zM321 33h-109v109h109v-109zM321 414h-109v109h109v-109z" />
    <glyph glyph-name="oslash" unicode="&#xf8;" horiz-adv-x="537" 
d="M480 254c0 -86 -12 -150 -60 -200c-33 -34 -83 -60 -152 -60c-42 0 -76 10 -104 25l-37 -63h-69l58 99c-48 50 -59 114 -59 199s12 149 60 199c33 34 82 60 151 60c42 0 77 -10 105 -25l37 63h69l-59 -98c48 -50 60 -114 60 -199zM378 254c0 40 -2 79 -15 109l-154 -260
c16 -11 36 -18 59 -18c30 0 56 11 75 30c31 31 35 84 35 139zM328 405c-17 11 -37 17 -60 17c-30 0 -55 -10 -74 -29c-31 -31 -35 -84 -35 -139c0 -40 2 -79 15 -109z" />
    <glyph glyph-name="ugrave" unicode="&#xf9;" horiz-adv-x="568" 
d="M487 0h-100v51c-35 -38 -84 -57 -135 -57c-52 0 -95 17 -125 46c-39 38 -51 86 -51 143v324h102v-309c0 -79 45 -113 102 -113s105 35 105 113v309h102v-507zM333 599h-77l-111 162h113z" />
    <glyph glyph-name="uacute" unicode="&#xfa;" horiz-adv-x="568" 
d="M487 0h-100v51c-35 -38 -84 -57 -135 -57c-52 0 -95 17 -125 46c-39 38 -51 86 -51 143v324h102v-309c0 -79 45 -113 102 -113s105 35 105 113v309h102v-507zM417 761l-111 -162h-77l75 162h113z" />
    <glyph glyph-name="ucircumflex" unicode="&#xfb;" horiz-adv-x="568" 
d="M487 0h-100v51c-35 -38 -84 -57 -135 -57c-52 0 -95 17 -125 46c-39 38 -51 86 -51 143v324h102v-309c0 -79 45 -113 102 -113s105 35 105 113v309h102v-507zM453 599h-85l-87 97l-87 -97h-85l129 161h86z" />
    <glyph glyph-name="udieresis" unicode="&#xfc;" horiz-adv-x="568" 
d="M487 0h-100v51c-35 -38 -84 -57 -135 -57c-52 0 -95 17 -125 46c-39 38 -51 86 -51 143v324h102v-309c0 -79 45 -113 102 -113s105 35 105 113v309h102v-507zM434 604h-92v108h92v-108zM218 604h-92v108h92v-108z" />
    <glyph glyph-name="yacute" unicode="&#xfd;" horiz-adv-x="468" 
d="M464 507l-224 -608c-10 -28 -22 -48 -37 -63c-28 -28 -65 -37 -104 -37h-41v92h26c43 0 58 13 73 54l28 79l-177 483h108l121 -357l118 357h109zM372 761l-111 -162h-77l75 162h113z" />
    <glyph glyph-name="thorn" unicode="&#xfe;" horiz-adv-x="554" 
d="M496 254c0 -83 -8 -165 -57 -215c-28 -28 -72 -45 -123 -45c-54 0 -96 13 -133 58v-257h-102v917h102v-256c37 44 79 57 133 57c51 0 95 -17 123 -45c49 -50 57 -131 57 -214zM394 254c0 90 -13 168 -105 168c-93 0 -106 -78 -106 -168s13 -169 106 -169
c92 0 105 79 105 169z" />
    <glyph glyph-name="ydieresis" unicode="&#xff;" horiz-adv-x="468" 
d="M464 507l-224 -608c-10 -28 -22 -48 -37 -63c-28 -28 -65 -37 -104 -37h-41v92h26c43 0 58 13 73 54l28 79l-177 483h108l121 -357l118 357h109zM390 604h-92v108h92v-108zM174 604h-92v108h92v-108z" />
    <glyph glyph-name="Amacron" unicode="&#x100;" horiz-adv-x="625" 
d="M617 0h-115l-49 143h-281l-49 -143h-115l261 712h87zM423 235l-108 316l-111 -316h219zM157 795v73h309v-73h-309z" />
    <glyph glyph-name="amacron" unicode="&#x101;" horiz-adv-x="530" 
d="M454 0h-100v46c-37 -37 -72 -52 -135 -52s-105 15 -136 46c-26 27 -40 66 -40 109c0 85 59 146 176 146h133v36c0 65 -31 95 -111 95c-54 0 -82 -14 -111 -50l-66 63c47 56 96 74 181 74c140 0 209 -60 209 -174v-339zM352 183v41h-117c-62 0 -93 -26 -93 -73
s29 -72 96 -72c36 0 65 4 92 29c16 15 22 39 22 75zM109 618v73h309v-73h-309z" />
    <glyph glyph-name="Abreve" unicode="&#x102;" horiz-adv-x="625" 
d="M617 0h-115l-49 143h-281l-49 -143h-115l261 712h87zM423 235l-108 316l-111 -316h219zM480 937c-6 -100 -71 -145 -165 -145s-159 45 -165 145h72c6 -47 44 -71 93 -71s87 24 93 71h72z" />
    <glyph glyph-name="abreve" unicode="&#x103;" horiz-adv-x="530" 
d="M454 0h-100v46c-37 -37 -72 -52 -135 -52s-105 15 -136 46c-26 27 -40 66 -40 109c0 85 59 146 176 146h133v36c0 65 -31 95 -111 95c-54 0 -82 -14 -111 -50l-66 63c47 56 96 74 181 74c140 0 209 -60 209 -174v-339zM352 183v41h-117c-62 0 -93 -26 -93 -73
s29 -72 96 -72c36 0 65 4 92 29c16 15 22 39 22 75zM411 738c-6 -100 -70 -145 -164 -145c-95 0 -159 45 -165 145h72c6 -47 43 -70 93 -70c38 0 86 20 92 70h72z" />
    <glyph glyph-name="Aogonek" unicode="&#x104;" horiz-adv-x="625" 
d="M617 0h-115l-49 143h-281l-49 -143h-115l261 712h87zM423 235l-108 316l-111 -316h219zM575 -64l-51 -147h-101l70 147h82z" />
    <glyph glyph-name="aogonek" unicode="&#x105;" horiz-adv-x="530" 
d="M454 0h-100v46c-37 -37 -72 -52 -135 -52s-105 15 -136 46c-26 27 -40 66 -40 109c0 85 59 146 176 146h133v36c0 65 -31 95 -111 95c-54 0 -82 -14 -111 -50l-66 63c47 56 96 74 181 74c140 0 209 -60 209 -174v-339zM352 183v41h-117c-62 0 -93 -26 -93 -73
s29 -72 96 -72c36 0 65 4 92 29c16 15 22 39 22 75zM436 -64l-51 -147h-101l70 147h82z" />
    <glyph glyph-name="Cacute" unicode="&#x106;" horiz-adv-x="628" 
d="M577 213c-25 -141 -124 -219 -254 -219c-78 0 -138 26 -184 72c-69 70 -72 141 -72 290s3 220 72 290c46 46 106 72 184 72c131 0 229 -78 254 -219h-110c-16 73 -65 123 -144 123c-43 0 -79 -16 -105 -44c-36 -38 -43 -81 -43 -222s7 -184 43 -222
c26 -28 62 -44 105 -44c79 0 129 50 146 123h108zM450 943l-111 -162h-77l75 162h113z" />
    <glyph glyph-name="cacute" unicode="&#x107;" horiz-adv-x="485" 
d="M448 66c-48 -51 -97 -72 -167 -72c-114 0 -226 70 -226 260s112 259 226 259c70 0 119 -20 167 -71l-70 -68c-32 35 -57 48 -97 48c-39 0 -72 -16 -94 -45c-22 -28 -30 -64 -30 -123s8 -96 30 -124c22 -29 55 -45 94 -45c40 0 65 13 97 48zM401 761l-111 -162h-77l75 162
h113z" />
    <glyph glyph-name="Ccircumflex" unicode="&#x108;" horiz-adv-x="628" 
d="M577 213c-25 -141 -124 -219 -254 -219c-78 0 -138 26 -184 72c-69 70 -72 141 -72 290s3 220 72 290c46 46 106 72 184 72c131 0 229 -78 254 -219h-110c-16 73 -65 123 -144 123c-43 0 -79 -16 -105 -44c-36 -38 -43 -81 -43 -222s7 -184 43 -222
c26 -28 62 -44 105 -44c79 0 129 50 146 123h108zM495 781h-85l-87 97l-87 -97h-85l129 161h86z" />
    <glyph glyph-name="ccircumflex" unicode="&#x109;" horiz-adv-x="485" 
d="M448 66c-48 -51 -97 -72 -167 -72c-114 0 -226 70 -226 260s112 259 226 259c70 0 119 -20 167 -71l-70 -68c-32 35 -57 48 -97 48c-39 0 -72 -16 -94 -45c-22 -28 -30 -64 -30 -123s8 -96 30 -124c22 -29 55 -45 94 -45c40 0 65 13 97 48zM452 599h-85l-87 97l-87 -97
h-85l129 161h86z" />
    <glyph glyph-name="Cdotaccent" unicode="&#x10a;" horiz-adv-x="628" 
d="M577 213c-25 -141 -124 -219 -254 -219c-78 0 -138 26 -184 72c-69 70 -72 141 -72 290s3 220 72 290c46 46 106 72 184 72c131 0 229 -78 254 -219h-110c-16 73 -65 123 -144 123c-43 0 -79 -16 -105 -44c-36 -38 -43 -81 -43 -222s7 -184 43 -222
c26 -28 62 -44 105 -44c79 0 129 50 146 123h108zM272 793v97h97v-97h-97z" />
    <glyph glyph-name="cdotaccent" unicode="&#x10b;" horiz-adv-x="485" 
d="M448 66c-48 -51 -97 -72 -167 -72c-114 0 -226 70 -226 260s112 259 226 259c70 0 119 -20 167 -71l-70 -68c-32 35 -57 48 -97 48c-39 0 -72 -16 -94 -45c-22 -28 -30 -64 -30 -123s8 -96 30 -124c22 -29 55 -45 94 -45c40 0 65 13 97 48zM231 611v97h97v-97h-97z" />
    <glyph glyph-name="Ccaron" unicode="&#x10c;" horiz-adv-x="628" 
d="M577 213c-25 -141 -124 -219 -254 -219c-78 0 -138 26 -184 72c-69 70 -72 141 -72 290s3 220 72 290c46 46 106 72 184 72c131 0 229 -78 254 -219h-110c-16 73 -65 123 -144 123c-43 0 -79 -16 -105 -44c-36 -38 -43 -81 -43 -222s7 -184 43 -222
c26 -28 62 -44 105 -44c79 0 129 50 146 123h108zM486 942l-129 -161h-86l-129 161h85l87 -97l87 97h85z" />
    <glyph glyph-name="ccaron" unicode="&#x10d;" horiz-adv-x="485" 
d="M448 66c-48 -51 -97 -72 -167 -72c-114 0 -226 70 -226 260s112 259 226 259c70 0 119 -20 167 -71l-70 -68c-32 35 -57 48 -97 48c-39 0 -72 -16 -94 -45c-22 -28 -30 -64 -30 -123s8 -96 30 -124c22 -29 55 -45 94 -45c40 0 65 13 97 48zM453 760l-129 -161h-86
l-129 161h85l87 -97l87 97h85z" />
    <glyph glyph-name="Dcaron" unicode="&#x10e;" horiz-adv-x="666" 
d="M599 356c0 -114 -2 -202 -54 -266c-50 -62 -113 -90 -202 -90h-250v712h250c89 0 152 -28 202 -90c52 -64 54 -152 54 -266zM491 356c0 106 -3 172 -38 211c-30 35 -71 49 -122 49h-130v-520h130c51 0 92 14 122 49c35 39 38 105 38 211zM505 942l-129 -161h-86l-129 161
h85l87 -97l87 97h85z" />
    <glyph glyph-name="dcaron" unicode="&#x10f;" horiz-adv-x="553" 
d="M472 0h-100v54c-38 -46 -79 -60 -134 -60c-51 0 -96 17 -124 45c-49 50 -57 131 -57 215c0 83 8 164 57 214c28 28 72 45 123 45c54 0 96 -13 133 -57v256h102v-712zM370 254c0 90 -13 168 -105 168c-93 0 -106 -78 -106 -168s13 -169 106 -169c92 0 105 79 105 169z
M663 730l-56 -159h-75l37 159h94z" />
    <glyph glyph-name="Dcroat" unicode="&#x110;" horiz-adv-x="684" 
d="M618 356c0 -114 -2 -202 -54 -266c-50 -62 -113 -90 -202 -90h-250v318h-74v83h74v311h250c89 0 152 -28 202 -90c52 -64 54 -152 54 -266zM510 356c0 106 -3 172 -38 211c-30 35 -71 49 -122 49h-130v-215h138v-83h-138v-222h130c51 0 92 14 122 49c35 39 38 105 38 211
z" />
    <glyph glyph-name="dcroat" unicode="&#x111;" horiz-adv-x="571" 
d="M472 0h-100v54c-38 -46 -79 -60 -134 -60c-51 0 -96 17 -124 45c-49 50 -57 131 -57 215c0 83 8 164 57 214c28 28 72 45 123 45c54 0 96 -13 133 -57v113h-69v73h69v70h102v-70h59v-73h-59v-569zM370 254c0 90 -13 168 -105 168c-93 0 -106 -78 -106 -168
s13 -169 106 -169c92 0 105 79 105 169z" />
    <glyph glyph-name="Emacron" unicode="&#x112;" horiz-adv-x="603" 
d="M548 0h-455v712h455v-97h-347v-208h296v-96h-296v-214h347v-97zM154 795v73h309v-73h-309z" />
    <glyph glyph-name="emacron" unicode="&#x113;" horiz-adv-x="539" 
d="M485 224h-329c0 -88 45 -142 129 -142c57 0 87 16 123 52l65 -61c-52 -52 -101 -79 -190 -79c-127 0 -228 67 -228 260c0 165 85 259 215 259c136 0 215 -98 215 -246v-43zM384 295c-2 31 -4 47 -14 69c-17 38 -52 64 -100 64c-49 0 -84 -26 -101 -64
c-10 -22 -12 -38 -13 -69h228zM114 618v73h309v-73h-309z" />
    <glyph glyph-name="Ebreve" unicode="&#x114;" horiz-adv-x="603" 
d="M548 0h-455v712h455v-97h-347v-208h296v-96h-296v-214h347v-97zM475 937c-6 -100 -71 -145 -165 -145s-159 45 -165 145h72c6 -47 44 -71 93 -71s87 24 93 71h72z" />
    <glyph glyph-name="ebreve" unicode="&#x115;" horiz-adv-x="539" 
d="M485 224h-329c0 -88 45 -142 129 -142c57 0 87 16 123 52l65 -61c-52 -52 -101 -79 -190 -79c-127 0 -228 67 -228 260c0 165 85 259 215 259c136 0 215 -98 215 -246v-43zM384 295c-2 31 -4 47 -14 69c-17 38 -52 64 -100 64c-49 0 -84 -26 -101 -64
c-10 -22 -12 -38 -13 -69h228zM437 738c-6 -100 -70 -145 -164 -145c-95 0 -159 45 -165 145h72c6 -47 43 -70 93 -70c38 0 86 20 92 70h72z" />
    <glyph glyph-name="Edotaccent" unicode="&#x116;" horiz-adv-x="603" 
d="M548 0h-455v712h455v-97h-347v-208h296v-96h-296v-214h347v-97zM260 793v97h97v-97h-97z" />
    <glyph glyph-name="edotaccent" unicode="&#x117;" horiz-adv-x="539" 
d="M485 224h-329c0 -88 45 -142 129 -142c57 0 87 16 123 52l65 -61c-52 -52 -101 -79 -190 -79c-127 0 -228 67 -228 260c0 165 85 259 215 259c136 0 215 -98 215 -246v-43zM384 295c-2 31 -4 47 -14 69c-17 38 -52 64 -100 64c-49 0 -84 -26 -101 -64
c-10 -22 -12 -38 -13 -69h228zM220 611v97h97v-97h-97z" />
    <glyph glyph-name="Eogonek" unicode="&#x118;" horiz-adv-x="603" 
d="M548 0h-455v712h455v-97h-347v-208h296v-96h-296v-214h347v-97zM548 -64l-51 -147h-101l70 147h82z" />
    <glyph glyph-name="eogonek" unicode="&#x119;" horiz-adv-x="539" 
d="M485 224h-329c0 -88 45 -142 129 -142c57 0 87 16 123 52l65 -61c-52 -52 -101 -79 -190 -79c-127 0 -228 67 -228 260c0 165 85 259 215 259c136 0 215 -98 215 -246v-43zM384 295c-2 31 -4 47 -14 69c-17 38 -52 64 -100 64c-49 0 -84 -26 -101 -64
c-10 -22 -12 -38 -13 -69h228zM389 -64l-51 -147h-101l70 147h82z" />
    <glyph glyph-name="Ecaron" unicode="&#x11a;" horiz-adv-x="603" 
d="M548 0h-455v712h455v-97h-347v-208h296v-96h-296v-214h347v-97zM481 942l-129 -161h-86l-129 161h85l87 -97l87 97h85z" />
    <glyph glyph-name="ecaron" unicode="&#x11b;" horiz-adv-x="539" 
d="M485 224h-329c0 -88 45 -142 129 -142c57 0 87 16 123 52l65 -61c-52 -52 -101 -79 -190 -79c-127 0 -228 67 -228 260c0 165 85 259 215 259c136 0 215 -98 215 -246v-43zM384 295c-2 31 -4 47 -14 69c-17 38 -52 64 -100 64c-49 0 -84 -26 -101 -64
c-10 -22 -12 -38 -13 -69h228zM441 760l-129 -161h-86l-129 161h85l87 -97l87 97h85z" />
    <glyph glyph-name="Gcircumflex" unicode="&#x11c;" horiz-adv-x="649" 
d="M583 276c0 -93 -17 -150 -64 -201c-53 -56 -121 -81 -196 -81c-78 0 -138 26 -184 72c-69 70 -72 141 -72 290s3 220 72 290c46 46 106 72 184 72c150 0 239 -99 258 -220h-108c-18 78 -70 124 -150 124c-43 0 -79 -16 -106 -44c-35 -38 -42 -81 -42 -222s7 -184 42 -222
c27 -28 63 -44 106 -44c47 0 89 18 117 51c26 30 35 66 35 112v40h-152v92h260v-109zM495 781h-85l-87 97l-87 -97h-85l129 161h86z" />
    <glyph glyph-name="gcircumflex" unicode="&#x11d;" horiz-adv-x="549" 
d="M468 3c0 -124 -82 -214 -217 -214c-77 0 -126 18 -179 67l65 65c32 -30 60 -45 110 -45c86 0 119 61 119 129v65c-37 -44 -79 -58 -131 -58c-51 0 -93 17 -121 45c-49 49 -57 120 -57 206s8 157 57 206c28 28 71 44 122 44c54 0 95 -14 133 -60v54h99v-504zM366 263
c0 80 -11 159 -103 159s-104 -79 -104 -159s12 -159 104 -159s103 79 103 159zM435 599h-85l-87 97l-87 -97h-85l129 161h86z" />
    <glyph glyph-name="Gbreve" unicode="&#x11e;" horiz-adv-x="649" 
d="M583 276c0 -93 -17 -150 -64 -201c-53 -56 -121 -81 -196 -81c-78 0 -138 26 -184 72c-69 70 -72 141 -72 290s3 220 72 290c46 46 106 72 184 72c150 0 239 -99 258 -220h-108c-18 78 -70 124 -150 124c-43 0 -79 -16 -106 -44c-35 -38 -42 -81 -42 -222s7 -184 42 -222
c27 -28 63 -44 106 -44c47 0 89 18 117 51c26 30 35 66 35 112v40h-152v92h260v-109zM488 937c-6 -100 -71 -145 -165 -145s-159 45 -165 145h72c6 -47 44 -71 93 -71s87 24 93 71h72z" />
    <glyph glyph-name="gbreve" unicode="&#x11f;" horiz-adv-x="549" 
d="M468 3c0 -124 -82 -214 -217 -214c-77 0 -126 18 -179 67l65 65c32 -30 60 -45 110 -45c86 0 119 61 119 129v65c-37 -44 -79 -58 -131 -58c-51 0 -93 17 -121 45c-49 49 -57 120 -57 206s8 157 57 206c28 28 71 44 122 44c54 0 95 -14 133 -60v54h99v-504zM366 263
c0 80 -11 159 -103 159s-104 -79 -104 -159s12 -159 104 -159s103 79 103 159zM427 738c-6 -100 -70 -145 -164 -145c-95 0 -159 45 -165 145h72c6 -47 43 -70 93 -70c38 0 86 20 92 70h72z" />
    <glyph glyph-name="Gdotaccent" unicode="&#x120;" horiz-adv-x="649" 
d="M583 276c0 -93 -17 -150 -64 -201c-53 -56 -121 -81 -196 -81c-78 0 -138 26 -184 72c-69 70 -72 141 -72 290s3 220 72 290c46 46 106 72 184 72c150 0 239 -99 258 -220h-108c-18 78 -70 124 -150 124c-43 0 -79 -16 -106 -44c-35 -38 -42 -81 -42 -222s7 -184 42 -222
c27 -28 63 -44 106 -44c47 0 89 18 117 51c26 30 35 66 35 112v40h-152v92h260v-109zM273 793v97h97v-97h-97z" />
    <glyph glyph-name="gdotaccent" unicode="&#x121;" horiz-adv-x="549" 
d="M468 3c0 -124 -82 -214 -217 -214c-77 0 -126 18 -179 67l65 65c32 -30 60 -45 110 -45c86 0 119 61 119 129v65c-37 -44 -79 -58 -131 -58c-51 0 -93 17 -121 45c-49 49 -57 120 -57 206s8 157 57 206c28 28 71 44 122 44c54 0 95 -14 133 -60v54h99v-504zM366 263
c0 80 -11 159 -103 159s-104 -79 -104 -159s12 -159 104 -159s103 79 103 159zM213 611v97h97v-97h-97z" />
    <glyph glyph-name="Gcommaaccent" unicode="&#x122;" horiz-adv-x="649" 
d="M583 276c0 -93 -17 -150 -64 -201c-53 -56 -121 -81 -196 -81c-78 0 -138 26 -184 72c-69 70 -72 141 -72 290s3 220 72 290c46 46 106 72 184 72c150 0 239 -99 258 -220h-108c-18 78 -70 124 -150 124c-43 0 -79 -16 -106 -44c-35 -38 -42 -81 -42 -222s7 -184 42 -222
c27 -28 63 -44 106 -44c47 0 89 18 117 51c26 30 35 66 35 112v40h-152v92h260v-109zM393 -64l-51 -147h-101l70 147h82z" />
    <glyph glyph-name="gcommaaccent" unicode="&#x123;" horiz-adv-x="549" 
d="M468 3c0 -124 -82 -214 -217 -214c-77 0 -126 18 -179 67l65 65c32 -30 60 -45 110 -45c86 0 119 61 119 129v65c-37 -44 -79 -58 -131 -58c-51 0 -93 17 -121 45c-49 49 -57 120 -57 206s8 157 57 206c28 28 71 44 122 44c54 0 95 -14 133 -60v54h99v-504zM366 263
c0 80 -11 159 -103 159s-104 -79 -104 -159s12 -159 104 -159s103 79 103 159zM409 761l-111 -162h-77l75 162h113z" />
    <glyph glyph-name="Hcircumflex" unicode="&#x124;" horiz-adv-x="691" 
d="M598 0h-108v311h-289v-311h-108v712h108v-304h289v304h108v-712zM517 781h-85l-87 97l-87 -97h-85l129 161h86z" />
    <glyph glyph-name="hcircumflex" unicode="&#x125;" horiz-adv-x="568" 
d="M492 0h-102v309c0 79 -45 113 -102 113s-105 -35 -105 -113v-309h-102v712h102v-256c34 38 81 57 133 57s95 -17 125 -46c39 -38 51 -86 51 -143v-324zM305 780h-85l-87 97l-87 -97h-85l129 161h86z" />
    <glyph glyph-name="Hbar" unicode="&#x126;" horiz-adv-x="723" 
d="M685 511h-71v-511h-108v311h-289v-311h-108v511h-71v84h71v117h108v-117h289v117h108v-117h71v-84zM506 408v103h-289v-103h289z" />
    <glyph glyph-name="hbar" unicode="&#x127;" horiz-adv-x="582" 
d="M506 0h-102v309c0 79 -45 113 -102 113s-105 -35 -105 -113v-309h-102v569h-55v66h55v77h102v-77h103v-66h-103v-113c34 38 81 57 133 57s95 -17 125 -46c39 -38 51 -86 51 -143v-324z" />
    <glyph glyph-name="Itilde" unicode="&#x128;" horiz-adv-x="294" 
d="M201 0h-108v712h108v-712zM318 846c-45 -45 -73 -55 -104 -55c-29 0 -49 8 -75 23c-19 11 -36 19 -56 19c-17 0 -30 -2 -58 -30l-48 47c45 45 72 55 104 55c29 0 48 -8 75 -24c20 -12 35 -19 55 -19c16 0 32 4 59 31z" />
    <glyph glyph-name="itilde" unicode="&#x129;" horiz-adv-x="264" 
d="M183 0h-102v507h102v-507zM304 664c-45 -45 -73 -55 -104 -55c-29 0 -49 8 -75 23c-19 11 -36 19 -56 19c-17 0 -30 -2 -58 -30l-48 47c45 45 72 55 104 55c29 0 48 -8 75 -24c20 -12 35 -19 55 -19c16 0 32 4 59 31z" />
    <glyph glyph-name="Imacron" unicode="&#x12a;" horiz-adv-x="294" 
d="M201 0h-108v712h108v-712zM-7 795v73h309v-73h-309z" />
    <glyph glyph-name="imacron" unicode="&#x12b;" horiz-adv-x="264" 
d="M183 0h-102v507h102v-507zM-22 618v73h309v-73h-309z" />
    <glyph glyph-name="Ibreve" unicode="&#x12c;" horiz-adv-x="294" 
d="M201 0h-108v712h108v-712zM313 937c-6 -100 -71 -145 -165 -145s-159 45 -165 145h72c6 -47 44 -71 93 -71s87 24 93 71h72z" />
    <glyph glyph-name="ibreve" unicode="&#x12d;" horiz-adv-x="264" 
d="M183 0h-102v507h102v-507zM298 738c-6 -100 -70 -145 -164 -145c-95 0 -159 45 -165 145h72c6 -47 43 -70 93 -70c38 0 86 20 92 70h72z" />
    <glyph glyph-name="Iogonek" unicode="&#x12e;" horiz-adv-x="294" 
d="M201 0h-108v712h108v-712zM175 -64l-51 -147h-101l70 147h82z" />
    <glyph glyph-name="iogonek" unicode="&#x12f;" horiz-adv-x="264" 
d="M183 0h-102v507h102v-507zM186 607h-108v108h108v-108zM163 -64l-51 -147h-101l70 147h82z" />
    <glyph glyph-name="Idotaccent" unicode="&#x130;" horiz-adv-x="294" 
d="M201 0h-108v712h108v-712zM100 793v97h97v-97h-97z" />
    <glyph glyph-name="dotlessi" unicode="&#x131;" horiz-adv-x="264" 
d="M183 0h-102v507h102v-507z" />
    <glyph glyph-name="IJ" unicode="&#x132;" horiz-adv-x="800" 
d="M201 0h-108v712h108v-712zM717 225c0 -148 -106 -231 -237 -231c-73 0 -124 20 -173 69l72 71c25 -25 49 -43 101 -43c80 0 129 49 129 142v479h108v-487z" />
    <glyph glyph-name="ij" unicode="&#x133;" horiz-adv-x="528" 
d="M183 0h-102v507h102v-507zM186 607h-108v108h108v-108zM447 -67c0 -75 -42 -140 -139 -140h-63v87h45c41 0 55 20 55 59v568h102v-574zM450 607h-108v108h108v-108z" />
    <glyph glyph-name="Jcircumflex" unicode="&#x134;" horiz-adv-x="506" 
d="M423 225c0 -148 -106 -231 -237 -231c-73 0 -124 20 -173 69l72 71c25 -25 49 -43 101 -43c80 0 129 49 129 142v479h108v-487zM540 781h-85l-87 97l-87 -97h-85l129 161h86z" />
    <glyph glyph-name="jcircumflex" unicode="&#x135;" horiz-adv-x="264" 
d="M183 -67c0 -75 -42 -140 -139 -140h-63v87h45c41 0 55 20 55 59v568h102v-574zM304 599h-85l-87 97l-87 -97h-85l129 161h86z" />
    <glyph glyph-name="Kcommaaccent" unicode="&#x136;" horiz-adv-x="658" 
d="M648 0h-127l-200 351l-120 -144v-207h-108v712h108v-358l291 358h132l-231 -279zM400 -64l-51 -147h-101l70 147h82z" />
    <glyph glyph-name="kcommaaccent" unicode="&#x137;" horiz-adv-x="548" 
d="M526 0h-126l-142 234l-75 -85v-149h-102v712h102v-439l197 234h124l-176 -199zM344 -64l-51 -147h-101l70 147h82z" />
    <glyph glyph-name="kgreenlandic" unicode="&#x138;" horiz-adv-x="548" 
d="M526 0h-126l-142 234l-75 -85v-149h-102v507h102v-234l197 234h124l-176 -199z" />
    <glyph glyph-name="Lacute" unicode="&#x139;" horiz-adv-x="574" 
d="M544 0h-451v712h108v-615h343v-97zM286 943l-111 -162h-77l75 162h113z" />
    <glyph glyph-name="lacute" unicode="&#x13a;" horiz-adv-x="311" 
d="M280 0h-63c-97 0 -139 65 -139 140v572h102v-566c0 -39 14 -59 55 -59h45v-87zM274 943l-111 -162h-77l75 162h113z" />
    <glyph glyph-name="Lcommaaccent" unicode="&#x13b;" horiz-adv-x="574" 
d="M544 0h-451v712h108v-615h343v-97zM356 -64l-51 -147h-101l70 147h82z" />
    <glyph glyph-name="lcommaaccent" unicode="&#x13c;" horiz-adv-x="311" 
d="M280 0h-63c-97 0 -139 65 -139 140v572h102v-566c0 -39 14 -59 55 -59h45v-87zM226 -64l-51 -147h-101l70 147h82z" />
    <glyph glyph-name="Lcaron" unicode="&#x13d;" horiz-adv-x="574" 
d="M544 0h-451v712h108v-615h343v-97zM437 712l-56 -159h-75l37 159h94z" />
    <glyph glyph-name="lcaron" unicode="&#x13e;" horiz-adv-x="311" 
d="M280 0h-63c-97 0 -139 65 -139 140v572h102v-566c0 -39 14 -59 55 -59h45v-87zM371 730l-56 -159h-75l37 159h94z" />
    <glyph glyph-name="Ldot" unicode="&#x13f;" horiz-adv-x="574" 
d="M544 0h-451v712h108v-615h343v-97zM380 309v97h97v-97h-97z" />
    <glyph glyph-name="ldot" unicode="&#x140;" horiz-adv-x="340" 
d="M280 0h-63c-97 0 -139 65 -139 140v572h102v-566c0 -39 14 -59 55 -59h45v-87zM252 228v97h97v-97h-97z" />
    <glyph glyph-name="Lslash" unicode="&#x141;" horiz-adv-x="587" 
d="M557 0h-450v266l-69 -44v93l69 43v354h108v-286l141 89v-91l-141 -89v-238h342v-97z" />
    <glyph glyph-name="lslash" unicode="&#x142;" horiz-adv-x="326" 
d="M294 0h-63c-97 0 -139 65 -139 140v181l-59 -36v87l59 36v304h102v-242l70 43v-86l-70 -44v-237c0 -39 14 -59 55 -59h45v-87z" />
    <glyph glyph-name="Nacute" unicode="&#x143;" horiz-adv-x="722" 
d="M629 0h-99l-329 501v-501h-108v712h99l329 -500v500h108v-712zM497 943l-111 -162h-77l75 162h113z" />
    <glyph glyph-name="nacute" unicode="&#x144;" horiz-adv-x="568" 
d="M492 0h-102v309c0 79 -45 113 -102 113s-105 -35 -105 -113v-309h-102v507h100v-51c35 38 84 57 135 57c52 0 95 -17 125 -46c39 -38 51 -86 51 -143v-324zM420 761l-111 -162h-77l75 162h113z" />
    <glyph glyph-name="Ncommaaccent" unicode="&#x145;" horiz-adv-x="722" 
d="M629 0h-99l-329 501v-501h-108v712h99l329 -500v500h108v-712zM421 -64l-51 -147h-101l70 147h82z" />
    <glyph glyph-name="ncommaaccent" unicode="&#x146;" horiz-adv-x="568" 
d="M492 0h-102v309c0 79 -45 113 -102 113s-105 -35 -105 -113v-309h-102v507h100v-51c35 38 84 57 135 57c52 0 95 -17 125 -46c39 -38 51 -86 51 -143v-324zM353 -64l-51 -147h-101l70 147h82z" />
    <glyph glyph-name="Ncaron" unicode="&#x147;" horiz-adv-x="722" 
d="M629 0h-99l-329 501v-501h-108v712h99l329 -500v500h108v-712zM533 942l-129 -161h-86l-129 161h85l87 -97l87 97h85z" />
    <glyph glyph-name="ncaron" unicode="&#x148;" horiz-adv-x="568" 
d="M492 0h-102v309c0 79 -45 113 -102 113s-105 -35 -105 -113v-309h-102v507h100v-51c35 38 84 57 135 57c52 0 95 -17 125 -46c39 -38 51 -86 51 -143v-324zM456 760l-129 -161h-86l-129 161h85l87 -97l87 97h85z" />
    <glyph glyph-name="napostrophe" unicode="&#x149;" horiz-adv-x="568" 
d="M492 0h-102v309c0 79 -45 113 -102 113s-105 -35 -105 -113v-309h-102v507h100v-51c35 38 84 57 135 57c52 0 95 -17 125 -46c39 -38 51 -86 51 -143v-324zM81 612l-91 -76v198h91v-122z" />
    <glyph glyph-name="Eng" unicode="&#x14a;" horiz-adv-x="722" 
d="M629 -71c0 -75 -42 -140 -139 -140h-63v87h48c41 0 55 20 55 59v65l-329 501v-501h-108v712h99l329 -500v500h108v-783z" />
    <glyph glyph-name="eng" unicode="&#x14b;" horiz-adv-x="568" 
d="M492 -71c0 -75 -42 -140 -139 -140h-63v87h45c41 0 55 20 55 59v374c0 79 -45 113 -102 113s-105 -35 -105 -113v-309h-102v507h100v-51c35 38 84 57 135 57c52 0 95 -17 125 -46c39 -38 51 -86 51 -143v-395z" />
    <glyph glyph-name="Omacron" unicode="&#x14c;" horiz-adv-x="646" 
d="M579 356c0 -149 -2 -220 -72 -290c-46 -46 -106 -72 -184 -72s-138 26 -184 72c-70 70 -72 141 -72 290s2 220 72 290c46 46 106 72 184 72s138 -26 184 -72c70 -70 72 -141 72 -290zM471 356c0 141 -6 185 -42 222c-27 28 -63 44 -106 44s-79 -16 -106 -44
c-35 -38 -42 -81 -42 -222s7 -183 42 -221c27 -28 63 -45 106 -45s79 17 106 45c36 37 42 80 42 221zM168 795v73h309v-73h-309z" />
    <glyph glyph-name="omacron" unicode="&#x14d;" horiz-adv-x="537" 
d="M480 254c0 -86 -12 -150 -60 -200c-33 -34 -83 -60 -152 -60s-118 26 -151 60c-48 50 -60 114 -60 200c0 85 12 149 60 199c33 34 82 60 151 60s119 -26 152 -60c48 -50 60 -114 60 -199zM378 254c0 55 -4 108 -35 139c-19 19 -45 29 -75 29s-55 -10 -74 -29
c-31 -31 -35 -84 -35 -139s4 -108 35 -139c19 -19 44 -30 74 -30s56 11 75 30c31 31 35 84 35 139zM113 618v73h309v-73h-309z" />
    <glyph glyph-name="Obreve" unicode="&#x14e;" horiz-adv-x="646" 
d="M579 356c0 -149 -2 -220 -72 -290c-46 -46 -106 -72 -184 -72s-138 26 -184 72c-70 70 -72 141 -72 290s2 220 72 290c46 46 106 72 184 72s138 -26 184 -72c70 -70 72 -141 72 -290zM471 356c0 141 -6 185 -42 222c-27 28 -63 44 -106 44s-79 -16 -106 -44
c-35 -38 -42 -81 -42 -222s7 -183 42 -221c27 -28 63 -45 106 -45s79 17 106 45c36 37 42 80 42 221zM488 937c-6 -100 -71 -145 -165 -145s-159 45 -165 145h72c6 -47 44 -71 93 -71s87 24 93 71h72z" />
    <glyph glyph-name="obreve" unicode="&#x14f;" horiz-adv-x="537" 
d="M480 254c0 -86 -12 -150 -60 -200c-33 -34 -83 -60 -152 -60s-118 26 -151 60c-48 50 -60 114 -60 200c0 85 12 149 60 199c33 34 82 60 151 60s119 -26 152 -60c48 -50 60 -114 60 -199zM378 254c0 55 -4 108 -35 139c-19 19 -45 29 -75 29s-55 -10 -74 -29
c-31 -31 -35 -84 -35 -139s4 -108 35 -139c19 -19 44 -30 74 -30s56 11 75 30c31 31 35 84 35 139zM433 738c-6 -100 -70 -145 -164 -145c-95 0 -159 45 -165 145h72c6 -47 43 -70 93 -70c38 0 86 20 92 70h72z" />
    <glyph glyph-name="Ohungarumlaut" unicode="&#x150;" horiz-adv-x="646" 
d="M579 356c0 -149 -2 -220 -72 -290c-46 -46 -106 -72 -184 -72s-138 26 -184 72c-70 70 -72 141 -72 290s2 220 72 290c46 46 106 72 184 72s138 -26 184 -72c70 -70 72 -141 72 -290zM471 356c0 141 -6 185 -42 222c-27 28 -63 44 -106 44s-79 -16 -106 -44
c-35 -38 -42 -81 -42 -222s7 -183 42 -221c27 -28 63 -45 106 -45s79 17 106 45c36 37 42 80 42 221zM438 781h-77l76 161h112zM253 781h-77l76 161h112z" />
    <glyph glyph-name="ohungarumlaut" unicode="&#x151;" horiz-adv-x="537" 
d="M480 254c0 -86 -12 -150 -60 -200c-33 -34 -83 -60 -152 -60s-118 26 -151 60c-48 50 -60 114 -60 200c0 85 12 149 60 199c33 34 82 60 151 60s119 -26 152 -60c48 -50 60 -114 60 -199zM378 254c0 55 -4 108 -35 139c-19 19 -45 29 -75 29s-55 -10 -74 -29
c-31 -31 -35 -84 -35 -139s4 -108 35 -139c19 -19 44 -30 74 -30s56 11 75 30c31 31 35 84 35 139zM383 599h-77l76 161h112zM198 599h-77l76 161h112z" />
    <glyph glyph-name="OE" unicode="&#x152;" horiz-adv-x="977" 
d="M321 -6c-78 0 -136 26 -182 72c-69 70 -72 141 -72 290s3 220 72 290c46 46 104 72 182 72c57 0 111 -19 150 -64v58h450v-96h-342v-210h291v-94h-291v-216h343v-96h-451v58c-39 -45 -97 -64 -150 -64zM322 90c42 0 82 18 107 45c35 38 42 78 42 221s-7 183 -42 221
c-25 27 -66 44 -108 44s-77 -15 -104 -43c-35 -38 -42 -81 -42 -222s7 -183 42 -221c27 -28 63 -45 105 -45z" />
    <glyph glyph-name="oe" unicode="&#x153;" horiz-adv-x="862" 
d="M807 224h-329c0 -88 45 -142 129 -142c57 0 88 16 123 52l65 -61c-51 -52 -100 -79 -189 -79c-74 0 -135 24 -175 80c-32 -49 -89 -80 -163 -80c-68 0 -118 25 -151 60c-48 50 -60 114 -60 200c0 85 12 149 60 199c33 35 83 60 151 60c75 0 132 -31 164 -81
c35 53 91 81 160 81c137 0 215 -99 215 -244v-45zM378 254c0 55 -4 108 -35 139c-19 19 -45 29 -75 29s-55 -10 -74 -29c-31 -31 -35 -84 -35 -139s4 -108 35 -139c19 -19 44 -30 74 -30s56 11 75 30c31 31 35 84 35 139zM707 295c-2 31 -4 47 -14 69c-17 38 -52 64 -100 64
c-49 0 -84 -26 -101 -64c-10 -22 -12 -38 -13 -69h228z" />
    <glyph glyph-name="Racute" unicode="&#x154;" horiz-adv-x="655" 
d="M612 0h-126l-150 300h-135v-300h-108v712h276c135 0 221 -87 221 -208c0 -102 -62 -167 -142 -189zM482 503c0 70 -49 112 -121 112h-160v-223h160c72 0 121 41 121 111zM463 943l-111 -162h-77l75 162h113z" />
    <glyph glyph-name="racute" unicode="&#x155;" horiz-adv-x="439" 
d="M437 465l-77 -77c-23 23 -41 34 -76 34c-55 0 -101 -44 -101 -114v-308h-102v507h100v-55c26 36 78 61 135 61c49 0 86 -13 121 -48zM356 761l-111 -162h-77l75 162h113z" />
    <glyph glyph-name="Rcommaaccent" unicode="&#x156;" horiz-adv-x="655" 
d="M612 0h-126l-150 300h-135v-300h-108v712h276c135 0 221 -87 221 -208c0 -102 -62 -167 -142 -189zM482 503c0 70 -49 112 -121 112h-160v-223h160c72 0 121 41 121 111zM387 -64l-51 -147h-101l70 147h82z" />
    <glyph glyph-name="rcommaaccent" unicode="&#x157;" horiz-adv-x="439" 
d="M437 465l-77 -77c-23 23 -41 34 -76 34c-55 0 -101 -44 -101 -114v-308h-102v507h100v-55c26 36 78 61 135 61c49 0 86 -13 121 -48zM174 -64l-51 -147h-101l70 147h82z" />
    <glyph glyph-name="Rcaron" unicode="&#x158;" horiz-adv-x="655" 
d="M612 0h-126l-150 300h-135v-300h-108v712h276c135 0 221 -87 221 -208c0 -102 -62 -167 -142 -189zM482 503c0 70 -49 112 -121 112h-160v-223h160c72 0 121 41 121 111zM499 942l-129 -161h-86l-129 161h85l87 -97l87 97h85z" />
    <glyph glyph-name="rcaron" unicode="&#x159;" horiz-adv-x="439" 
d="M437 465l-77 -77c-23 23 -41 34 -76 34c-55 0 -101 -44 -101 -114v-308h-102v507h100v-55c26 36 78 61 135 61c49 0 86 -13 121 -48zM402 760l-129 -161h-86l-129 161h85l87 -97l87 97h85z" />
    <glyph glyph-name="Sacute" unicode="&#x15a;" horiz-adv-x="590" 
d="M538 203c0 -131 -106 -209 -256 -209c-107 0 -183 25 -252 94l71 71c52 -52 111 -69 183 -69c94 0 147 40 147 110c0 32 -8 57 -28 74c-18 16 -42 25 -78 30l-84 12c-58 9 -103 27 -134 57c-35 32 -53 78 -53 137c0 124 90 208 238 208c95 0 160 -24 221 -81l-68 -68
c-44 42 -96 55 -157 55c-84 0 -129 -46 -129 -111c0 -26 7 -50 26 -66c18 -16 39 -26 78 -32l85 -13c65 -10 101 -25 132 -53c38 -35 58 -84 58 -146zM431 943l-111 -162h-77l75 162h113z" />
    <glyph glyph-name="sacute" unicode="&#x15b;" horiz-adv-x="499" 
d="M456 155c0 -106 -90 -161 -211 -161c-83 0 -153 14 -213 73l67 67c41 -42 96 -53 146 -53c63 0 111 22 111 70c0 35 -19 55 -68 60l-81 7c-96 9 -150 51 -150 140c0 100 85 155 191 155c77 0 141 -16 188 -57l-64 -65c-32 27 -77 37 -125 37c-62 0 -92 -26 -92 -65
c0 -35 20 -53 70 -58l71 -6c105 -9 160 -55 160 -144zM386 761l-111 -162h-77l75 162h113z" />
    <glyph glyph-name="Scircumflex" unicode="&#x15c;" horiz-adv-x="590" 
d="M538 203c0 -131 -106 -209 -256 -209c-107 0 -183 25 -252 94l71 71c52 -52 111 -69 183 -69c94 0 147 40 147 110c0 32 -8 57 -28 74c-18 16 -42 25 -78 30l-84 12c-58 9 -103 27 -134 57c-35 32 -53 78 -53 137c0 124 90 208 238 208c95 0 160 -24 221 -81l-68 -68
c-44 42 -96 55 -157 55c-84 0 -129 -46 -129 -111c0 -26 7 -50 26 -66c18 -16 39 -26 78 -32l85 -13c65 -10 101 -25 132 -53c38 -35 58 -84 58 -146zM466 781h-85l-87 97l-87 -97h-85l129 161h86z" />
    <glyph glyph-name="scircumflex" unicode="&#x15d;" horiz-adv-x="499" 
d="M456 155c0 -106 -90 -161 -211 -161c-83 0 -153 14 -213 73l67 67c41 -42 96 -53 146 -53c63 0 111 22 111 70c0 35 -19 55 -68 60l-81 7c-96 9 -150 51 -150 140c0 100 85 155 191 155c77 0 141 -16 188 -57l-64 -65c-32 27 -77 37 -125 37c-62 0 -92 -26 -92 -65
c0 -35 20 -53 70 -58l71 -6c105 -9 160 -55 160 -144zM429 599h-85l-87 97l-87 -97h-85l129 161h86z" />
    <glyph glyph-name="Scedilla" unicode="&#x15e;" horiz-adv-x="590" 
d="M538 203c0 -131 -106 -209 -256 -209c-107 0 -183 25 -252 94l71 71c52 -52 111 -69 183 -69c94 0 147 40 147 110c0 32 -8 57 -28 74c-18 16 -42 25 -78 30l-84 12c-58 9 -103 27 -134 57c-35 32 -53 78 -53 137c0 124 90 208 238 208c95 0 160 -24 221 -81l-68 -68
c-44 42 -96 55 -157 55c-84 0 -129 -46 -129 -111c0 -26 7 -50 26 -66c18 -16 39 -26 78 -32l85 -13c65 -10 101 -25 132 -53c38 -35 58 -84 58 -146zM364 -64l-51 -147h-101l70 147h82z" />
    <glyph glyph-name="scedilla" unicode="&#x15f;" horiz-adv-x="499" 
d="M456 155c0 -106 -90 -161 -211 -161c-83 0 -153 14 -213 73l67 67c41 -42 96 -53 146 -53c63 0 111 22 111 70c0 35 -19 55 -68 60l-81 7c-96 9 -150 51 -150 140c0 100 85 155 191 155c77 0 141 -16 188 -57l-64 -65c-32 27 -77 37 -125 37c-62 0 -92 -26 -92 -65
c0 -35 20 -53 70 -58l71 -6c105 -9 160 -55 160 -144zM319 -64l-51 -147h-101l70 147h82z" />
    <glyph glyph-name="Scaron" unicode="&#x160;" horiz-adv-x="590" 
d="M538 203c0 -131 -106 -209 -256 -209c-107 0 -183 25 -252 94l71 71c52 -52 111 -69 183 -69c94 0 147 40 147 110c0 32 -8 57 -28 74c-18 16 -42 25 -78 30l-84 12c-58 9 -103 27 -134 57c-35 32 -53 78 -53 137c0 124 90 208 238 208c95 0 160 -24 221 -81l-68 -68
c-44 42 -96 55 -157 55c-84 0 -129 -46 -129 -111c0 -26 7 -50 26 -66c18 -16 39 -26 78 -32l85 -13c65 -10 101 -25 132 -53c38 -35 58 -84 58 -146zM464 942l-129 -161h-86l-129 161h85l87 -97l87 97h85z" />
    <glyph glyph-name="scaron" unicode="&#x161;" horiz-adv-x="499" 
d="M456 155c0 -106 -90 -161 -211 -161c-83 0 -153 14 -213 73l67 67c41 -42 96 -53 146 -53c63 0 111 22 111 70c0 35 -19 55 -68 60l-81 7c-96 9 -150 51 -150 140c0 100 85 155 191 155c77 0 141 -16 188 -57l-64 -65c-32 27 -77 37 -125 37c-62 0 -92 -26 -92 -65
c0 -35 20 -53 70 -58l71 -6c105 -9 160 -55 160 -144zM420 760l-129 -161h-86l-129 161h85l87 -97l87 97h85z" />
    <glyph glyph-name="Tcommaaccent" unicode="&#x162;" horiz-adv-x="560" 
d="M530 615h-196v-615h-108v615h-196v97h500v-97zM321 -64l-51 -147h-101l70 147h82z" />
    <glyph glyph-name="tcommaaccent" unicode="&#x163;" horiz-adv-x="342" 
d="M293 0h-61c-95 0 -139 68 -139 141v288h-58v78h58v145h102v-145h98v-78h-98v-283c0 -37 18 -59 56 -59h42v-87zM241 -64l-51 -147h-101l70 147h82z" />
    <glyph glyph-name="Tcaron" unicode="&#x164;" horiz-adv-x="560" 
d="M530 615h-196v-615h-108v615h-196v97h500v-97zM452 942l-129 -161h-86l-129 161h85l87 -97l87 97h85z" />
    <glyph glyph-name="tcaron" unicode="&#x165;" horiz-adv-x="342" 
d="M293 0h-61c-95 0 -139 68 -139 141v288h-58v78h58v145h102v-145h98v-78h-98v-283c0 -37 18 -59 56 -59h42v-87zM386 730l-56 -159h-75l37 159h94z" />
    <glyph glyph-name="Tbar" unicode="&#x166;" horiz-adv-x="560" 
d="M530 615h-196v-214h106v-83h-106v-318h-108v318h-106v83h106v214h-196v97h500v-97z" />
    <glyph glyph-name="tbar" unicode="&#x167;" horiz-adv-x="342" 
d="M293 0h-61c-95 0 -139 68 -139 141v98h-58v78h58v112h-58v78h58v145h102v-145h98v-78h-98v-112h98v-78h-98v-93c0 -37 18 -59 56 -59h42v-87z" />
    <glyph glyph-name="Utilde" unicode="&#x168;" horiz-adv-x="675" 
d="M593 240c0 -147 -111 -246 -256 -246s-255 99 -255 246v472h108v-467c0 -95 58 -154 147 -154s148 59 148 154v467h108v-472zM508 846c-45 -45 -73 -55 -104 -55c-29 0 -49 8 -75 23c-19 11 -36 19 -56 19c-17 0 -30 -2 -58 -30l-48 47c45 45 72 55 104 55
c29 0 48 -8 75 -24c20 -12 35 -19 55 -19c16 0 32 4 59 31z" />
    <glyph glyph-name="utilde" unicode="&#x169;" horiz-adv-x="568" 
d="M487 0h-100v51c-35 -38 -84 -57 -135 -57c-52 0 -95 17 -125 46c-39 38 -51 86 -51 143v324h102v-309c0 -79 45 -113 102 -113s105 35 105 113v309h102v-507zM451 664c-45 -45 -73 -55 -104 -55c-29 0 -49 8 -75 23c-19 11 -36 19 -56 19c-17 0 -30 -2 -58 -30l-48 47
c45 45 72 55 104 55c29 0 48 -8 75 -24c20 -12 35 -19 55 -19c16 0 32 4 59 31z" />
    <glyph glyph-name="Umacron" unicode="&#x16a;" horiz-adv-x="675" 
d="M593 240c0 -147 -111 -246 -256 -246s-255 99 -255 246v472h108v-467c0 -95 58 -154 147 -154s148 59 148 154v467h108v-472zM182 795v73h309v-73h-309z" />
    <glyph glyph-name="umacron" unicode="&#x16b;" horiz-adv-x="568" 
d="M487 0h-100v51c-35 -38 -84 -57 -135 -57c-52 0 -95 17 -125 46c-39 38 -51 86 -51 143v324h102v-309c0 -79 45 -113 102 -113s105 35 105 113v309h102v-507zM128 618v73h309v-73h-309z" />
    <glyph glyph-name="Ubreve" unicode="&#x16c;" horiz-adv-x="675" 
d="M593 240c0 -147 -111 -246 -256 -246s-255 99 -255 246v472h108v-467c0 -95 58 -154 147 -154s148 59 148 154v467h108v-472zM502 937c-6 -100 -71 -145 -165 -145s-159 45 -165 145h72c6 -47 44 -71 93 -71s87 24 93 71h72z" />
    <glyph glyph-name="ubreve" unicode="&#x16d;" horiz-adv-x="568" 
d="M487 0h-100v51c-35 -38 -84 -57 -135 -57c-52 0 -95 17 -125 46c-39 38 -51 86 -51 143v324h102v-309c0 -79 45 -113 102 -113s105 35 105 113v309h102v-507zM444 738c-6 -100 -70 -145 -164 -145c-95 0 -159 45 -165 145h72c6 -47 43 -70 93 -70c38 0 86 20 92 70h72z
" />
    <glyph glyph-name="Uring" unicode="&#x16e;" horiz-adv-x="675" 
d="M593 240c0 -147 -111 -246 -256 -246s-255 99 -255 246v472h108v-467c0 -95 58 -154 147 -154s148 59 148 154v467h108v-472zM462 883c0 -69 -56 -125 -125 -125s-125 56 -125 125s56 125 125 125s125 -56 125 -125zM401 883c0 35 -29 63 -64 63s-64 -28 -64 -63
s29 -63 64 -63s64 28 64 63z" />
    <glyph glyph-name="uring" unicode="&#x16f;" horiz-adv-x="568" 
d="M487 0h-100v51c-35 -38 -84 -57 -135 -57c-52 0 -95 17 -125 46c-39 38 -51 86 -51 143v324h102v-309c0 -79 45 -113 102 -113s105 35 105 113v309h102v-507zM409 701c0 -69 -56 -125 -125 -125s-125 56 -125 125s56 125 125 125s125 -56 125 -125zM348 701
c0 35 -29 63 -64 63s-64 -28 -64 -63s29 -63 64 -63s64 28 64 63z" />
    <glyph glyph-name="Uhungarumlaut" unicode="&#x170;" horiz-adv-x="675" 
d="M593 240c0 -147 -111 -246 -256 -246s-255 99 -255 246v472h108v-467c0 -95 58 -154 147 -154s148 59 148 154v467h108v-472zM452 781h-77l76 161h112zM267 781h-77l76 161h112z" />
    <glyph glyph-name="uhungarumlaut" unicode="&#x171;" horiz-adv-x="568" 
d="M487 0h-100v51c-35 -38 -84 -57 -135 -57c-52 0 -95 17 -125 46c-39 38 -51 86 -51 143v324h102v-309c0 -79 45 -113 102 -113s105 35 105 113v309h102v-507zM399 599h-77l76 161h112zM214 599h-77l76 161h112z" />
    <glyph glyph-name="Uogonek" unicode="&#x172;" horiz-adv-x="675" 
d="M593 240c0 -147 -111 -246 -256 -246s-255 99 -255 246v472h108v-467c0 -95 58 -154 147 -154s148 59 148 154v467h108v-472zM495 -64l-51 -147h-101l70 147h82z" />
    <glyph glyph-name="uogonek" unicode="&#x173;" horiz-adv-x="568" 
d="M487 0h-100v51c-35 -38 -84 -57 -135 -57c-52 0 -95 17 -125 46c-39 38 -51 86 -51 143v324h102v-309c0 -79 45 -113 102 -113s105 35 105 113v309h102v-507zM469 -64l-51 -147h-101l70 147h82z" />
    <glyph glyph-name="Wcircumflex" unicode="&#x174;" horiz-adv-x="871" 
d="M860 712l-186 -712h-94l-145 499l-144 -499h-94l-186 712h114l124 -509l143 509h87l143 -509l124 509h114zM607 781h-85l-87 97l-87 -97h-85l129 161h86z" />
    <glyph glyph-name="wcircumflex" unicode="&#x175;" horiz-adv-x="743" 
d="M735 507l-158 -507h-87l-119 354l-118 -354h-88l-157 507h108l98 -357l118 357h79l117 -357l98 357h109zM543 599h-85l-87 97l-87 -97h-85l129 161h86z" />
    <glyph glyph-name="Ycircumflex" unicode="&#x176;" horiz-adv-x="544" 
d="M539 712l-213 -419v-293h-108v293l-213 419h118l149 -313l149 313h118zM444 781h-85l-87 97l-87 -97h-85l129 161h86z" />
    <glyph glyph-name="ycircumflex" unicode="&#x177;" horiz-adv-x="468" 
d="M464 507l-224 -608c-10 -28 -22 -48 -37 -63c-28 -28 -65 -37 -104 -37h-41v92h26c43 0 58 13 73 54l28 79l-177 483h108l121 -357l118 357h109zM408 599h-85l-87 97l-87 -97h-85l129 161h86z" />
    <glyph glyph-name="Ydieresis" unicode="&#x178;" horiz-adv-x="544" 
d="M539 712l-213 -419v-293h-108v293l-213 419h118l149 -313l149 313h118zM210 786h-92v108h92v-108zM426 786h-92v108h92v-108z" />
    <glyph glyph-name="Zacute" unicode="&#x179;" horiz-adv-x="552" 
d="M504 0h-456v93l329 522h-315v97h442v-88l-331 -527h331v-97zM412 943l-111 -162h-77l75 162h113z" />
    <glyph glyph-name="zacute" unicode="&#x17a;" horiz-adv-x="469" 
d="M421 0h-378v81l252 335h-238v91h364v-81l-254 -335h254v-91zM371 761l-111 -162h-77l75 162h113z" />
    <glyph glyph-name="Zdotaccent" unicode="&#x17b;" horiz-adv-x="552" 
d="M504 0h-456v93l329 522h-315v97h442v-88l-331 -527h331v-97zM226 793v97h97v-97h-97z" />
    <glyph glyph-name="zdotaccent" unicode="&#x17c;" horiz-adv-x="469" 
d="M421 0h-378v81l252 335h-238v91h364v-81l-254 -335h254v-91zM186 611v97h97v-97h-97z" />
    <glyph glyph-name="Zcaron" unicode="&#x17d;" horiz-adv-x="552" 
d="M504 0h-456v93l329 522h-315v97h442v-88l-331 -527h331v-97zM453 942l-129 -161h-86l-129 161h85l87 -97l87 97h85z" />
    <glyph glyph-name="zcaron" unicode="&#x17e;" horiz-adv-x="469" 
d="M421 0h-378v81l252 335h-238v91h364v-81l-254 -335h254v-91zM411 760l-129 -161h-86l-129 161h85l87 -97l87 97h85z" />
    <glyph glyph-name="longs" unicode="&#x17f;" horiz-adv-x="264" 
d="M183 571v-571h-102v576c0 73 44 141 139 141h64v-87h-45c-38 0 -56 -22 -56 -59z" />
    <glyph glyph-name="uni018F" unicode="&#x18f;" horiz-adv-x="649" 
d="M66 276v109h408c-1 118 -10 158 -42 193c-27 28 -63 44 -106 44c-80 0 -132 -46 -150 -124h-108c19 121 108 220 258 220c78 0 138 -26 184 -72c69 -70 72 -141 72 -290s-3 -220 -72 -290c-46 -46 -106 -72 -184 -72c-75 0 -143 25 -196 81c-47 51 -64 108 -64 201z
M174 293v-40c0 -46 9 -82 35 -112c28 -33 70 -51 117 -51c43 0 79 16 106 44c29 31 39 67 41 159h-299z" />
    <glyph glyph-name="florin" unicode="&#x192;" horiz-adv-x="415" 
d="M385 630h-59c-38 0 -59 -22 -66 -59l-32 -180h101v-78h-115l-91 -518h-102l91 518h-82v78h96l33 185c13 73 68 141 163 141h63v-87z" />
    <glyph glyph-name="uni01B5" unicode="&#x1b5;" horiz-adv-x="552" 
d="M504 0h-456v93l142 225h-73v83h125l135 214h-315v97h442v-88l-140 -223h73v-83h-125l-139 -221h331v-97z" />
    <glyph glyph-name="uni01B6" unicode="&#x1b6;" horiz-adv-x="469" 
d="M421 0h-378v81l102 136h-28v73h83l95 126h-238v91h364v-81l-103 -136h29v-73h-85l-95 -126h254v-91z" />
    <glyph glyph-name="uni01C4" unicode="&#x1c4;" horiz-adv-x="1218" 
d="M599 356c0 -114 -2 -202 -54 -266c-50 -62 -113 -90 -202 -90h-250v712h250c89 0 152 -28 202 -90c52 -64 54 -152 54 -266zM491 356c0 106 -3 172 -38 211c-30 35 -71 49 -122 49h-130v-520h130c51 0 92 14 122 49c35 39 38 105 38 211zM1170 0h-456v93l329 522h-315v97
h442v-88l-331 -527h331v-97zM1119 942l-129 -161h-86l-129 161h85l87 -97l87 97h85z" />
    <glyph glyph-name="uni01C5" unicode="&#x1c5;" horiz-adv-x="1135" 
d="M599 356c0 -114 -2 -202 -54 -266c-50 -62 -113 -90 -202 -90h-250v712h250c89 0 152 -28 202 -90c52 -64 54 -152 54 -266zM491 356c0 106 -3 172 -38 211c-30 35 -71 49 -122 49h-130v-520h130c51 0 92 14 122 49c35 39 38 105 38 211zM1087 0h-378v81l252 335h-238v91
h364v-81l-254 -335h254v-91zM1077 760l-129 -161h-86l-129 161h85l87 -97l87 97h85z" />
    <glyph glyph-name="uni01C6" unicode="&#x1c6;" horiz-adv-x="1022" 
d="M472 0h-100v54c-38 -46 -79 -60 -134 -60c-51 0 -96 17 -124 45c-49 50 -57 131 -57 215c0 83 8 164 57 214c28 28 72 45 123 45c54 0 96 -13 133 -57v256h102v-712zM370 254c0 90 -13 168 -105 168c-93 0 -106 -78 -106 -168s13 -169 106 -169c92 0 105 79 105 169z
M974 0h-378v81l252 335h-238v91h364v-81l-254 -335h254v-91zM964 760l-129 -161h-86l-129 161h85l87 -97l87 97h85z" />
    <glyph glyph-name="uni01C7" unicode="&#x1c7;" horiz-adv-x="1080" 
d="M544 0h-451v712h108v-615h343v-97zM997 225c0 -148 -106 -231 -237 -231c-73 0 -124 20 -173 69l72 71c25 -25 49 -43 101 -43c80 0 129 49 129 142v479h108v-487z" />
    <glyph glyph-name="uni01C8" unicode="&#x1c8;" horiz-adv-x="838" 
d="M544 0h-451v712h108v-615h343v-97zM757 -67c0 -75 -42 -140 -139 -140h-63v87h45c41 0 55 20 55 59v568h102v-574zM760 607h-108v108h108v-108z" />
    <glyph glyph-name="uni01C9" unicode="&#x1c9;" horiz-adv-x="575" 
d="M280 0h-63c-97 0 -139 65 -139 140v572h102v-566c0 -39 14 -59 55 -59h45v-87zM494 -67c0 -75 -42 -140 -139 -140h-63v87h45c41 0 55 20 55 59v568h102v-574zM497 607h-108v108h108v-108z" />
    <glyph glyph-name="uni01CA" unicode="&#x1ca;" horiz-adv-x="1228" 
d="M629 0h-99l-329 501v-501h-108v712h99l329 -500v500h108v-712zM1145 225c0 -148 -106 -231 -237 -231c-73 0 -124 20 -173 69l72 71c25 -25 49 -43 101 -43c80 0 129 49 129 142v479h108v-487z" />
    <glyph glyph-name="uni01CB" unicode="&#x1cb;" horiz-adv-x="986" 
d="M629 0h-99l-329 501v-501h-108v712h99l329 -500v500h108v-712zM905 -67c0 -75 -42 -140 -139 -140h-63v87h45c41 0 55 20 55 59v568h102v-574zM908 607h-108v108h108v-108z" />
    <glyph glyph-name="uni01CC" unicode="&#x1cc;" horiz-adv-x="832" 
d="M492 0h-102v309c0 79 -45 113 -102 113s-105 -35 -105 -113v-309h-102v507h100v-51c35 38 84 57 135 57c52 0 95 -17 125 -46c39 -38 51 -86 51 -143v-324zM751 -67c0 -75 -42 -140 -139 -140h-63v87h45c41 0 55 20 55 59v568h102v-574zM754 607h-108v108h108v-108z" />
    <glyph glyph-name="uni01F1" unicode="&#x1f1;" horiz-adv-x="1218" 
d="M599 356c0 -114 -2 -202 -54 -266c-50 -62 -113 -90 -202 -90h-250v712h250c89 0 152 -28 202 -90c52 -64 54 -152 54 -266zM491 356c0 106 -3 172 -38 211c-30 35 -71 49 -122 49h-130v-520h130c51 0 92 14 122 49c35 39 38 105 38 211zM1170 0h-456v93l329 522h-315v97
h442v-88l-331 -527h331v-97z" />
    <glyph glyph-name="uni01F2" unicode="&#x1f2;" horiz-adv-x="1135" 
d="M599 356c0 -114 -2 -202 -54 -266c-50 -62 -113 -90 -202 -90h-250v712h250c89 0 152 -28 202 -90c52 -64 54 -152 54 -266zM491 356c0 106 -3 172 -38 211c-30 35 -71 49 -122 49h-130v-520h130c51 0 92 14 122 49c35 39 38 105 38 211zM1087 0h-378v81l252 335h-238v91
h364v-81l-254 -335h254v-91z" />
    <glyph glyph-name="uni01F3" unicode="&#x1f3;" horiz-adv-x="1022" 
d="M472 0h-100v54c-38 -46 -79 -60 -134 -60c-51 0 -96 17 -124 45c-49 50 -57 131 -57 215c0 83 8 164 57 214c28 28 72 45 123 45c54 0 96 -13 133 -57v256h102v-712zM370 254c0 90 -13 168 -105 168c-93 0 -106 -78 -106 -168s13 -169 106 -169c92 0 105 79 105 169z
M974 0h-378v81l252 335h-238v91h364v-81l-254 -335h254v-91z" />
    <glyph glyph-name="Aringacute" unicode="&#x1fa;" horiz-adv-x="625" 
d="M617 0h-115l-49 143h-281l-49 -143h-115l261 712h87zM423 235l-108 316l-111 -316h219zM435 875c0 -69 -56 -125 -125 -125s-125 56 -125 125s56 125 125 125s125 -56 125 -125zM374 875c0 35 -29 63 -64 63s-64 -28 -64 -63s29 -63 64 -63s64 28 64 63zM446 1172
l-111 -162h-77l75 162h113z" />
    <glyph glyph-name="aringacute" unicode="&#x1fb;" horiz-adv-x="530" 
d="M454 0h-100v46c-37 -37 -72 -52 -135 -52s-105 15 -136 46c-26 27 -40 66 -40 109c0 85 59 146 176 146h133v36c0 65 -31 95 -111 95c-54 0 -82 -14 -111 -50l-66 63c47 56 96 74 181 74c140 0 209 -60 209 -174v-339zM352 183v41h-117c-62 0 -93 -26 -93 -73
s29 -72 96 -72c36 0 65 4 92 29c16 15 22 39 22 75zM382 701c0 -69 -56 -125 -125 -125s-125 56 -125 125s56 125 125 125s125 -56 125 -125zM321 701c0 35 -29 63 -64 63s-64 -28 -64 -63s29 -63 64 -63s64 28 64 63zM393 998l-111 -162h-77l75 162h113z" />
    <glyph glyph-name="AEacute" unicode="&#x1fc;" horiz-adv-x="952" 
d="M897 0h-455v162h-235l-84 -162h-118l374 712h518v-97h-347v-209h296v-97h-296v-212h347v-97zM442 254v361l-188 -361h188zM636 943l-111 -162h-77l75 162h113z" />
    <glyph glyph-name="aeacute" unicode="&#x1fd;" horiz-adv-x="837" 
d="M782 224h-329c0 -88 45 -142 129 -142c57 0 88 16 123 52l65 -61c-51 -52 -101 -79 -190 -79c-74 0 -138 23 -179 79c-52 -63 -103 -79 -182 -79c-63 0 -105 15 -136 46c-26 27 -40 66 -40 109c0 85 59 146 176 146h133v36c0 65 -31 95 -111 95c-54 0 -82 -14 -111 -50
l-66 63c47 56 96 74 181 74c83 0 140 -22 172 -67c35 45 87 67 150 67c137 0 215 -98 215 -246v-43zM682 295c-2 31 -4 47 -14 69c-17 38 -52 64 -100 64c-49 0 -84 -26 -101 -64c-10 -22 -12 -38 -13 -69h228zM352 183v41h-117c-62 0 -93 -26 -93 -73s29 -72 96 -72
c36 0 65 4 92 29c16 15 22 39 22 75zM548 761l-111 -162h-77l75 162h113z" />
    <glyph glyph-name="Oslashacute" unicode="&#x1fe;" horiz-adv-x="646" 
d="M556 756l-52 -107c74 -72 75 -144 75 -293s-2 -220 -72 -290c-46 -46 -106 -72 -184 -72c-46 0 -86 9 -120 26l-30 -64h-82l51 107l-3 3c-69 69 -72 141 -72 290s3 220 72 290c46 46 106 72 184 72c46 0 86 -9 120 -26l30 64h83zM175 356c0 -106 4 -155 21 -190l207 433
c-22 15 -50 23 -80 23c-43 0 -79 -16 -106 -44c-35 -38 -42 -81 -42 -222zM471 356c0 105 -4 156 -20 190l-207 -433c22 -15 49 -23 79 -23c43 0 80 17 106 45c36 38 42 80 42 221zM459 943l-111 -162h-77l75 162h113z" />
    <glyph glyph-name="oslashacute" unicode="&#x1ff;" horiz-adv-x="537" 
d="M480 254c0 -86 -12 -150 -60 -200c-33 -34 -83 -60 -152 -60c-42 0 -76 10 -104 25l-37 -63h-69l58 99c-48 50 -59 114 -59 199s12 149 60 199c33 34 82 60 151 60c42 0 77 -10 105 -25l37 63h69l-59 -98c48 -50 60 -114 60 -199zM378 254c0 40 -2 79 -15 109l-154 -260
c16 -11 36 -18 59 -18c30 0 56 11 75 30c31 31 35 84 35 139zM328 405c-17 11 -37 17 -60 17c-30 0 -55 -10 -74 -29c-31 -31 -35 -84 -35 -139c0 -40 2 -79 15 -109zM404 761l-111 -162h-77l75 162h113z" />
    <glyph glyph-name="Scommaaccent" unicode="&#x218;" horiz-adv-x="590" 
d="M538 203c0 -131 -106 -209 -256 -209c-107 0 -183 25 -252 94l71 71c52 -52 111 -69 183 -69c94 0 147 40 147 110c0 32 -8 57 -28 74c-18 16 -42 25 -78 30l-84 12c-58 9 -103 27 -134 57c-35 32 -53 78 -53 137c0 124 90 208 238 208c95 0 160 -24 221 -81l-68 -68
c-44 42 -96 55 -157 55c-84 0 -129 -46 -129 -111c0 -26 7 -50 26 -66c18 -16 39 -26 78 -32l85 -13c65 -10 101 -25 132 -53c38 -35 58 -84 58 -146zM364 -64l-51 -147h-101l70 147h82z" />
    <glyph glyph-name="scommaaccent" unicode="&#x219;" horiz-adv-x="499" 
d="M456 155c0 -106 -90 -161 -211 -161c-83 0 -153 14 -213 73l67 67c41 -42 96 -53 146 -53c63 0 111 22 111 70c0 35 -19 55 -68 60l-81 7c-96 9 -150 51 -150 140c0 100 85 155 191 155c77 0 141 -16 188 -57l-64 -65c-32 27 -77 37 -125 37c-62 0 -92 -26 -92 -65
c0 -35 20 -53 70 -58l71 -6c105 -9 160 -55 160 -144zM320 -64l-51 -147h-101l70 147h82z" />
    <glyph glyph-name="uni021A" unicode="&#x21a;" horiz-adv-x="560" 
d="M530 615h-196v-615h-108v615h-196v97h500v-97zM321 -64l-51 -147h-101l70 147h82z" />
    <glyph glyph-name="uni021B" unicode="&#x21b;" horiz-adv-x="342" 
d="M293 0h-61c-95 0 -139 68 -139 141v288h-58v78h58v145h102v-145h98v-78h-98v-283c0 -37 18 -59 56 -59h42v-87zM241 -64l-51 -147h-101l70 147h82z" />
    <glyph glyph-name="uni0237" unicode="&#x237;" horiz-adv-x="264" 
d="M183 -67c0 -75 -42 -140 -139 -140h-63v87h45c41 0 55 20 55 59v568h102v-574z" />
    <glyph glyph-name="uni0259" unicode="&#x259;" horiz-adv-x="539" 
d="M54 283h329c0 88 -45 142 -129 142c-57 0 -87 -16 -123 -52l-65 61c52 52 101 79 190 79c127 0 228 -67 228 -260c0 -165 -85 -259 -215 -259c-136 0 -215 98 -215 246v43zM155 212c2 -31 4 -47 14 -69c17 -38 52 -64 100 -64c49 0 84 26 101 64c10 22 12 38 13 69h-228z
" />
    <glyph glyph-name="uni02BB" unicode="&#x2bb;" horiz-adv-x="268" 
d="M190 608h-112v104l112 93v-197z" />
    <glyph glyph-name="afii57929" unicode="&#x2bc;" horiz-adv-x="268" 
d="M190 607l-112 -91v196h112v-105z" />
    <glyph glyph-name="circumflex" unicode="&#x2c6;" horiz-adv-x="500" 
d="M422 599h-85l-87 97l-87 -97h-85l129 161h86z" />
    <glyph glyph-name="caron" unicode="&#x2c7;" horiz-adv-x="500" 
d="M422 760l-129 -161h-86l-129 161h85l87 -97l87 97h85z" />
    <glyph glyph-name="breve" unicode="&#x2d8;" horiz-adv-x="500" 
d="M414 738c-6 -100 -70 -145 -164 -145c-95 0 -159 45 -165 145h72c6 -47 43 -70 93 -70c38 0 86 20 92 70h72z" />
    <glyph glyph-name="dotaccent" unicode="&#x2d9;" horiz-adv-x="500" 
d="M201 611v97h97v-97h-97z" />
    <glyph glyph-name="ring" unicode="&#x2da;" horiz-adv-x="500" 
d="M375 701c0 -69 -56 -125 -125 -125s-125 56 -125 125s56 125 125 125s125 -56 125 -125zM314 701c0 35 -29 63 -64 63s-64 -28 -64 -63s29 -63 64 -63s64 28 64 63z" />
    <glyph glyph-name="ogonek" unicode="&#x2db;" horiz-adv-x="500" 
d="M389 -64l-51 -147h-101l70 147h82z" />
    <glyph glyph-name="tilde" unicode="&#x2dc;" horiz-adv-x="537" 
d="M436 664c-45 -45 -73 -55 -104 -55c-29 0 -49 8 -75 23c-19 11 -36 19 -56 19c-17 0 -30 -2 -58 -30l-48 47c45 45 72 55 104 55c29 0 48 -8 75 -24c20 -12 35 -19 55 -19c16 0 32 4 59 31z" />
    <glyph glyph-name="hungarumlaut" unicode="&#x2dd;" horiz-adv-x="500" 
d="M345 599h-77l76 161h112zM160 599h-77l76 161h112z" />
    <glyph glyph-name="uni037E" unicode="&#x37e;" horiz-adv-x="303" 
d="M222 -60l-116 -95v271h116v-176zM225 285h-121v122h121v-122z" />
    <glyph glyph-name="tonos" unicode="&#x384;" horiz-adv-x="240" 
d="M174 610l-102 -44v146h102v-102z" />
    <glyph glyph-name="dieresistonos" unicode="&#x385;" horiz-adv-x="470" 
d="M420 574h-92v108h92v-108zM286 610l-102 -44v146h102v-102zM142 574h-92v108h92v-108z" />
    <glyph glyph-name="Alphatonos" unicode="&#x386;" horiz-adv-x="625" 
d="M617 0h-115l-49 143h-281l-49 -143h-115l261 712h87zM423 235l-108 316l-111 -316h219zM93 610l-102 -44v146h102v-102z" />
    <glyph glyph-name="anoteleia" unicode="&#x387;" horiz-adv-x="278" 
d="M200 217h-122v122h122v-122z" />
    <glyph glyph-name="Epsilontonos" unicode="&#x388;" horiz-adv-x="603" 
d="M13 610l-102 -44v146h102v-102zM548 0h-455v712h455v-97h-347v-208h296v-96h-296v-214h347v-97z" />
    <glyph glyph-name="Etatonos" unicode="&#x389;" horiz-adv-x="691" 
d="M598 0h-108v311h-289v-311h-108v712h108v-304h289v304h108v-712zM13 610l-102 -44v146h102v-102z" />
    <glyph glyph-name="Iotatonos" unicode="&#x38a;" horiz-adv-x="294" 
d="M201 0h-108v712h108v-712zM13 610l-102 -44v146h102v-102z" />
    <glyph glyph-name="Omicrontonos" unicode="&#x38c;" horiz-adv-x="646" 
d="M579 356c0 -149 -2 -220 -72 -290c-46 -46 -106 -72 -184 -72s-138 26 -184 72c-70 70 -72 141 -72 290s2 220 72 290c46 46 106 72 184 72s138 -26 184 -72c70 -70 72 -141 72 -290zM471 356c0 141 -6 185 -42 222c-27 28 -63 44 -106 44s-79 -16 -106 -44
c-35 -38 -42 -81 -42 -222s7 -183 42 -221c27 -28 63 -45 106 -45s79 17 106 45c36 37 42 80 42 221zM34 610l-102 -44v146h102v-102z" />
    <glyph glyph-name="Upsilontonos" unicode="&#x38e;" horiz-adv-x="544" 
d="M539 712l-213 -419v-293h-108v293l-213 419h118l149 -313l149 313h118zM-17 610l-102 -44v146h102v-102z" />
    <glyph glyph-name="Omegatonos" unicode="&#x38f;" horiz-adv-x="647" 
d="M33 610l-102 -44v146h102v-102zM579 356c0 -88 -3 -151 -25 -200c-10 -21 -23 -40 -45 -60h70v-96h-207v87c32 15 55 32 73 60c21 32 26 87 26 205c0 141 -7 187 -42 225c-26 28 -63 45 -106 45s-80 -17 -106 -45c-35 -38 -42 -84 -42 -225c0 -118 6 -173 27 -205
c18 -28 40 -45 72 -60v-87h-207v96h71c-22 20 -36 39 -46 60c-22 49 -25 112 -25 200c0 149 3 220 72 290c46 46 106 72 184 72s138 -26 184 -72c70 -70 72 -141 72 -290z" />
    <glyph glyph-name="iotadieresistonos" unicode="&#x390;" horiz-adv-x="311" 
d="M280 0h-63c-97 0 -139 65 -139 140v367h102v-361c0 -39 14 -59 55 -59h45v-87zM320 574h-92v108h92v-108zM186 610l-102 -44v146h102v-102zM42 574h-92v108h92v-108z" />
    <glyph glyph-name="Alpha" unicode="&#x391;" horiz-adv-x="625" 
d="M617 0h-115l-49 143h-281l-49 -143h-115l261 712h87zM423 235l-108 316l-111 -316h219z" />
    <glyph glyph-name="Beta" unicode="&#x392;" horiz-adv-x="663" 
d="M596 201c0 -131 -89 -201 -215 -201h-288v712h277c132 0 215 -75 215 -195c0 -77 -48 -132 -96 -151c55 -22 107 -75 107 -165zM477 513c0 66 -47 102 -116 102h-160v-204h160c69 0 116 36 116 102zM488 206c0 63 -42 108 -117 108h-170v-217h170c75 0 117 46 117 109z
" />
    <glyph glyph-name="Gamma" unicode="&#x393;" horiz-adv-x="566" 
d="M538 615h-337v-615h-108v712h445v-97z" />
    <glyph glyph-name="uni0394" unicode="&#x394;" horiz-adv-x="619" 
d="M613 0h-608l261 712h87zM472 92l-161 459l-162 -459h323z" />
    <glyph glyph-name="Epsilon" unicode="&#x395;" horiz-adv-x="603" 
d="M548 0h-455v712h455v-97h-347v-208h296v-96h-296v-214h347v-97z" />
    <glyph glyph-name="Zeta" unicode="&#x396;" horiz-adv-x="552" 
d="M504 0h-456v93l329 522h-315v97h442v-88l-331 -527h331v-97z" />
    <glyph glyph-name="Eta" unicode="&#x397;" horiz-adv-x="691" 
d="M598 0h-108v311h-289v-311h-108v712h108v-304h289v304h108v-712z" />
    <glyph glyph-name="Theta" unicode="&#x398;" horiz-adv-x="646" 
d="M579 356c0 -149 -2 -220 -72 -290c-46 -46 -106 -72 -184 -72s-138 26 -184 72c-69 70 -72 141 -72 290s3 220 72 290c46 46 106 72 184 72s138 -26 184 -72c70 -70 72 -141 72 -290zM217 578c-31 -34 -40 -71 -42 -175h296c-2 104 -11 141 -42 175
c-26 28 -63 44 -106 44s-79 -16 -106 -44zM429 135c31 33 40 69 42 172h-296c2 -103 11 -139 42 -172c27 -28 63 -45 106 -45s80 17 106 45z" />
    <glyph glyph-name="Iota" unicode="&#x399;" horiz-adv-x="294" 
d="M201 0h-108v712h108v-712z" />
    <glyph glyph-name="Kappa" unicode="&#x39a;" horiz-adv-x="658" 
d="M648 0h-127l-200 351l-120 -144v-207h-108v712h108v-358l291 358h132l-231 -279z" />
    <glyph glyph-name="Lambda" unicode="&#x39b;" horiz-adv-x="591" 
d="M577 0h-113l-166 551l-170 -551h-114l233 712h97z" />
    <glyph glyph-name="Mu" unicode="&#x39c;" horiz-adv-x="813" 
d="M721 0h-108v476l-164 -347h-80l-168 347v-476h-108v712h108l208 -443l204 443h108v-712z" />
    <glyph glyph-name="Nu" unicode="&#x39d;" horiz-adv-x="722" 
d="M629 0h-99l-329 501v-501h-108v712h99l329 -500v500h108v-712z" />
    <glyph glyph-name="Xi" unicode="&#x39e;" horiz-adv-x="590" 
d="M535 0h-480v97h186v214h-135v96h135v208h-186v97h480v-97h-186v-208h135v-96h-135v-214h186v-97z" />
    <glyph glyph-name="Omicron" unicode="&#x39f;" horiz-adv-x="646" 
d="M579 356c0 -149 -2 -220 -72 -290c-46 -46 -106 -72 -184 -72s-138 26 -184 72c-70 70 -72 141 -72 290s2 220 72 290c46 46 106 72 184 72s138 -26 184 -72c70 -70 72 -141 72 -290zM471 356c0 141 -6 185 -42 222c-27 28 -63 44 -106 44s-79 -16 -106 -44
c-35 -38 -42 -81 -42 -222s7 -183 42 -221c27 -28 63 -45 106 -45s79 17 106 45c36 37 42 80 42 221z" />
    <glyph glyph-name="Pi" unicode="&#x3a0;" horiz-adv-x="684" 
d="M591 0h-108v616h-282v-616h-108v712h498v-712z" />
    <glyph glyph-name="Rho" unicode="&#x3a1;" horiz-adv-x="629" 
d="M591 496c0 -124 -89 -215 -228 -215h-162v-281h-108v712h270c139 0 228 -92 228 -216zM483 496c0 76 -50 119 -126 119h-156v-238h156c76 0 126 44 126 119z" />
    <glyph glyph-name="Sigma" unicode="&#x3a3;" horiz-adv-x="554" 
d="M506 615h-310l143 -231l-167 -287h331v-97h-455v90l169 291l-153 250v81h442v-97z" />
    <glyph glyph-name="Tau" unicode="&#x3a4;" horiz-adv-x="560" 
d="M530 615h-196v-615h-108v615h-196v97h500v-97z" />
    <glyph glyph-name="Upsilon" unicode="&#x3a5;" horiz-adv-x="544" 
d="M539 712l-213 -419v-293h-108v293l-213 419h118l149 -313l149 313h118z" />
    <glyph glyph-name="Phi" unicode="&#x3a6;" horiz-adv-x="756" 
d="M701 361c0 -85 -5 -162 -69 -226c-58 -58 -120 -76 -200 -76v-59h-108v59c-80 0 -142 18 -200 76c-64 64 -69 141 -69 226s5 162 69 226c58 58 120 76 200 76v49h108v-49c80 0 142 -18 200 -76c64 -64 69 -141 69 -226zM593 361c0 58 0 115 -42 161
c-32 35 -73 44 -119 44v-410c46 0 87 9 119 44c42 46 42 103 42 161zM324 156v410c-46 0 -87 -9 -119 -44c-42 -46 -42 -103 -42 -161s0 -115 42 -161c32 -35 73 -44 119 -44z" />
    <glyph glyph-name="Chi" unicode="&#x3a7;" horiz-adv-x="578" 
d="M568 0h-125l-155 273l-154 -273h-124l220 365l-206 347h124l140 -255l141 255h124l-206 -347z" />
    <glyph glyph-name="Psi" unicode="&#x3a8;" horiz-adv-x="706" 
d="M656 361c0 -70 -12 -119 -59 -166c-49 -49 -111 -76 -187 -76h-3v-119h-108v119h-3c-76 0 -138 27 -187 76c-47 47 -59 96 -59 166v351h108v-351c0 -53 9 -77 32 -101c25 -27 64 -44 106 -44h3v496h108v-496h3c42 0 81 17 106 44c23 24 32 48 32 101v351h108v-351z" />
    <glyph glyph-name="uni03A9" unicode="&#x3a9;" horiz-adv-x="647" 
d="M579 356c0 -88 -3 -151 -25 -200c-10 -21 -23 -40 -45 -60h70v-96h-207v87c32 15 55 32 73 60c21 32 26 87 26 205c0 141 -7 187 -42 225c-26 28 -63 45 -106 45s-80 -17 -106 -45c-35 -38 -42 -84 -42 -225c0 -118 6 -173 27 -205c18 -28 40 -45 72 -60v-87h-207v96h71
c-22 20 -36 39 -46 60c-22 49 -25 112 -25 200c0 149 3 220 72 290c46 46 106 72 184 72s138 -26 184 -72c70 -70 72 -141 72 -290z" />
    <glyph glyph-name="Iotadieresis" unicode="&#x3aa;" horiz-adv-x="294" 
d="M201 0h-108v712h108v-712zM304 786h-92v108h92v-108zM88 786h-92v108h92v-108z" />
    <glyph glyph-name="Upsilondieresis" unicode="&#x3ab;" horiz-adv-x="544" 
d="M539 712l-213 -419v-293h-108v293l-213 419h118l149 -313l149 313h118zM426 786h-92v108h92v-108zM210 786h-92v108h92v-108z" />
    <glyph glyph-name="alphatonos" unicode="&#x3ac;" horiz-adv-x="553" 
d="M472 0h-100v54c-38 -46 -79 -60 -134 -60c-52 0 -96 17 -124 45c-49 51 -57 131 -57 215c0 83 8 164 57 214c28 28 72 45 124 45c55 0 96 -14 134 -60v54h100v-507zM370 254c0 90 -13 168 -105 168c-93 0 -106 -78 -106 -168s13 -169 106 -169c92 0 105 79 105 169z
M322 610l-102 -44v146h102v-102z" />
    <glyph glyph-name="epsilontonos" unicode="&#x3ad;" horiz-adv-x="496" 
d="M468 81c-71 -61 -138 -86 -227 -86c-88 0 -187 45 -187 149c0 64 38 101 77 117c-35 14 -70 51 -70 107c0 97 96 145 184 145c89 0 126 -13 195 -67l-60 -70c-59 45 -86 50 -128 50c-49 0 -90 -28 -90 -63c0 -37 34 -67 85 -67h93v-78h-88c-80 0 -95 -45 -95 -67
c0 -35 35 -68 94 -68c55 0 100 25 146 60zM306 610l-102 -44v146h102v-102z" />
    <glyph glyph-name="etatonos" unicode="&#x3ae;" horiz-adv-x="568" 
d="M492 0h-102v309c0 79 -45 113 -102 113s-105 -35 -105 -113v-309h-102v507h100v-51c35 38 84 57 135 57c52 0 95 -17 125 -46c39 -38 51 -86 51 -143v-324zM346 610l-102 -44v146h102v-102z" />
    <glyph glyph-name="iotatonos" unicode="&#x3af;" horiz-adv-x="311" 
d="M280 0h-63c-97 0 -139 65 -139 140v367h102v-361c0 -39 14 -59 55 -59h45v-87zM181 610l-102 -44v146h102v-102z" />
    <glyph glyph-name="upsilondieresistonos" unicode="&#x3b0;" horiz-adv-x="541" 
d="M476 217c0 -79 -15 -127 -54 -167c-32 -32 -82 -56 -152 -56s-120 24 -152 56c-38 40 -53 88 -53 167v290h102v-307c0 -82 46 -115 103 -115c58 0 104 33 104 115v307h102v-290zM457 574h-92v108h92v-108zM323 610l-102 -44v146h102v-102zM179 574h-92v108h92v-108z" />
    <glyph glyph-name="alpha" unicode="&#x3b1;" horiz-adv-x="553" 
d="M472 0h-100v54c-38 -46 -79 -60 -134 -60c-52 0 -96 17 -124 45c-49 51 -57 131 -57 215c0 83 8 164 57 214c28 28 72 45 124 45c55 0 96 -14 134 -60v54h100v-507zM370 254c0 90 -13 168 -105 168c-93 0 -106 -78 -106 -168s13 -169 106 -169c92 0 105 79 105 169z" />
    <glyph glyph-name="beta" unicode="&#x3b2;" horiz-adv-x="572" 
d="M525 208c0 -113 -87 -214 -202 -214c-69 0 -110 25 -142 60v-54h-100v525c0 108 85 187 205 187s202 -59 202 -178c0 -66 -31 -115 -86 -140c64 -17 123 -59 123 -186zM426 211c0 107 -67 123 -150 123h-57v85h59c101 0 112 63 112 105c0 74 -45 103 -102 103
c-73 0 -106 -49 -106 -120v-296c0 -66 34 -127 119 -127c89 0 125 65 125 127z" />
    <glyph glyph-name="gamma" unicode="&#x3b3;" horiz-adv-x="471" 
d="M463 507l-178 -495v-217h-100v217l-177 495h108l120 -365l119 365h108z" />
    <glyph glyph-name="delta" unicode="&#x3b4;" horiz-adv-x="538" 
d="M481 270c0 -151 -45 -276 -216 -276c-150 0 -208 117 -208 260c0 122 55 234 183 234c11 0 22 0 34 -2l-164 136v90h338v-90h-201l127 -108c72 -61 107 -145 107 -244zM377 253c0 86 -19 164 -102 164c-96 0 -116 -78 -116 -163c0 -77 12 -168 109 -168
c96 0 109 82 109 167z" />
    <glyph glyph-name="epsilon" unicode="&#x3b5;" horiz-adv-x="496" 
d="M468 81c-71 -61 -138 -86 -227 -86c-88 0 -187 45 -187 149c0 64 38 101 77 117c-35 14 -70 51 -70 107c0 97 96 145 184 145c89 0 126 -13 195 -67l-60 -70c-59 45 -86 50 -128 50c-49 0 -90 -28 -90 -63c0 -37 34 -67 85 -67h93v-78h-88c-80 0 -95 -45 -95 -67
c0 -35 35 -68 94 -68c55 0 100 25 146 60z" />
    <glyph glyph-name="zeta" unicode="&#x3b6;" horiz-adv-x="489" 
d="M465 -36c0 -52 -30 -135 -155 -135v81c35 0 58 13 58 51c0 31 -23 39 -61 39h-66c-120 0 -193 43 -193 158c0 114 115 213 202 258h-170v91h364v-87h-22c-179 -83 -265 -173 -265 -255c0 -56 36 -69 113 -69h48c95 0 147 -48 147 -132z" />
    <glyph glyph-name="eta" unicode="&#x3b7;" horiz-adv-x="568" 
d="M492 0h-102v309c0 79 -45 113 -102 113s-105 -35 -105 -113v-309h-102v507h100v-51c35 38 84 57 135 57c52 0 95 -17 125 -46c39 -38 51 -86 51 -143v-324z" />
    <glyph glyph-name="theta" unicode="&#x3b8;" horiz-adv-x="553" 
d="M492 356c0 -111 0 -230 -64 -299c-40 -43 -86 -63 -152 -63c-65 0 -111 20 -151 63c-64 69 -64 188 -64 299s0 230 64 299c40 42 86 63 151 63c66 0 112 -21 152 -63c64 -69 64 -188 64 -299zM389 326h-225c0 -98 4 -171 35 -204c20 -23 43 -37 77 -37c35 0 58 14 78 37
c31 33 35 106 35 204zM389 412c0 73 -4 145 -35 178c-20 23 -43 37 -78 37c-34 0 -57 -14 -77 -37c-31 -33 -35 -105 -35 -178h225z" />
    <glyph glyph-name="iota" unicode="&#x3b9;" horiz-adv-x="311" 
d="M280 0h-63c-97 0 -139 65 -139 140v367h102v-361c0 -39 14 -59 55 -59h45v-87z" />
    <glyph glyph-name="kappa" unicode="&#x3ba;" horiz-adv-x="548" 
d="M526 0h-126l-142 234l-75 -85v-149h-102v507h102v-234l197 234h124l-176 -199z" />
    <glyph glyph-name="lambda" unicode="&#x3bb;" horiz-adv-x="499" 
d="M507 0h-34c-62 0 -117 22 -142 100l-82 257l-127 -357h-108l190 487l-27 99c-8 30 -34 44 -60 44h-30v87h35c62 0 117 -22 142 -100l154 -484c10 -30 34 -46 60 -46h29v-87z" />
    <glyph glyph-name="uni03BC" unicode="&#x3bc;" horiz-adv-x="569" 
d="M487 0h-100v51c-35 -38 -83 -57 -134 -57c-31 0 -56 9 -75 25v-224h-102v712h102v-309c0 -79 46 -113 103 -113s104 35 104 113v309h102v-507z" />
    <glyph glyph-name="nu" unicode="&#x3bd;" horiz-adv-x="471" 
d="M463 507l-186 -507h-83l-186 507h108l120 -357l119 357h108z" />
    <glyph glyph-name="xi" unicode="&#x3be;" horiz-adv-x="516" 
d="M496 617l-63 -63c-48 51 -89 76 -141 76c-68 0 -111 -48 -111 -116c0 -66 39 -102 109 -102h119v-88h-117c-18 0 -135 -16 -135 -127c0 -56 36 -101 113 -101h58c95 0 147 -48 147 -132c0 -52 -30 -135 -155 -135v81c35 0 58 13 58 51c0 31 -23 39 -61 39h-66
c-120 0 -203 75 -203 190c0 81 43 156 124 182c-55 20 -93 70 -93 142c0 119 90 203 213 203c70 0 135 -24 204 -100z" />
    <glyph glyph-name="omicron" unicode="&#x3bf;" horiz-adv-x="537" 
d="M480 254c0 -86 -12 -150 -60 -200c-33 -34 -83 -60 -152 -60s-118 26 -151 60c-48 50 -60 114 -60 200c0 85 12 149 60 199c33 34 82 60 151 60s119 -26 152 -60c48 -50 60 -114 60 -199zM378 254c0 55 -4 108 -35 139c-19 19 -45 29 -75 29s-55 -10 -74 -29
c-31 -31 -35 -84 -35 -139s4 -108 35 -139c19 -19 44 -30 74 -30s56 11 75 30c31 31 35 84 35 139z" />
    <glyph glyph-name="pi" unicode="&#x3c0;" horiz-adv-x="572" 
d="M496 0h-100v412h-214v-412h-101v507h415v-507z" />
    <glyph glyph-name="rho" unicode="&#x3c1;" horiz-adv-x="524" 
d="M467 251c0 -123 -44 -257 -197 -257c-38 0 -68 17 -111 54v-253h-102v459c0 109 16 151 55 194c28 31 68 65 147 65s126 -34 154 -65c39 -43 54 -88 54 -197zM365 251c0 76 -5 106 -24 133c-15 21 -47 37 -82 37s-60 -16 -75 -37c-19 -27 -25 -57 -25 -133
c0 -52 0 -91 18 -119c19 -29 39 -44 84 -44c88 0 104 87 104 163z" />
    <glyph glyph-name="sigma1" unicode="&#x3c2;" horiz-adv-x="485" 
d="M448 442l-70 -68c-32 35 -57 48 -97 48c-39 0 -72 -16 -94 -45c-22 -28 -30 -64 -30 -123c0 -89 38 -155 132 -159c95 -4 155 -47 155 -131c0 -52 -30 -135 -155 -135v81c35 0 58 13 58 51c0 31 -23 39 -61 40c-113 2 -231 65 -231 253c0 190 112 259 226 259
c70 0 119 -20 167 -71z" />
    <glyph glyph-name="sigma" unicode="&#x3c3;" horiz-adv-x="561" 
d="M506 416h-87c36 -20 60 -83 60 -162c0 -110 -18 -153 -57 -196c-28 -31 -77 -64 -156 -64s-126 35 -154 66c-36 40 -55 84 -55 194c0 109 16 151 55 194c28 31 75 59 154 59h240v-91zM378 253c0 74 -11 107 -30 134c-15 21 -47 34 -82 34s-64 -15 -79 -36
c-19 -27 -28 -58 -28 -131c0 -74 7 -102 26 -129c15 -21 46 -39 81 -39s68 16 83 37c19 27 29 57 29 130z" />
    <glyph glyph-name="tau" unicode="&#x3c4;" horiz-adv-x="392" 
d="M368 416h-121v-416h-102v416h-121v91h344v-91z" />
    <glyph glyph-name="upsilon" unicode="&#x3c5;" horiz-adv-x="541" 
d="M476 217c0 -79 -15 -127 -54 -167c-32 -32 -82 -56 -152 -56s-120 24 -152 56c-38 40 -53 88 -53 167v290h102v-307c0 -82 46 -115 103 -115c58 0 104 33 104 115v307h102v-290z" />
    <glyph glyph-name="phi" unicode="&#x3c6;" horiz-adv-x="677" 
d="M620 259c0 -156 -56 -265 -230 -265v-199h-102v199c-169 4 -231 124 -231 260c0 121 44 203 151 251l32 -87c-68 -35 -80 -95 -80 -167c0 -88 25 -160 128 -166v422h104c169 0 228 -88 228 -248zM517 262c0 96 -17 152 -127 152v-329c115 3 127 77 127 177z" />
    <glyph glyph-name="chi" unicode="&#x3c7;" horiz-adv-x="503" 
d="M481 0h-123l-106 173l-107 -173h-123l174 259l-167 248h123l100 -165l99 165h123l-166 -248z" />
    <glyph glyph-name="psi" unicode="&#x3c8;" horiz-adv-x="679" 
d="M614 254c0 -154 -52 -260 -223 -260v-199h-104v199c-170 0 -222 106 -222 260v253h103v-253c0 -87 11 -163 119 -163v415h104v-415c109 0 120 72 120 163v253h103v-253z" />
    <glyph glyph-name="omega" unicode="&#x3c9;" horiz-adv-x="750" 
d="M693 254c0 -59 -6 -127 -33 -177c-28 -50 -78 -83 -153 -83c-72 0 -103 36 -132 81c-29 -45 -60 -81 -132 -81c-75 0 -125 33 -153 83c-27 50 -33 118 -33 177c0 67 16 151 55 194c28 31 75 65 154 65v-96c-35 0 -67 -16 -82 -37c-19 -27 -25 -47 -25 -126
c0 -33 0 -90 20 -128c12 -24 32 -41 64 -41c43 0 66 35 75 76c5 22 6 45 6 65v150h102v-153c0 -20 1 -42 5 -62c9 -42 32 -76 76 -76c32 0 52 17 64 41c20 38 20 95 20 128c0 79 -6 99 -25 126c-15 21 -47 37 -82 37v96c79 0 126 -34 154 -65c39 -43 55 -127 55 -194z" />
    <glyph glyph-name="iotadieresis" unicode="&#x3ca;" horiz-adv-x="311" 
d="M280 0h-63c-97 0 -139 65 -139 140v367h102v-361c0 -39 14 -59 55 -59h45v-87zM287 604h-92v108h92v-108zM71 604h-92v108h92v-108z" />
    <glyph glyph-name="upsilondieresis" unicode="&#x3cb;" horiz-adv-x="541" 
d="M476 217c0 -79 -15 -127 -54 -167c-32 -32 -82 -56 -152 -56s-120 24 -152 56c-38 40 -53 88 -53 167v290h102v-307c0 -82 46 -115 103 -115c58 0 104 33 104 115v307h102v-290zM430 604h-92v108h92v-108zM214 604h-92v108h92v-108z" />
    <glyph glyph-name="omicrontonos" unicode="&#x3cc;" horiz-adv-x="537" 
d="M480 254c0 -86 -12 -150 -60 -200c-33 -34 -83 -60 -152 -60s-118 26 -151 60c-48 50 -60 114 -60 200c0 85 12 149 60 199c33 34 82 60 151 60s119 -26 152 -60c48 -50 60 -114 60 -199zM378 254c0 55 -4 108 -35 139c-19 19 -45 29 -75 29s-55 -10 -74 -29
c-31 -31 -35 -84 -35 -139s4 -108 35 -139c19 -19 44 -30 74 -30s56 11 75 30c31 31 35 84 35 139zM321 610l-102 -44v146h102v-102z" />
    <glyph glyph-name="upsilontonos" unicode="&#x3cd;" horiz-adv-x="541" 
d="M476 217c0 -79 -15 -127 -54 -167c-32 -32 -82 -56 -152 -56s-120 24 -152 56c-38 40 -53 88 -53 167v290h102v-307c0 -82 46 -115 103 -115c58 0 104 33 104 115v307h102v-290zM326 610l-102 -44v146h102v-102z" />
    <glyph glyph-name="omegatonos" unicode="&#x3ce;" horiz-adv-x="750" 
d="M693 254c0 -59 -6 -127 -33 -177c-28 -50 -78 -83 -153 -83c-72 0 -103 36 -132 81c-29 -45 -60 -81 -132 -81c-75 0 -125 33 -153 83c-27 50 -33 118 -33 177c0 67 16 151 55 194c28 31 75 65 154 65v-96c-35 0 -67 -16 -82 -37c-19 -27 -25 -47 -25 -126
c0 -33 0 -90 20 -128c12 -24 32 -41 64 -41c43 0 66 35 75 76c5 22 6 45 6 65v150h102v-153c0 -20 1 -42 5 -62c9 -42 32 -76 76 -76c32 0 52 17 64 41c20 38 20 95 20 128c0 79 -6 99 -25 126c-15 21 -47 37 -82 37v96c79 0 126 -34 154 -65c39 -43 55 -127 55 -194z
M426 610l-102 -44v146h102v-102z" />
    <glyph glyph-name="uni03D0" unicode="&#x3d0;" horiz-adv-x="572" 
d="M525 208c0 -113 -87 -214 -202 -214c-69 0 -108 23 -140 58v-257h-102v730c0 108 85 187 205 187s202 -59 202 -178c0 -66 -31 -115 -86 -140c64 -17 123 -59 123 -186zM426 211c0 107 -67 123 -150 123h-57v85h59c101 0 112 63 112 105c0 74 -45 103 -102 103
c-73 0 -105 -49 -105 -120v-296c0 -66 33 -127 118 -127c89 0 125 65 125 127z" />
    <glyph glyph-name="uni0400" unicode="&#x400;" horiz-adv-x="603" 
d="M549 0h-456v712h456v-97h-348v-208h296v-96h-296v-214h348v-97zM395 781h-77l-111 162h113z" />
    <glyph glyph-name="afii10023" unicode="&#x401;" horiz-adv-x="603" 
d="M549 0h-456v712h456v-97h-348v-208h296v-96h-296v-214h348v-97zM465 786h-92v108h92v-108zM249 786h-92v108h92v-108z" />
    <glyph glyph-name="afii10051" unicode="&#x402;" horiz-adv-x="746" 
d="M670 222c0 -140 -90 -222 -225 -222h-41v94h32c78 0 126 43 126 127s-48 127 -126 127h-135v-348h-108v616h-166v96h500v-96h-226v-174h144c135 0 225 -80 225 -220z" />
    <glyph glyph-name="afii10052" unicode="&#x403;" horiz-adv-x="565" 
d="M536 615h-330v-615h-108v712h438v-97zM437 943l-111 -162h-77l75 162h113z" />
    <glyph glyph-name="afii10053" unicode="&#x404;" horiz-adv-x="628" 
d="M577 211c-25 -139 -123 -217 -254 -217c-78 0 -138 26 -184 72c-69 70 -72 141 -72 290s3 220 72 290c46 46 106 72 184 72c131 0 229 -78 254 -217h-108c-17 73 -67 123 -146 123c-43 0 -80 -17 -107 -45c-32 -34 -40 -73 -42 -174h243v-94h-243c2 -104 10 -144 42 -178
c27 -28 64 -45 107 -45c79 0 130 50 147 123h107z" />
    <glyph glyph-name="afii10054" unicode="&#x405;" horiz-adv-x="590" 
d="M538 203c0 -131 -106 -209 -256 -209c-107 0 -183 25 -252 94l71 71c52 -52 111 -69 183 -69c94 0 147 40 147 110c0 32 -8 57 -28 74c-18 16 -42 25 -78 30l-84 12c-58 9 -103 27 -134 57c-35 32 -53 78 -53 137c0 124 90 208 238 208c95 0 160 -24 221 -81l-68 -68
c-44 42 -96 55 -157 55c-84 0 -129 -46 -129 -111c0 -26 7 -50 26 -66c18 -16 39 -26 78 -32l85 -13c65 -10 101 -25 132 -53c38 -35 58 -84 58 -146z" />
    <glyph glyph-name="afii10055" unicode="&#x406;" horiz-adv-x="294" 
d="M201 0h-108v712h108v-712z" />
    <glyph glyph-name="afii10056" unicode="&#x407;" horiz-adv-x="294" 
d="M201 0h-108v712h108v-712zM299 791h-92v108h92v-108zM83 791h-92v108h92v-108z" />
    <glyph glyph-name="afii10057" unicode="&#x408;" horiz-adv-x="506" 
d="M423 225c0 -148 -106 -231 -237 -231c-73 0 -124 20 -173 69l72 71c25 -25 49 -43 101 -43c80 0 129 49 129 142v479h108v-487z" />
    <glyph glyph-name="afii10058" unicode="&#x409;" horiz-adv-x="1015" 
d="M870 216c0 73 -48 119 -127 119h-156v-238h156c79 0 127 45 127 119zM169 712h418v-280h166c136 0 225 -88 225 -216s-90 -216 -225 -216h-274v615h-205v-225c0 -299 -72 -390 -215 -390h-45v97h19c79 0 136 50 136 308v307z" />
    <glyph glyph-name="afii10059" unicode="&#x40a;" horiz-adv-x="1025" 
d="M988 216c0 -128 -90 -216 -225 -216h-274v335h-288v-335h-108v712h108v-280h288v280h108v-280h166c136 0 225 -88 225 -216zM880 216c0 73 -48 119 -127 119h-156v-238h156c79 0 127 45 127 119z" />
    <glyph glyph-name="afii10060" unicode="&#x40b;" horiz-adv-x="746" 
d="M671 0h-109v229c0 73 -48 118 -126 118h-135v-347h-108v615h-165v97h499v-97h-226v-173h144c135 0 226 -85 226 -213v-229z" />
    <glyph glyph-name="afii10061" unicode="&#x40c;" horiz-adv-x="625" 
d="M204 0h-108v712h108v-712zM629 0h-137l-287 373l266 339h133l-274 -336zM467 943l-111 -162h-77l75 162h113z" />
    <glyph glyph-name="uni040D" unicode="&#x40d;" horiz-adv-x="711" 
d="M618 0h-108v517l-319 -517h-98v712h108v-516l318 516h99v-712zM449 781h-77l-111 162h113z" />
    <glyph glyph-name="afii10062" unicode="&#x40e;" horiz-adv-x="564" 
d="M445 888c-5 -99 -73 -134 -154 -134s-149 35 -154 134h81c4 -46 31 -68 73 -68s69 22 73 68h81zM558 712l-255 -596c-28 -65 -73 -116 -150 -116h-74v97h51c43 0 67 19 83 57l25 58l-231 500h114l170 -381l153 381h114z" />
    <glyph glyph-name="afii10145" unicode="&#x40f;" horiz-adv-x="691" 
d="M597 0h-199v-160h-105v160h-200v712h108v-615h288v615h108v-712z" />
    <glyph glyph-name="afii10017" unicode="&#x410;" horiz-adv-x="625" 
d="M616 0h-113l-50 143h-281l-50 -143h-114l261 712h87zM424 235l-109 316l-112 -316h221z" />
    <glyph glyph-name="afii10018" unicode="&#x411;" horiz-adv-x="655" 
d="M595 216c0 -128 -86 -216 -225 -216h-277v712h458v-97h-350v-183h169c138 0 225 -88 225 -216zM487 216c0 73 -46 119 -124 119h-162v-238h162c78 0 124 45 124 119z" />
    <glyph glyph-name="afii10019" unicode="&#x412;" horiz-adv-x="663" 
d="M596 200c0 -123 -82 -200 -215 -200h-288v712h277c130 0 215 -76 215 -192c0 -72 -33 -124 -96 -155c70 -33 107 -84 107 -165zM477 513c0 64 -44 102 -116 102h-160v-204h160c72 0 116 38 116 102zM487 206c0 66 -45 108 -117 108h-169v-217h169c72 0 117 42 117 109z
" />
    <glyph glyph-name="afii10020" unicode="&#x413;" horiz-adv-x="565" 
d="M536 615h-330v-615h-108v712h438v-97z" />
    <glyph glyph-name="afii10021" unicode="&#x414;" horiz-adv-x="700" 
d="M276 615v-159c0 -136 -17 -259 -70 -359h268v518h-198zM172 712h410v-615h84v-257h-106v160h-432v-160h-105v257h62c62 96 87 236 87 405v210z" />
    <glyph glyph-name="afii10022" unicode="&#x415;" horiz-adv-x="603" 
d="M549 0h-456v712h456v-97h-348v-208h296v-96h-296v-214h348v-97z" />
    <glyph glyph-name="afii10024" unicode="&#x416;" horiz-adv-x="922" 
d="M926 0h-135l-274 373l252 339h131l-264 -336zM132 0h-136l291 376l-266 336h132l253 -339zM516 0h-109v712h109v-712z" />
    <glyph glyph-name="afii10025" unicode="&#x417;" horiz-adv-x="611" 
d="M298 -6c-127 0 -227 77 -251 217h108c17 -72 67 -122 145 -122c80 0 135 45 135 116c0 74 -44 114 -126 114h-91v90h93c72 0 113 40 113 109c0 68 -48 106 -123 106c-78 0 -127 -51 -144 -123h-109c24 140 124 217 254 217c133 0 231 -75 231 -193
c0 -73 -36 -127 -98 -157c69 -28 109 -84 109 -167c0 -126 -105 -207 -246 -207z" />
    <glyph glyph-name="afii10026" unicode="&#x418;" horiz-adv-x="711" 
d="M618 0h-108v517l-319 -517h-98v712h108v-516l318 516h99v-712z" />
    <glyph glyph-name="afii10027" unicode="&#x419;" horiz-adv-x="711" 
d="M510 888c-5 -99 -73 -134 -154 -134s-149 35 -154 134h81c4 -46 31 -68 73 -68s69 22 73 68h81zM618 0h-108v517l-319 -517h-98v712h108v-516l318 516h99v-712z" />
    <glyph glyph-name="afii10028" unicode="&#x41a;" horiz-adv-x="625" 
d="M204 0h-108v712h108v-712zM629 0h-137l-287 373l266 339h133l-274 -336z" />
    <glyph glyph-name="afii10029" unicode="&#x41b;" horiz-adv-x="681" 
d="M587 0h-108v615h-205v-225c0 -299 -72 -390 -215 -390h-45v97h19c79 0 136 50 136 308v307h418v-712z" />
    <glyph glyph-name="afii10030" unicode="&#x41c;" horiz-adv-x="813" 
d="M721 0h-109v476l-164 -347h-80l-167 347v-476h-108v712h107l208 -443l205 443h108v-712z" />
    <glyph glyph-name="afii10031" unicode="&#x41d;" horiz-adv-x="690" 
d="M598 0h-109v311h-288v-311h-108v712h108v-305h288v305h109v-712z" />
    <glyph glyph-name="afii10032" unicode="&#x41e;" horiz-adv-x="646" 
d="M579 356c0 -149 -2 -220 -72 -290c-46 -46 -106 -72 -184 -72s-138 26 -184 72c-70 70 -72 141 -72 290s2 220 72 290c46 46 106 72 184 72s138 -26 184 -72c70 -70 72 -141 72 -290zM471 356c0 141 -6 185 -42 222c-27 28 -63 44 -106 44s-79 -16 -106 -44
c-35 -38 -42 -81 -42 -222s7 -183 42 -221c27 -28 63 -45 106 -45s79 17 106 45c36 37 42 80 42 221z" />
    <glyph glyph-name="afii10033" unicode="&#x41f;" horiz-adv-x="690" 
d="M597 0h-108v615h-288v-615h-108v712h504v-712z" />
    <glyph glyph-name="afii10034" unicode="&#x420;" horiz-adv-x="629" 
d="M591 496c0 -124 -89 -215 -228 -215h-162v-281h-108v712h270c139 0 228 -92 228 -216zM483 496c0 76 -50 119 -126 119h-156v-238h156c76 0 126 44 126 119z" />
    <glyph glyph-name="afii10035" unicode="&#x421;" horiz-adv-x="628" 
d="M577 213c-25 -141 -124 -219 -254 -219c-78 0 -138 26 -184 72c-69 70 -72 141 -72 290s3 220 72 290c46 46 106 72 184 72c131 0 229 -78 254 -219h-110c-16 73 -65 123 -144 123c-43 0 -79 -16 -105 -44c-36 -38 -43 -81 -43 -222s7 -184 43 -222
c26 -28 62 -44 105 -44c79 0 129 50 146 123h108z" />
    <glyph glyph-name="afii10036" unicode="&#x422;" horiz-adv-x="560" 
d="M530 615h-196v-615h-108v615h-196v97h500v-97z" />
    <glyph glyph-name="afii10037" unicode="&#x423;" horiz-adv-x="564" 
d="M558 712l-255 -596c-28 -65 -73 -116 -150 -116h-74v97h51c43 0 67 19 83 57l25 58l-231 500h114l170 -381l153 381h114z" />
    <glyph glyph-name="afii10038" unicode="&#x424;" horiz-adv-x="796" 
d="M452 580v-405c139 6 186 77 186 203c0 128 -44 197 -186 202zM344 175v405c-142 -5 -186 -74 -186 -202c0 -126 47 -197 186 -203zM452 -5h-108v89c-209 9 -294 113 -294 299c0 184 93 280 294 290v69h108v-69c201 -10 294 -106 294 -290c0 -186 -85 -290 -294 -299v-89z
" />
    <glyph glyph-name="afii10039" unicode="&#x425;" horiz-adv-x="578" 
d="M568 0h-125l-155 273l-155 -273h-123l219 365l-205 347h124l140 -255l141 255h124l-206 -347z" />
    <glyph glyph-name="afii10040" unicode="&#x426;" horiz-adv-x="715" 
d="M681 -160h-105v160h-483v712h108v-615h288v615h108v-615h84v-257z" />
    <glyph glyph-name="afii10041" unicode="&#x427;" horiz-adv-x="647" 
d="M554 0h-108v279c-41 -8 -121 -23 -191 -23c-94 0 -185 49 -185 175v281h109v-255c0 -82 51 -104 109 -104c47 0 121 12 158 20v339h108v-712z" />
    <glyph glyph-name="afii10042" unicode="&#x428;" horiz-adv-x="992" 
d="M900 0h-807v712h108v-615h241v615h109v-615h240v615h109v-712z" />
    <glyph glyph-name="afii10043" unicode="&#x429;" horiz-adv-x="1016" 
d="M983 -160h-106v160h-784v712h108v-615h241v615h109v-615h240v615h109v-615h83v-257z" />
    <glyph glyph-name="afii10044" unicode="&#x42a;" horiz-adv-x="727" 
d="M690 216c0 -128 -91 -216 -225 -216h-274v615h-161v97h270v-280h165c135 0 225 -88 225 -216zM582 216c0 73 -49 119 -126 119h-156v-238h156c77 0 126 45 126 119z" />
    <glyph glyph-name="afii10045" unicode="&#x42b;" horiz-adv-x="879" 
d="M786 0h-108v712h108v-712zM592 216c0 -128 -91 -216 -226 -216h-273v712h108v-280h165c136 0 226 -88 226 -216zM483 216c0 73 -47 119 -126 119h-156v-238h156c79 0 126 45 126 119z" />
    <glyph glyph-name="afii10046" unicode="&#x42c;" horiz-adv-x="629" 
d="M592 216c0 -128 -91 -216 -226 -216h-273v712h108v-280h165c136 0 226 -88 226 -216zM483 216c0 73 -47 119 -126 119h-156v-238h156c79 0 126 45 126 119z" />
    <glyph glyph-name="afii10047" unicode="&#x42d;" horiz-adv-x="628" 
d="M50 211h107c17 -73 68 -123 147 -123c43 0 80 17 107 45c32 34 40 74 42 178h-243v94h243c-2 101 -10 140 -42 174c-27 28 -64 45 -107 45c-79 0 -129 -50 -146 -123h-108c25 139 123 217 254 217c78 0 138 -26 184 -72c69 -70 72 -141 72 -290s-3 -220 -72 -290
c-46 -46 -106 -72 -184 -72c-130 0 -229 78 -254 217z" />
    <glyph glyph-name="afii10048" unicode="&#x42e;" horiz-adv-x="909" 
d="M842 356c0 -149 -2 -220 -72 -290c-46 -46 -106 -72 -184 -72s-138 26 -184 72c-63 62 -71 126 -72 245h-129v-311h-108v712h108v-304h129c1 114 10 176 72 238c46 46 106 72 184 72s138 -26 184 -72c70 -70 72 -141 72 -290zM734 356c0 141 -6 185 -42 222
c-27 28 -63 44 -106 44s-79 -16 -106 -44c-35 -38 -42 -81 -42 -222s7 -183 42 -221c27 -28 63 -45 106 -45s79 17 106 45c36 37 42 80 42 221z" />
    <glyph glyph-name="afii10049" unicode="&#x42f;" horiz-adv-x="652" 
d="M310 280l-138 -280h-128l155 300c-84 29 -137 100 -137 196c0 132 92 216 227 216h271v-712h-109v280h-141zM451 377v239h-155c-78 0 -126 -45 -126 -119c0 -73 48 -120 126 -120h155z" />
    <glyph glyph-name="afii10065" unicode="&#x430;" horiz-adv-x="530" 
d="M454 0h-100v46c-37 -37 -72 -52 -135 -52s-105 15 -136 46c-26 27 -40 66 -40 109c0 85 59 146 176 146h133v36c0 65 -31 95 -111 95c-54 0 -82 -14 -111 -50l-66 63c47 56 96 74 181 74c140 0 209 -60 209 -174v-339zM352 183v41h-117c-62 0 -93 -26 -93 -73
s29 -72 96 -72c36 0 65 4 92 29c16 15 22 39 22 75z" />
    <glyph glyph-name="afii10066" unicode="&#x431;" horiz-adv-x="541" 
d="M277 86c28 0 56 9 75 30c21 25 32 67 32 135s-9 111 -31 136c-19 21 -47 32 -76 32c-31 0 -58 -10 -77 -32c-21 -24 -34 -67 -34 -134c0 -72 13 -111 36 -137c19 -20 45 -30 75 -30zM278 -6c-84 0 -152 37 -183 105c-24 51 -30 139 -30 224c0 220 12 276 76 331
c65 57 167 60 304 64v-90c-66 -6 -169 1 -227 -39c-48 -32 -61 -77 -61 -149c22 40 78 66 139 66c49 0 94 -15 124 -43c45 -42 66 -118 66 -208c0 -101 -18 -159 -62 -204c-35 -36 -88 -57 -146 -57z" />
    <glyph glyph-name="afii10067" unicode="&#x432;" horiz-adv-x="545" 
d="M485 143c0 -88 -58 -143 -153 -143h-251v507h243c93 0 153 -54 153 -136c0 -51 -24 -87 -71 -109c51 -23 79 -61 79 -119zM377 364c0 40 -27 63 -75 63h-120v-128h120c49 0 75 23 75 65zM385 150c0 44 -29 70 -77 70h-126v-140h126c48 0 77 27 77 70z" />
    <glyph glyph-name="afii10068" unicode="&#x433;" horiz-adv-x="426" 
d="M414 418h-227v-418h-102v507h329v-89z" />
    <glyph glyph-name="afii10069" unicode="&#x434;" horiz-adv-x="568" 
d="M224 418v-81c0 -117 -19 -186 -48 -248h191v329h-143zM127 507h342v-418h70v-219h-98v130h-329v-130h-97v219h54c32 64 58 133 58 289v129z" />
    <glyph glyph-name="afii10070" unicode="&#x435;" horiz-adv-x="539" 
d="M485 224h-329c0 -88 45 -142 129 -142c57 0 87 16 123 52l65 -61c-52 -52 -101 -79 -190 -79c-127 0 -228 67 -228 260c0 165 85 259 215 259c136 0 215 -98 215 -246v-43zM384 295c-2 31 -4 47 -14 69c-17 38 -52 64 -100 64c-49 0 -84 -26 -101 -64
c-10 -22 -12 -38 -13 -69h228z" />
    <glyph glyph-name="afii10072" unicode="&#x436;" horiz-adv-x="741" 
d="M741 0h-123l-195 264l184 243h119l-190 -238zM422 0h-103v507h103v-507zM123 0h-123l206 269l-190 238h119l183 -243z" />
    <glyph glyph-name="afii10073" unicode="&#x437;" horiz-adv-x="489" 
d="M430 147c0 -94 -90 -152 -193 -152c-80 0 -153 17 -213 72l61 64c40 -36 83 -50 137 -50c53 0 108 25 108 72s-35 68 -88 68h-75v76h74c49 0 81 25 81 68c0 42 -39 64 -99 64c-44 0 -86 -12 -122 -38l-57 65c56 43 123 57 195 57c99 0 183 -48 183 -137
c0 -49 -28 -92 -74 -111c49 -18 82 -62 82 -118z" />
    <glyph glyph-name="afii10074" unicode="&#x438;" horiz-adv-x="583" 
d="M502 0h-102v349l-217 -349h-102v507h102v-344l217 344h102v-507z" />
    <glyph glyph-name="afii10075" unicode="&#x439;" horiz-adv-x="583" 
d="M446 713c-4 -99 -73 -135 -154 -135s-149 36 -154 135h81c4 -47 31 -68 73 -68s69 21 73 68h81zM502 0h-102v349l-217 -349h-102v507h102v-344l217 344h102v-507z" />
    <glyph glyph-name="afii10076" unicode="&#x43a;" horiz-adv-x="517" 
d="M186 0h-103v507h103v-507zM517 0h-125l-205 264l193 243h122l-202 -238z" />
    <glyph glyph-name="afii10077" unicode="&#x43b;" horiz-adv-x="556" 
d="M474 0h-102v418h-147v-147c0 -215 -63 -271 -162 -271h-48v90h16c44 0 96 10 96 206v211h347v-507z" />
    <glyph glyph-name="afii10078" unicode="&#x43c;" horiz-adv-x="667" 
d="M585 0h-102v325l-117 -232h-64l-119 232v-325h-102v507h101l152 -302l151 302h100v-507z" />
    <glyph glyph-name="afii10079" unicode="&#x43d;" horiz-adv-x="568" 
d="M487 0h-102v216h-202v-216h-102v507h102v-202h202v202h102v-507z" />
    <glyph glyph-name="afii10080" unicode="&#x43e;" horiz-adv-x="537" 
d="M480 254c0 -86 -12 -150 -60 -200c-33 -34 -83 -60 -152 -60s-118 26 -151 60c-48 50 -60 114 -60 200c0 85 12 149 60 199c33 34 82 60 151 60s119 -26 152 -60c48 -50 60 -114 60 -199zM378 254c0 55 -4 108 -35 139c-19 19 -45 29 -75 29s-55 -10 -74 -29
c-31 -31 -35 -84 -35 -139s4 -108 35 -139c19 -19 44 -30 74 -30s56 11 75 30c31 31 35 84 35 139z" />
    <glyph glyph-name="afii10081" unicode="&#x43f;" horiz-adv-x="563" 
d="M487 0h-102v418h-202v-418h-102v507h406v-507z" />
    <glyph glyph-name="afii10082" unicode="&#x440;" horiz-adv-x="553" 
d="M496 254c0 -83 -8 -165 -57 -215c-28 -28 -71 -45 -123 -45c-54 0 -96 13 -133 58v-257h-102v712h100v-54c38 46 80 60 134 60c52 0 96 -17 124 -45c49 -50 57 -131 57 -214zM394 254c0 90 -13 168 -105 168c-93 0 -106 -78 -106 -168s13 -169 106 -169
c92 0 105 79 105 169z" />
    <glyph glyph-name="afii10083" unicode="&#x441;" horiz-adv-x="485" 
d="M448 66c-48 -51 -97 -72 -167 -72c-114 0 -226 70 -226 260s112 259 226 259c70 0 119 -20 167 -71l-70 -68c-32 35 -57 48 -97 48c-39 0 -72 -16 -94 -45c-22 -28 -30 -64 -30 -123s8 -96 30 -124c22 -29 55 -45 94 -45c40 0 65 13 97 48z" />
    <glyph glyph-name="afii10084" unicode="&#x442;" horiz-adv-x="440" 
d="M429 418h-155v-418h-102v418h-161v89h418v-89z" />
    <glyph glyph-name="afii10085" unicode="&#x443;" horiz-adv-x="471" 
d="M464 507l-224 -608c-25 -69 -68 -100 -141 -100h-41v92h26c42 0 58 10 73 53l28 80l-178 483h109l121 -358l118 358h109z" />
    <glyph glyph-name="afii10086" unicode="&#x444;" horiz-adv-x="706" 
d="M554 255c0 103 -45 164 -150 167v-336c99 2 150 63 150 169zM404 -205h-102v200c-154 8 -252 92 -252 261c0 168 96 248 252 257v199h102v-199c156 -9 252 -89 252 -257c0 -169 -98 -253 -252 -261v-200zM152 255c0 -106 51 -167 150 -169v336
c-105 -3 -150 -64 -150 -167z" />
    <glyph glyph-name="afii10087" unicode="&#x445;" horiz-adv-x="503" 
d="M481 0h-122l-107 173l-107 -173h-123l174 259l-167 248h123l100 -165l100 165h122l-167 -248z" />
    <glyph glyph-name="afii10088" unicode="&#x446;" horiz-adv-x="587" 
d="M559 -130h-98v130h-380v507h102v-418h202v418h102v-418h72v-219z" />
    <glyph glyph-name="afii10089" unicode="&#x447;" horiz-adv-x="536" 
d="M455 0h-102v187c-35 -7 -86 -16 -145 -16c-84 0 -144 48 -144 141v195h102v-170c0 -54 27 -75 74 -75c42 0 85 7 113 12v233h102v-507z" />
    <glyph glyph-name="afii10090" unicode="&#x448;" horiz-adv-x="812" 
d="M730 0h-649v507h102v-418h172v418h102v-418h171v418h102v-507z" />
    <glyph glyph-name="afii10091" unicode="&#x449;" horiz-adv-x="830" 
d="M802 -130h-97v130h-624v507h102v-418h172v418h102v-418h171v418h102v-418h72v-219z" />
    <glyph glyph-name="afii10092" unicode="&#x44a;" horiz-adv-x="578" 
d="M541 158c0 -94 -66 -158 -165 -158h-235v418h-129v89h231v-191h133c99 0 165 -64 165 -158zM440 158c0 46 -29 74 -80 74h-117v-149h117c51 0 80 28 80 75z" />
    <glyph glyph-name="afii10093" unicode="&#x44b;" horiz-adv-x="741" 
d="M653 0h-102v507h102v-507zM481 158c0 -94 -67 -158 -165 -158h-235v507h102v-191h133c98 0 165 -64 165 -158zM380 158c0 46 -30 74 -81 74h-116v-149h116c51 0 81 28 81 75z" />
    <glyph glyph-name="afii10094" unicode="&#x44c;" horiz-adv-x="518" 
d="M481 158c0 -94 -66 -158 -164 -158h-236v507h102v-191h134c98 0 164 -64 164 -158zM380 158c0 46 -29 74 -80 74h-117v-149h117c51 0 80 28 80 75z" />
    <glyph glyph-name="afii10095" unicode="&#x44d;" horiz-adv-x="485" 
d="M430 256c0 -166 -83 -262 -228 -262c-72 0 -114 21 -165 71l68 67c33 -33 57 -49 99 -49c83 0 120 61 124 140h-177v72h177c-8 76 -47 129 -125 129c-41 0 -66 -17 -98 -49l-68 66c51 50 93 72 165 72c144 0 228 -96 228 -257z" />
    <glyph glyph-name="afii10096" unicode="&#x44e;" horiz-adv-x="752" 
d="M695 254c0 -86 -12 -150 -60 -200c-33 -34 -83 -60 -152 -60s-118 26 -151 60c-41 42 -56 95 -59 162h-90v-216h-102v507h102v-204h90c5 61 20 110 59 150c33 34 82 60 151 60s119 -26 152 -60c48 -50 60 -114 60 -199zM593 254c0 55 -4 108 -35 139
c-19 19 -45 29 -75 29s-55 -10 -74 -29c-31 -31 -35 -84 -35 -139s4 -108 35 -139c19 -19 44 -30 74 -30s56 11 75 30c31 31 35 84 35 139z" />
    <glyph glyph-name="afii10097" unicode="&#x44f;" horiz-adv-x="531" 
d="M349 271v154h-119c-53 0 -83 -30 -83 -78c0 -47 30 -76 83 -76h119zM159 0h-117l110 208c-64 18 -105 71 -105 144c0 91 66 155 164 155h239v-507h-102v189h-93z" />
    <glyph glyph-name="uni0450" unicode="&#x450;" horiz-adv-x="539" 
d="M485 224h-329c0 -88 45 -142 129 -142c57 0 87 16 123 52l65 -61c-52 -52 -101 -79 -190 -79c-127 0 -228 67 -228 260c0 165 85 259 215 259c136 0 215 -98 215 -246v-43zM384 295c-2 31 -4 47 -14 69c-17 38 -52 64 -100 64c-49 0 -84 -26 -101 -64
c-10 -22 -12 -38 -13 -69h228zM325 599h-77l-111 162h113z" />
    <glyph glyph-name="afii10071" unicode="&#x451;" horiz-adv-x="539" 
d="M485 224h-329c0 -88 45 -142 129 -142c57 0 87 16 123 52l65 -61c-52 -52 -101 -79 -190 -79c-127 0 -228 67 -228 260c0 165 85 259 215 259c136 0 215 -98 215 -246v-43zM384 295c-2 31 -4 47 -14 69c-17 38 -52 64 -100 64c-49 0 -84 -26 -101 -64
c-10 -22 -12 -38 -13 -69h228zM426 604h-92v108h92v-108zM210 604h-92v108h92v-108z" />
    <glyph glyph-name="afii10099" unicode="&#x452;" horiz-adv-x="568" 
d="M492 291v-338c0 -86 -42 -161 -160 -161h-54v87h36c51 0 76 38 76 80v317c0 79 -45 113 -102 113s-105 -35 -105 -113v-276h-102v538h-52v78h52v96h102v-96h238v-78h-238v-115c34 38 81 57 133 57s95 -17 125 -46c39 -38 51 -86 51 -143z" />
    <glyph glyph-name="afii10100" unicode="&#x453;" horiz-adv-x="426" 
d="M414 418h-227v-418h-102v507h329v-89zM357 761l-111 -162h-77l75 162h113z" />
    <glyph glyph-name="afii10101" unicode="&#x454;" horiz-adv-x="485" 
d="M448 65c-51 -50 -93 -71 -166 -71c-144 0 -227 96 -227 262c0 161 85 257 227 257c73 0 114 -22 166 -72l-68 -66c-32 32 -56 49 -99 49c-77 0 -116 -53 -123 -129h181v-72h-182c5 -79 41 -140 124 -140c43 0 67 16 99 49z" />
    <glyph glyph-name="afii10102" unicode="&#x455;" horiz-adv-x="499" 
d="M456 155c0 -106 -90 -161 -211 -161c-83 0 -153 14 -213 73l67 67c41 -42 96 -53 146 -53c62 0 111 22 111 70c0 34 -19 56 -68 60l-81 7c-95 8 -150 51 -150 140c0 99 85 155 191 155c76 0 141 -16 188 -57l-64 -65c-32 27 -77 37 -125 37c-61 0 -92 -27 -92 -65
c0 -30 16 -53 70 -58l80 -7c95 -8 151 -53 151 -143z" />
    <glyph glyph-name="afii10103" unicode="&#x456;" horiz-adv-x="264" 
d="M183 0h-102v507h102v-507zM186 607h-108v108h108v-108z" />
    <glyph glyph-name="afii10104" unicode="&#x457;" horiz-adv-x="264" 
d="M183 0h-102v507h102v-507zM286 604h-92v108h92v-108zM70 604h-92v108h92v-108z" />
    <glyph glyph-name="afii10105" unicode="&#x458;" horiz-adv-x="264" 
d="M183 -67c0 -75 -42 -140 -139 -140h-63v87h45c41 0 55 20 55 59v568h102v-574zM186 607h-108v108h108v-108z" />
    <glyph glyph-name="afii10106" unicode="&#x459;" horiz-adv-x="812" 
d="M675 158c0 46 -30 74 -81 74h-118v-149h118c51 0 81 28 81 75zM127 507h349v-191h135c98 0 165 -64 165 -158s-67 -158 -165 -158h-236v418h-150v-147c0 -215 -63 -271 -162 -271h-48v90h16c44 0 96 10 96 206v211z" />
    <glyph glyph-name="afii10107" unicode="&#x45a;" horiz-adv-x="822" 
d="M786 158c0 -94 -67 -158 -165 -158h-236v226h-202v-226h-102v507h102v-191h202v191h102v-191h134c99 0 165 -64 165 -158zM684 158c0 46 -28 74 -80 74h-118v-149h118c52 0 80 28 80 75z" />
    <glyph glyph-name="afii10108" unicode="&#x45b;" horiz-adv-x="568" 
d="M492 0h-102v276c0 79 -45 113 -102 113s-105 -35 -105 -113v-276h-102v538h-52v78h52v96h102v-96h238v-78h-238v-115c34 38 81 57 133 57s95 -17 125 -46c39 -38 51 -86 51 -143v-291z" />
    <glyph glyph-name="afii10109" unicode="&#x45c;" horiz-adv-x="517" 
d="M186 0h-103v507h103v-507zM517 0h-125l-205 264l193 243h122l-202 -238zM402 761l-111 -162h-77l75 162h113z" />
    <glyph glyph-name="uni045D" unicode="&#x45d;" horiz-adv-x="583" 
d="M502 0h-102v349l-217 -349h-102v507h102v-344l217 344h102v-507zM385 599h-77l-111 162h113z" />
    <glyph glyph-name="afii10110" unicode="&#x45e;" horiz-adv-x="471" 
d="M464 507l-224 -608c-25 -69 -68 -100 -141 -100h-41v92h26c42 0 58 10 73 53l28 80l-178 483h109l121 -358l118 358h109zM404 713c-4 -99 -73 -135 -154 -135s-149 36 -154 135h81c4 -47 31 -68 73 -68s69 21 73 68h81z" />
    <glyph glyph-name="afii10193" unicode="&#x45f;" horiz-adv-x="568" 
d="M487 0h-155v-130h-97v130h-154v507h102v-418h202v418h102v-507z" />
    <glyph glyph-name="afii10146" unicode="&#x462;" horiz-adv-x="648" 
d="M611 216c0 -128 -91 -216 -226 -216h-273v542h-74v83h74v87h108v-87h138v-83h-138v-110h165c136 0 226 -88 226 -216zM502 216c0 73 -47 119 -126 119h-156v-238h156c79 0 126 45 126 119z" />
    <glyph glyph-name="afii10194" unicode="&#x463;" horiz-adv-x="536" 
d="M499 158c0 -94 -66 -158 -164 -158h-236v400h-59v73h59v34h102v-34h69v-73h-69v-84h134c98 0 164 -64 164 -158zM398 158c0 46 -29 74 -80 74h-117v-149h117c51 0 80 28 80 75z" />
    <glyph glyph-name="afii10147" unicode="&#x472;" horiz-adv-x="646" 
d="M579 356c0 -149 -2 -220 -72 -290c-46 -46 -106 -72 -184 -72s-138 26 -184 72c-69 70 -72 141 -72 290s3 220 72 290c46 46 106 72 184 72s138 -26 184 -72c70 -70 72 -141 72 -290zM217 578c-31 -34 -40 -71 -42 -175h296c-2 104 -11 141 -42 175
c-26 28 -63 44 -106 44s-79 -16 -106 -44zM429 135c31 33 40 69 42 172h-296c2 -103 11 -139 42 -172c27 -28 63 -45 106 -45s80 17 106 45z" />
    <glyph glyph-name="afii10195" unicode="&#x473;" horiz-adv-x="537" 
d="M480 254c0 -86 -12 -150 -60 -200c-33 -34 -83 -60 -152 -60s-118 26 -151 60c-48 50 -60 114 -60 200c0 85 12 149 60 199c33 34 82 60 151 60s119 -26 152 -60c48 -50 60 -114 60 -199zM343 115c25 25 32 65 34 109h-218c2 -44 9 -84 35 -109c19 -19 44 -30 74 -30
s56 11 75 30zM194 393c-23 -23 -32 -59 -34 -98h217c-3 39 -11 75 -34 98c-19 19 -45 29 -75 29s-55 -10 -74 -29z" />
    <glyph glyph-name="afii10148" unicode="&#x474;" horiz-adv-x="564" 
d="M508 558l-185 -558h-84l-234 712h112l164 -518l127 402c21 67 73 116 150 116h74v-97h-41c-43 0 -70 -18 -83 -57z" />
    <glyph glyph-name="afii10196" unicode="&#x475;" horiz-adv-x="471" 
d="M410 362l-133 -362h-83l-186 507h108l120 -357l86 257c23 70 68 100 141 100h41v-92h-21c-42 0 -57 -10 -73 -53z" />
    <glyph glyph-name="afii10050" unicode="&#x490;" horiz-adv-x="565" 
d="M536 615h-330v-615h-108v712h333v170h105v-267z" />
    <glyph glyph-name="afii10098" unicode="&#x491;" horiz-adv-x="426" 
d="M414 418h-227v-418h-102v507h231v140h98v-229z" />
    <glyph glyph-name="uni0492" unicode="&#x492;" horiz-adv-x="579" 
d="M550 615h-330v-214h138v-83h-138v-318h-108v318h-74v83h74v311h438v-97z" />
    <glyph glyph-name="uni0493" unicode="&#x493;" horiz-adv-x="426" 
d="M414 418h-227v-103h69v-73h-69v-242h-102v242h-59v73h59v192h329v-89z" />
    <glyph glyph-name="uni0496" unicode="&#x496;" horiz-adv-x="920" 
d="M899 712l-264 -336l215 -279h75v-257h-106v160h-29l-274 373l252 339h131zM131 0h-136l291 376l-266 336h132l253 -339zM515 0h-109v712h109v-712z" />
    <glyph glyph-name="uni0497" unicode="&#x497;" horiz-adv-x="739" 
d="M725 507l-190 -238l137 -180h68v-219h-97v130h-26l-195 264l184 243h119zM122 0h-123l206 269l-190 238h119l183 -243zM421 0h-103v507h103v-507z" />
    <glyph glyph-name="uni049A" unicode="&#x49a;" horiz-adv-x="624" 
d="M604 712l-274 -336l222 -279h77v-257h-106v160h-31l-287 373l266 339h133zM204 0h-108v712h108v-712z" />
    <glyph glyph-name="uni049B" unicode="&#x49b;" horiz-adv-x="516" 
d="M502 507l-202 -238l145 -180h72v-219h-97v130h-28l-205 264l193 243h122zM186 0h-103v507h103v-507z" />
    <glyph glyph-name="uni049C" unicode="&#x49c;" horiz-adv-x="691" 
d="M695 0h-134l-208 317h-28v-146h-78v146h-43v-317h-108v712h108v-299h43v146h78v-146h27l188 299h129l-227 -344z" />
    <glyph glyph-name="uni049D" unicode="&#x49d;" horiz-adv-x="582" 
d="M582 0h-125l-130 217h-28v-123h-76v123h-38v-217h-102v507h102v-205h38v123h76v-123h25l121 205h121l-151 -238z" />
    <glyph glyph-name="uni04A2" unicode="&#x4a2;" horiz-adv-x="690" 
d="M598 712v-615h51v-257h-106v160h-54v311h-288v-311h-108v712h108v-305h288v305h109z" />
    <glyph glyph-name="uni04A3" unicode="&#x4a3;" horiz-adv-x="568" 
d="M487 507v-418h46v-219h-97v130h-51v216h-202v-216h-102v507h102v-202h202v202h102z" />
    <glyph glyph-name="uni04AE" unicode="&#x4ae;" horiz-adv-x="544" 
d="M539 712l-213 -419v-293h-108v293l-213 419h118l149 -313l149 313h118z" />
    <glyph glyph-name="uni04AF" unicode="&#x4af;" horiz-adv-x="471" 
d="M463 507l-178 -495v-217h-100v217l-177 495h108l120 -365l119 365h108z" />
    <glyph glyph-name="uni04B0" unicode="&#x4b0;" horiz-adv-x="544" 
d="M539 712l-213 -419h106v-83h-106v-210h-108v210h-106v83h106l-213 419h118l149 -313l149 313h118z" />
    <glyph glyph-name="uni04B1" unicode="&#x4b1;" horiz-adv-x="471" 
d="M463 507l-178 -495h65v-73h-65v-144h-100v144h-65v73h65l-177 495h108l120 -365l119 365h108z" />
    <glyph glyph-name="uni04B2" unicode="&#x4b2;" horiz-adv-x="578" 
d="M553 712l-206 -347l162 -268h59v-257h-106v160h-19l-155 273l-155 -273h-123l219 365l-205 347h124l140 -255l141 255h124z" />
    <glyph glyph-name="uni04B3" unicode="&#x4b3;" horiz-adv-x="503" 
d="M474 507l-167 -248l114 -170h60v-219h-97v130h-25l-107 173l-107 -173h-123l174 259l-167 248h123l100 -165l100 165h122z" />
    <glyph glyph-name="uni04B6" unicode="&#x4b6;" horiz-adv-x="647" 
d="M554 712v-615h52v-257h-106v160h-54v279c-41 -8 -121 -23 -191 -23c-94 0 -185 49 -185 175v281h109v-255c0 -82 51 -104 109 -104c47 0 121 12 158 20v339h108z" />
    <glyph glyph-name="uni04B7" unicode="&#x4b7;" horiz-adv-x="537" 
d="M455 507v-418h46v-219h-97v130h-51v187c-35 -7 -86 -16 -145 -16c-84 0 -144 48 -144 141v195h102v-170c0 -54 27 -75 74 -75c42 0 85 7 113 12v233h102z" />
    <glyph glyph-name="uni04B8" unicode="&#x4b8;" horiz-adv-x="656" 
d="M358 109h-83v147h-15c-96 0 -190 50 -190 175v281h108v-255c0 -74 44 -98 97 -102v144h83v-143c36 4 74 11 97 16v340h108v-712h-108v279c-23 -5 -58 -12 -97 -17v-153z" />
    <glyph glyph-name="uni04B9" unicode="&#x4b9;" horiz-adv-x="552" 
d="M303 51h-69v120h-13c-90 0 -156 48 -156 141v195h102v-170c0 -47 25 -66 67 -71v116h69v-117c25 1 48 5 66 10v232h102v-507h-102v187c-22 -5 -44 -8 -66 -10v-126z" />
    <glyph glyph-name="uni04BA" unicode="&#x4ba;" horiz-adv-x="647" 
d="M93 712h108v-279c41 8 121 23 191 23c94 0 185 -49 185 -175v-281h-109v255c0 82 -51 104 -109 104c-47 0 -121 -12 -158 -20v-339h-108v712z" />
    <glyph glyph-name="uni04BB" unicode="&#x4bb;" horiz-adv-x="536" 
d="M81 507h102v-187c35 7 86 16 145 16c84 0 144 -48 144 -141v-195h-102v170c0 54 -27 75 -74 75c-42 0 -85 -7 -113 -12v-233h-102v507z" />
    <glyph glyph-name="uni04C0" unicode="&#x4c0;" horiz-adv-x="294" 
d="M201 0h-108v712h108v-712z" />
    <glyph glyph-name="uni04CF" unicode="&#x4cf;" horiz-adv-x="258" 
d="M180 0h-102v712h102v-712z" />
    <glyph glyph-name="uni04D8" unicode="&#x4d8;" horiz-adv-x="649" 
d="M66 276v109h408c-1 118 -10 158 -42 193c-27 28 -63 44 -106 44c-80 0 -132 -46 -150 -124h-108c19 121 108 220 258 220c78 0 138 -26 184 -72c69 -70 72 -141 72 -290s-3 -220 -72 -290c-46 -46 -106 -72 -184 -72c-75 0 -143 25 -196 81c-47 51 -64 108 -64 201z
M174 293v-40c0 -46 9 -82 35 -112c28 -33 70 -51 117 -51c43 0 79 16 106 44c29 31 39 67 41 159h-299z" />
    <glyph glyph-name="afii10846" unicode="&#x4d9;" horiz-adv-x="539" 
d="M54 283h329c0 88 -45 142 -129 142c-57 0 -87 -16 -123 -52l-65 61c52 52 101 79 190 79c127 0 228 -67 228 -260c0 -165 -85 -259 -215 -259c-136 0 -215 98 -215 246v43zM155 212c2 -31 5 -47 14 -69c16 -38 52 -64 100 -64c49 0 85 26 101 64c10 23 12 39 13 69h-228z
" />
    <glyph glyph-name="uni04E2" unicode="&#x4e2;" horiz-adv-x="711" 
d="M618 0h-108v517l-319 -517h-98v712h108v-516l318 516h99v-712zM201 795v73h309v-73h-309z" />
    <glyph glyph-name="uni04E3" unicode="&#x4e3;" horiz-adv-x="583" 
d="M502 0h-102v349l-217 -349h-102v507h102v-344l217 344h102v-507zM137 618v73h309v-73h-309z" />
    <glyph glyph-name="uni04E8" unicode="&#x4e8;" horiz-adv-x="646" 
d="M579 356c0 -149 -2 -220 -72 -290c-46 -46 -106 -72 -184 -72s-138 26 -184 72c-69 70 -72 141 -72 290s3 220 72 290c46 46 106 72 184 72s138 -26 184 -72c70 -70 72 -141 72 -290zM217 578c-31 -34 -40 -71 -42 -175h296c-2 104 -11 141 -42 175
c-26 28 -63 44 -106 44s-79 -16 -106 -44zM429 135c31 33 40 69 42 172h-296c2 -103 11 -139 42 -172c27 -28 63 -45 106 -45s80 17 106 45z" />
    <glyph glyph-name="uni04E9" unicode="&#x4e9;" horiz-adv-x="537" 
d="M480 254c0 -86 -12 -150 -60 -200c-33 -34 -83 -60 -152 -60s-118 26 -151 60c-48 50 -60 114 -60 200c0 85 12 149 60 199c33 34 82 60 151 60s119 -26 152 -60c48 -50 60 -114 60 -199zM343 115c25 25 32 65 34 109h-218c2 -44 9 -84 35 -109c19 -19 44 -30 74 -30
s56 11 75 30zM194 393c-23 -23 -32 -59 -34 -98h217c-3 39 -11 75 -34 98c-19 19 -45 29 -75 29s-55 -10 -74 -29z" />
    <glyph glyph-name="uni04EE" unicode="&#x4ee;" horiz-adv-x="564" 
d="M558 712l-255 -596c-28 -65 -73 -116 -150 -116h-74v97h51c43 0 67 19 83 57l25 58l-231 500h114l170 -381l153 381h114zM137 795v73h309v-73h-309z" />
    <glyph glyph-name="uni04EF" unicode="&#x4ef;" horiz-adv-x="471" 
d="M464 507l-224 -608c-25 -69 -68 -100 -141 -100h-41v92h26c42 0 58 10 73 53l28 80l-178 483h109l121 -358l118 358h109zM83 618v73h309v-73h-309z" />
    <glyph glyph-name="Wgrave" unicode="&#x1e80;" horiz-adv-x="871" 
d="M860 712l-186 -712h-94l-145 499l-144 -499h-94l-186 712h114l124 -509l143 509h87l143 -509l124 509h114zM471 781h-77l-111 162h113z" />
    <glyph glyph-name="wgrave" unicode="&#x1e81;" horiz-adv-x="743" 
d="M735 507l-158 -507h-87l-119 354l-118 -354h-88l-157 507h108l98 -357l118 357h79l117 -357l98 357h109zM410 599h-77l-111 162h113z" />
    <glyph glyph-name="Wacute" unicode="&#x1e82;" horiz-adv-x="871" 
d="M860 712l-186 -712h-94l-145 499l-144 -499h-94l-186 712h114l124 -509l143 509h87l143 -509l124 509h114zM588 943l-111 -162h-77l75 162h113z" />
    <glyph glyph-name="wacute" unicode="&#x1e83;" horiz-adv-x="743" 
d="M735 507l-158 -507h-87l-119 354l-118 -354h-88l-157 507h108l98 -357l118 357h79l117 -357l98 357h109zM521 761l-111 -162h-77l75 162h113z" />
    <glyph glyph-name="Wdieresis" unicode="&#x1e84;" horiz-adv-x="871" 
d="M860 712l-186 -712h-94l-145 499l-144 -499h-94l-186 712h114l124 -509l143 509h87l143 -509l124 509h114zM589 786h-92v108h92v-108zM373 786h-92v108h92v-108z" />
    <glyph glyph-name="wdieresis" unicode="&#x1e85;" horiz-adv-x="743" 
d="M735 507l-158 -507h-87l-119 354l-118 -354h-88l-157 507h108l98 -357l118 357h79l117 -357l98 357h109zM525 604h-92v108h92v-108zM309 604h-92v108h92v-108z" />
    <glyph glyph-name="uni1E8A" unicode="&#x1e8a;" horiz-adv-x="578" 
d="M568 0h-125l-155 273l-154 -273h-124l220 365l-206 347h124l140 -255l141 255h124l-206 -347zM240 793v97h97v-97h-97z" />
    <glyph glyph-name="uni1E8B" unicode="&#x1e8b;" horiz-adv-x="503" 
d="M481 0h-123l-106 173l-107 -173h-123l174 259l-167 248h123l100 -165l99 165h123l-166 -248zM204 611v97h97v-97h-97z" />
    <glyph glyph-name="Ygrave" unicode="&#x1ef2;" horiz-adv-x="544" 
d="M539 712l-213 -419v-293h-108v293l-213 419h118l149 -313l149 313h118zM313 781h-77l-111 162h113z" />
    <glyph glyph-name="ygrave" unicode="&#x1ef3;" horiz-adv-x="468" 
d="M464 507l-224 -608c-10 -28 -22 -48 -37 -63c-28 -28 -65 -37 -104 -37h-41v92h26c43 0 58 13 73 54l28 79l-177 483h108l121 -357l118 357h109zM274 599h-77l-111 162h113z" />
    <glyph glyph-name="uni2007" unicode="&#x2007;" horiz-adv-x="533" 
 />
    <glyph glyph-name="uni2008" unicode="&#x2008;" horiz-adv-x="278" 
 />
    <glyph glyph-name="uni200B" unicode="&#x200b;" horiz-adv-x="0" 
 />
    <glyph glyph-name="uniFEFF" unicode="&#xfeff;" horiz-adv-x="0" 
 />
    <glyph glyph-name="endash" unicode="&#x2013;" horiz-adv-x="533" 
d="M482 230h-431v95h431v-95z" />
    <glyph glyph-name="emdash" unicode="&#x2014;" horiz-adv-x="972" 
d="M905 231h-838v97h838v-97z" />
    <glyph glyph-name="afii00208" unicode="&#x2015;" horiz-adv-x="972" 
d="M905 231h-838v97h838v-97z" />
    <glyph glyph-name="quoteleft" unicode="&#x2018;" horiz-adv-x="268" 
d="M190 608h-112v104l112 93v-197z" />
    <glyph glyph-name="quoteright" unicode="&#x2019;" horiz-adv-x="268" 
d="M190 607l-112 -91v196h112v-105z" />
    <glyph glyph-name="quotesinglbase" unicode="&#x201a;" horiz-adv-x="267" 
d="M190 0l-112 -92v197h112v-105z" />
    <glyph glyph-name="quotedblleft" unicode="&#x201c;" horiz-adv-x="459" 
d="M381 608h-112v104l112 93v-197zM190 608h-112v104l112 93v-197z" />
    <glyph glyph-name="quotedblright" unicode="&#x201d;" horiz-adv-x="459" 
d="M381 607l-112 -91v196h112v-105zM190 607l-112 -91v196h112v-105z" />
    <glyph glyph-name="quotedblbase" unicode="&#x201e;" horiz-adv-x="460" 
d="M381 0l-112 -92v197h112v-105zM190 0l-112 -92v197h112v-105z" />
    <glyph glyph-name="dagger" unicode="&#x2020;" horiz-adv-x="591" 
d="M526 427h-180v-427h-102v427h-179v91h179v194h102v-194h180v-91z" />
    <glyph glyph-name="daggerdbl" unicode="&#x2021;" horiz-adv-x="591" 
d="M526 -11h-180v-194h-102v194h-179v92h179v346h-179v91h179v194h102v-194h180v-91h-180v-346h180v-92z" />
    <glyph glyph-name="bullet" unicode="&#x2022;" horiz-adv-x="512" 
d="M419 334c0 -90 -73 -163 -163 -163s-163 73 -163 163s73 163 163 163s163 -73 163 -163z" />
    <glyph glyph-name="ellipsis" unicode="&#x2026;" horiz-adv-x="803" 
d="M725 0h-117v117h117v-117zM195 0h-117v117h117v-117zM460 0h-117v117h117v-117z" />
    <glyph glyph-name="perthousand" unicode="&#x2030;" horiz-adv-x="1196" 
d="M784 130c0 -86 -62 -137 -140 -137s-140 51 -140 137v101c0 86 62 137 140 137s140 -51 140 -137v-101zM1138 130c0 -86 -62 -137 -140 -137s-140 51 -140 137v101c0 86 62 137 140 137s140 -51 140 -137v-101zM338 481c0 -86 -62 -136 -140 -136s-140 50 -140 136v101
c0 86 62 137 140 137s140 -51 140 -137v-101zM629 712l-335 -712h-82l336 712h81zM707 133v95c0 45 -20 72 -63 72s-63 -26 -63 -72v-95c0 -46 20 -72 63 -72s63 27 63 72zM1061 133v95c0 45 -20 72 -63 72s-63 -26 -63 -72v-95c0 -46 20 -72 63 -72s63 27 63 72zM261 484
v95c0 45 -20 72 -63 72s-63 -26 -63 -72v-95c0 -46 20 -71 63 -71s63 26 63 71z" />
    <glyph glyph-name="guilsinglleft" unicode="&#x2039;" horiz-adv-x="339" 
d="M267 42l-230 230l230 229v-123l-107 -106l107 -107v-123z" />
    <glyph glyph-name="guilsinglright" unicode="&#x203a;" horiz-adv-x="339" 
d="M303 272l-231 -230v123l108 107l-108 106v123z" />
    <glyph glyph-name="fraction" unicode="&#x2044;" horiz-adv-x="197" 
d="M307 712l-335 -712h-82l335 712h82z" />
    <glyph glyph-name="uni2070" unicode="&#x2070;" 
d="M292 408c0 -81 -60 -127 -129 -127s-129 46 -129 127v181c0 81 60 127 129 127s129 -46 129 -127v-181zM216 408v180c0 36 -21 60 -53 60s-53 -23 -53 -60v-180c0 -36 21 -58 53 -58s53 22 53 58z" />
    <glyph glyph-name="uni2074" unicode="&#x2074;" 
d="M306 346h-40v-61h-73v61h-174v71l146 295h84l-147 -295h91v83h73v-83h40v-71z" />
    <glyph glyph-name="uni2075" unicode="&#x2075;" 
d="M296 428c0 -48 -7 -81 -38 -112c-19 -19 -50 -35 -94 -35s-76 15 -95 34c-25 26 -31 53 -34 88h76c4 -34 20 -53 53 -53c16 0 29 5 39 14c14 15 16 39 16 64c0 47 -13 78 -53 78c-30 0 -47 -15 -52 -35h-71v241h243v-69h-173v-94c15 13 36 21 65 21c35 0 62 -11 79 -28
c34 -34 39 -73 39 -114z" />
    <glyph glyph-name="uni2076" unicode="&#x2076;" 
d="M295 414c0 -83 -58 -133 -133 -133s-132 48 -132 132c0 30 7 58 32 108l94 191h83l-89 -177c10 4 20 5 32 5c58 0 113 -47 113 -126zM218 414c0 39 -22 64 -56 64c-33 0 -56 -23 -56 -64s23 -65 56 -65c32 0 56 24 56 65z" />
    <glyph glyph-name="uni2077" unicode="&#x2077;" 
d="M301 644l-139 -359h-77l139 358h-123v-70h-71v139h271v-68z" />
    <glyph glyph-name="uni2078" unicode="&#x2078;" 
d="M299 409c0 -83 -61 -128 -136 -128c-76 0 -137 45 -137 128c0 48 27 78 55 97c-25 17 -49 45 -49 88c0 75 60 122 131 122s131 -47 131 -122c0 -43 -23 -71 -49 -88c28 -19 54 -49 54 -97zM223 410c0 34 -26 61 -60 61s-60 -27 -60 -61s26 -60 60 -60s60 26 60 60z
M217 592c0 32 -22 55 -54 55s-54 -23 -54 -55c0 -31 23 -55 54 -55s54 24 54 55z" />
    <glyph glyph-name="uni2079" unicode="&#x2079;" 
d="M296 584c0 -35 -11 -64 -33 -108l-93 -191h-83l89 177c-10 -4 -21 -5 -33 -5c-57 0 -112 47 -112 126c0 83 57 133 133 133c75 0 132 -48 132 -132zM220 584c0 39 -23 63 -56 63s-57 -24 -57 -63c0 -37 22 -65 57 -65c32 0 56 25 56 65z" />
    <glyph glyph-name="uni2080" unicode="&#x2080;" 
d="M292 -27c0 -81 -60 -127 -129 -127s-129 46 -129 127v181c0 81 60 127 129 127s129 -46 129 -127v-181zM216 -27v180c0 36 -21 60 -53 60s-53 -23 -53 -60v-180c0 -36 21 -58 53 -58s53 22 53 58z" />
    <glyph glyph-name="uni2081" unicode="&#x2081;" 
d="M224 -150h-77v341l-87 -76v87l87 75h77v-427z" />
    <glyph glyph-name="uni2082" unicode="&#x2082;" 
d="M297 -150h-260v69l161 186c16 19 22 32 22 52c0 33 -19 55 -53 55c-27 0 -53 -13 -53 -55h-77c0 77 56 124 130 124c75 0 130 -47 130 -124c0 -41 -17 -64 -46 -98l-121 -140h167v-69z" />
    <glyph glyph-name="uni2083" unicode="&#x2083;" 
d="M302 -26c0 -85 -62 -128 -135 -128c-70 0 -136 37 -137 126h77c1 -39 29 -57 60 -57c34 0 58 22 58 61c0 36 -21 60 -61 60h-11v66h11c38 0 56 24 56 55c0 37 -25 56 -54 56c-31 0 -52 -19 -54 -52h-76c2 76 59 121 130 121c75 0 130 -50 130 -122c0 -46 -21 -74 -50 -89
c31 -16 56 -45 56 -97z" />
    <glyph glyph-name="uni2084" unicode="&#x2084;" 
d="M306 -89h-40v-61h-73v61h-174v71l146 295h84l-147 -295h91v83h73v-83h40v-71z" />
    <glyph glyph-name="uni2085" unicode="&#x2085;" 
d="M296 -7c0 -48 -7 -81 -38 -112c-19 -19 -50 -35 -94 -35s-76 15 -95 34c-25 26 -31 53 -34 88h76c4 -34 20 -53 53 -53c16 0 29 5 39 14c14 15 16 39 16 64c0 47 -13 78 -53 78c-30 0 -47 -15 -52 -35h-71v241h243v-69h-173v-94c15 13 36 21 65 21c35 0 62 -11 79 -28
c34 -34 39 -73 39 -114z" />
    <glyph glyph-name="uni2086" unicode="&#x2086;" 
d="M295 -21c0 -83 -58 -133 -133 -133s-132 48 -132 132c0 30 7 58 32 108l94 191h83l-89 -177c10 4 20 5 32 5c58 0 113 -47 113 -126zM218 -21c0 39 -22 64 -56 64c-33 0 -56 -23 -56 -64s23 -65 56 -65c32 0 56 24 56 65z" />
    <glyph glyph-name="uni2087" unicode="&#x2087;" 
d="M301 209l-139 -359h-77l139 358h-123v-70h-71v139h271v-68z" />
    <glyph glyph-name="uni2088" unicode="&#x2088;" 
d="M299 -26c0 -83 -61 -128 -136 -128c-76 0 -137 45 -137 128c0 48 27 78 55 97c-25 17 -49 45 -49 88c0 75 60 122 131 122s131 -47 131 -122c0 -43 -23 -71 -49 -88c28 -19 54 -49 54 -97zM223 -25c0 34 -26 61 -60 61s-60 -27 -60 -61s26 -60 60 -60s60 26 60 60z
M217 157c0 32 -22 55 -54 55s-54 -23 -54 -55c0 -31 23 -55 54 -55s54 24 54 55z" />
    <glyph glyph-name="uni2089" unicode="&#x2089;" 
d="M296 149c0 -35 -11 -64 -33 -108l-93 -191h-83l89 177c-10 -4 -21 -5 -33 -5c-57 0 -112 47 -112 126c0 83 57 133 133 133c75 0 132 -48 132 -132zM220 149c0 39 -23 63 -56 63s-57 -24 -57 -63c0 -37 22 -65 57 -65c32 0 56 25 56 65z" />
    <glyph glyph-name="Euro" unicode="&#x20ac;" horiz-adv-x="681" 
d="M621 213c-25 -141 -125 -219 -255 -219c-76 0 -138 27 -184 73c-48 48 -64 97 -69 181h-70v67h67v86h-67v67h70c5 81 21 129 69 177c46 46 108 73 184 73c131 0 230 -78 255 -219h-110c-17 73 -65 123 -145 123c-43 0 -78 -17 -105 -44c-26 -26 -34 -54 -38 -110h183v-67
h-188v-86h188v-67h-183c3 -59 12 -88 38 -114c27 -27 62 -44 105 -44c80 0 129 50 146 123h109z" />
    <glyph glyph-name="uni20B4" unicode="&#x20b4;" horiz-adv-x="670" 
d="M574 468h53v-67h-79c-6 -10 -14 -20 -23 -28c-31 -29 -77 -49 -135 -57l-7 -1h244v-67h-418c-6 -14 -9 -30 -9 -48c0 -69 54 -109 147 -109c73 0 130 16 182 68l72 -71c-68 -69 -145 -94 -252 -94c-149 0 -256 78 -256 209c0 15 1 31 3 45h-53v67h79c8 12 17 24 29 34
c29 26 64 42 126 52h-234v67h418c7 13 11 28 11 45c0 63 -46 111 -130 111c-60 0 -111 -13 -155 -55l-69 68c61 57 127 81 221 81c148 0 238 -85 238 -209c0 -15 -1 -28 -3 -41z" />
    <glyph glyph-name="afii61352" unicode="&#x2116;" horiz-adv-x="956" 
d="M561 0h-92l-293 513v-513h-101v712h92l292 -512v512h102v-712zM902 246h-280v76h280v-76zM825 539c0 38 -2 75 -20 93c-10 10 -24 16 -42 16s-32 -6 -42 -16c-18 -18 -20 -55 -20 -93s2 -74 20 -92c10 -10 24 -17 42 -17s32 7 42 17c18 18 20 54 20 92zM907 537
c0 -61 -9 -107 -41 -139c-22 -23 -59 -41 -103 -41s-80 18 -102 41c-32 32 -41 79 -41 139c0 61 8 106 41 139c22 23 58 41 102 41s81 -18 103 -41c31 -32 41 -79 41 -139z" />
    <glyph glyph-name="trademark" unicode="&#x2122;" horiz-adv-x="883" 
d="M822 285h-77v279l-90 -179h-71l-90 179v-279h-77v427h77l125 -243l126 243h77v-427zM346 643h-115v-358h-76v358h-114v69h305v-69z" />
    <glyph glyph-name="Omega" unicode="&#x2126;" horiz-adv-x="647" 
d="M579 356c0 -88 -3 -151 -25 -200c-10 -21 -23 -40 -45 -60h70v-96h-207v87c32 15 55 32 73 60c21 32 26 87 26 205c0 141 -7 187 -42 225c-26 28 -63 45 -106 45s-80 -17 -106 -45c-35 -38 -42 -84 -42 -225c0 -118 6 -173 27 -205c18 -28 40 -45 72 -60v-87h-207v96h71
c-22 20 -36 39 -46 60c-22 49 -25 112 -25 200c0 149 3 220 72 290c46 46 106 72 184 72s138 -26 184 -72c70 -70 72 -141 72 -290z" />
    <glyph glyph-name="uni2150" unicode="&#x2150;" horiz-adv-x="847" 
d="M224 285h-77v341l-87 -76v87l87 75h77v-427zM632 712l-335 -712h-82l335 712h82zM823 359l-139 -359h-77l139 358h-123v-70h-71v139h271v-68z" />
    <glyph glyph-name="uni2151" unicode="&#x2151;" horiz-adv-x="847" 
d="M224 285h-77v341l-87 -76v87l87 75h77v-427zM632 712l-335 -712h-82l335 712h82zM818 299c0 -35 -11 -64 -33 -108l-93 -191h-83l89 177c-10 -4 -21 -5 -33 -5c-57 0 -112 47 -112 126c0 83 57 133 133 133c75 0 132 -48 132 -132zM742 299c0 39 -23 63 -56 63
s-57 -24 -57 -63c0 -37 22 -65 57 -65c32 0 56 25 56 65z" />
    <glyph glyph-name="uni2152" unicode="&#x2152;" horiz-adv-x="1172" 
d="M224 285h-77v341l-87 -76v87l87 75h77v-427zM632 712l-335 -712h-82l335 712h82zM746 0h-77v341l-87 -76v87l87 75h77v-427zM1139 123c0 -81 -60 -127 -129 -127s-129 46 -129 127v181c0 81 60 127 129 127s129 -46 129 -127v-181zM1063 123v180c0 36 -21 60 -53 60
s-53 -23 -53 -60v-180c0 -36 21 -58 53 -58s53 22 53 58z" />
    <glyph glyph-name="onethird" unicode="&#x2153;" horiz-adv-x="847" 
d="M224 285h-77v341l-87 -76v87l87 75h77v-427zM632 712l-335 -712h-82l335 712h82zM824 124c0 -85 -62 -128 -135 -128c-70 0 -136 37 -137 126h77c1 -39 29 -57 60 -57c34 0 58 22 58 61c0 36 -21 60 -61 60h-11v66h11c38 0 56 24 56 55c0 37 -25 56 -54 56
c-31 0 -52 -19 -54 -52h-76c2 76 59 121 130 121c75 0 130 -50 130 -122c0 -46 -21 -74 -50 -89c31 -16 56 -45 56 -97z" />
    <glyph glyph-name="twothirds" unicode="&#x2154;" horiz-adv-x="847" 
d="M297 285h-260v69l161 186c16 19 22 32 22 52c0 33 -19 55 -53 55c-27 0 -53 -13 -53 -55h-77c0 77 56 124 130 124c75 0 130 -47 130 -124c0 -41 -17 -64 -46 -98l-121 -140h167v-69zM632 712l-335 -712h-82l335 712h82zM824 124c0 -85 -62 -128 -135 -128
c-70 0 -136 37 -137 126h77c1 -39 29 -57 60 -57c34 0 58 22 58 61c0 36 -21 60 -61 60h-11v66h11c38 0 56 24 56 55c0 37 -25 56 -54 56c-31 0 -52 -19 -54 -52h-76c2 76 59 121 130 121c75 0 130 -50 130 -122c0 -46 -21 -74 -50 -89c31 -16 56 -45 56 -97z" />
    <glyph glyph-name="uni2155" unicode="&#x2155;" horiz-adv-x="847" 
d="M224 285h-77v341l-87 -76v87l87 75h77v-427zM632 712l-335 -712h-82l335 712h82zM818 143c0 -48 -7 -81 -38 -112c-19 -19 -50 -35 -94 -35s-76 15 -95 34c-25 26 -31 53 -34 88h76c4 -34 20 -53 53 -53c16 0 29 5 39 14c14 15 16 39 16 64c0 47 -13 78 -53 78
c-30 0 -47 -15 -52 -35h-71v241h243v-69h-173v-94c15 13 36 21 65 21c35 0 62 -11 79 -28c34 -34 39 -73 39 -114z" />
    <glyph glyph-name="uni2156" unicode="&#x2156;" horiz-adv-x="847" 
d="M297 285h-260v69l161 186c16 19 22 32 22 52c0 33 -19 55 -53 55c-27 0 -53 -13 -53 -55h-77c0 77 56 124 130 124c75 0 130 -47 130 -124c0 -41 -17 -64 -46 -98l-121 -140h167v-69zM632 712l-335 -712h-82l335 712h82zM818 143c0 -48 -7 -81 -38 -112
c-19 -19 -50 -35 -94 -35s-76 15 -95 34c-25 26 -31 53 -34 88h76c4 -34 20 -53 53 -53c16 0 29 5 39 14c14 15 16 39 16 64c0 47 -13 78 -53 78c-30 0 -47 -15 -52 -35h-71v241h243v-69h-173v-94c15 13 36 21 65 21c35 0 62 -11 79 -28c34 -34 39 -73 39 -114z" />
    <glyph glyph-name="uni2157" unicode="&#x2157;" horiz-adv-x="847" 
d="M302 409c0 -85 -62 -128 -135 -128c-70 0 -136 37 -137 126h77c1 -39 29 -57 60 -57c34 0 58 22 58 61c0 36 -21 60 -61 60h-11v66h11c38 0 56 24 56 55c0 37 -25 56 -54 56c-31 0 -52 -19 -54 -52h-76c2 76 59 121 130 121c75 0 130 -50 130 -122c0 -46 -21 -74 -50 -89
c31 -16 56 -45 56 -97zM632 712l-335 -712h-82l335 712h82zM818 143c0 -48 -7 -81 -38 -112c-19 -19 -50 -35 -94 -35s-76 15 -95 34c-25 26 -31 53 -34 88h76c4 -34 20 -53 53 -53c16 0 29 5 39 14c14 15 16 39 16 64c0 47 -13 78 -53 78c-30 0 -47 -15 -52 -35h-71v241
h243v-69h-173v-94c15 13 36 21 65 21c35 0 62 -11 79 -28c34 -34 39 -73 39 -114z" />
    <glyph glyph-name="uni2158" unicode="&#x2158;" horiz-adv-x="847" 
d="M306 346h-40v-61h-73v61h-174v71l146 295h84l-147 -295h91v83h73v-83h40v-71zM632 712l-335 -712h-82l335 712h82zM818 143c0 -48 -7 -81 -38 -112c-19 -19 -50 -35 -94 -35s-76 15 -95 34c-25 26 -31 53 -34 88h76c4 -34 20 -53 53 -53c16 0 29 5 39 14
c14 15 16 39 16 64c0 47 -13 78 -53 78c-30 0 -47 -15 -52 -35h-71v241h243v-69h-173v-94c15 13 36 21 65 21c35 0 62 -11 79 -28c34 -34 39 -73 39 -114z" />
    <glyph glyph-name="uni2159" unicode="&#x2159;" horiz-adv-x="847" 
d="M224 285h-77v341l-87 -76v87l87 75h77v-427zM632 712l-335 -712h-82l335 712h82zM817 129c0 -83 -58 -133 -133 -133s-132 48 -132 132c0 30 7 58 32 108l94 191h83l-89 -177c10 4 20 5 32 5c58 0 113 -47 113 -126zM740 129c0 39 -22 64 -56 64c-33 0 -56 -23 -56 -64
s23 -65 56 -65c32 0 56 24 56 65z" />
    <glyph glyph-name="uni215A" unicode="&#x215a;" horiz-adv-x="847" 
d="M296 428c0 -48 -7 -81 -38 -112c-19 -19 -50 -35 -94 -35s-76 15 -95 34c-25 26 -31 53 -34 88h76c4 -34 20 -53 53 -53c16 0 29 5 39 14c14 15 16 39 16 64c0 47 -13 78 -53 78c-30 0 -47 -15 -52 -35h-71v241h243v-69h-173v-94c15 13 36 21 65 21c35 0 62 -11 79 -28
c34 -34 39 -73 39 -114zM632 712l-335 -712h-82l335 712h82zM817 129c0 -83 -58 -133 -133 -133s-132 48 -132 132c0 30 7 58 32 108l94 191h83l-89 -177c10 4 20 5 32 5c58 0 113 -47 113 -126zM740 129c0 39 -22 64 -56 64c-33 0 -56 -23 -56 -64s23 -65 56 -65
c32 0 56 24 56 65z" />
    <glyph glyph-name="oneeighth" unicode="&#x215b;" horiz-adv-x="847" 
d="M224 285h-77v341l-87 -76v87l87 75h77v-427zM632 712l-335 -712h-82l335 712h82zM821 124c0 -83 -61 -128 -136 -128c-76 0 -137 45 -137 128c0 48 27 78 55 97c-25 17 -49 45 -49 88c0 75 60 122 131 122s131 -47 131 -122c0 -43 -23 -71 -49 -88c28 -19 54 -49 54 -97z
M745 125c0 34 -26 61 -60 61s-60 -27 -60 -61s26 -60 60 -60s60 26 60 60zM739 307c0 32 -22 55 -54 55s-54 -23 -54 -55c0 -31 23 -55 54 -55s54 24 54 55z" />
    <glyph glyph-name="threeeighths" unicode="&#x215c;" horiz-adv-x="847" 
d="M302 409c0 -85 -62 -128 -135 -128c-70 0 -136 37 -137 126h77c1 -39 29 -57 60 -57c34 0 58 22 58 61c0 36 -21 60 -61 60h-11v66h11c38 0 56 24 56 55c0 37 -25 56 -54 56c-31 0 -52 -19 -54 -52h-76c2 76 59 121 130 121c75 0 130 -50 130 -122c0 -46 -21 -74 -50 -89
c31 -16 56 -45 56 -97zM632 712l-335 -712h-82l335 712h82zM821 124c0 -83 -61 -128 -136 -128c-76 0 -137 45 -137 128c0 48 27 78 55 97c-25 17 -49 45 -49 88c0 75 60 122 131 122s131 -47 131 -122c0 -43 -23 -71 -49 -88c28 -19 54 -49 54 -97zM745 125
c0 34 -26 61 -60 61s-60 -27 -60 -61s26 -60 60 -60s60 26 60 60zM739 307c0 32 -22 55 -54 55s-54 -23 -54 -55c0 -31 23 -55 54 -55s54 24 54 55z" />
    <glyph glyph-name="fiveeighths" unicode="&#x215d;" horiz-adv-x="847" 
d="M296 428c0 -48 -7 -81 -38 -112c-19 -19 -50 -35 -94 -35s-76 15 -95 34c-25 26 -31 53 -34 88h76c4 -34 20 -53 53 -53c16 0 29 5 39 14c14 15 16 39 16 64c0 47 -13 78 -53 78c-30 0 -47 -15 -52 -35h-71v241h243v-69h-173v-94c15 13 36 21 65 21c35 0 62 -11 79 -28
c34 -34 39 -73 39 -114zM632 712l-335 -712h-82l335 712h82zM821 124c0 -83 -61 -128 -136 -128c-76 0 -137 45 -137 128c0 48 27 78 55 97c-25 17 -49 45 -49 88c0 75 60 122 131 122s131 -47 131 -122c0 -43 -23 -71 -49 -88c28 -19 54 -49 54 -97zM745 125
c0 34 -26 61 -60 61s-60 -27 -60 -61s26 -60 60 -60s60 26 60 60zM739 307c0 32 -22 55 -54 55s-54 -23 -54 -55c0 -31 23 -55 54 -55s54 24 54 55z" />
    <glyph glyph-name="seveneighths" unicode="&#x215e;" horiz-adv-x="847" 
d="M301 644l-139 -359h-77l139 358h-123v-70h-71v139h271v-68zM632 712l-335 -712h-82l335 712h82zM821 124c0 -83 -61 -128 -136 -128c-76 0 -137 45 -137 128c0 48 27 78 55 97c-25 17 -49 45 -49 88c0 75 60 122 131 122s131 -47 131 -122c0 -43 -23 -71 -49 -88
c28 -19 54 -49 54 -97zM745 125c0 34 -26 61 -60 61s-60 -27 -60 -61s26 -60 60 -60s60 26 60 60zM739 307c0 32 -22 55 -54 55s-54 -23 -54 -55c0 -31 23 -55 54 -55s54 24 54 55z" />
    <glyph glyph-name="uni215F" unicode="&#x215f;" horiz-adv-x="522" 
d="M224 285h-77v341l-87 -76v87l87 75h77v-427zM632 712l-335 -712h-82l335 712h82z" />
    <glyph glyph-name="uni2189" unicode="&#x2189;" horiz-adv-x="847" 
d="M292 408c0 -81 -60 -127 -129 -127s-129 46 -129 127v181c0 81 60 127 129 127s129 -46 129 -127v-181zM216 408v180c0 36 -21 60 -53 60s-53 -23 -53 -60v-180c0 -36 21 -58 53 -58s53 22 53 58zM632 712l-335 -712h-82l335 712h82zM824 124c0 -85 -62 -128 -135 -128
c-70 0 -136 37 -137 126h77c1 -39 29 -57 60 -57c34 0 58 22 58 61c0 36 -21 60 -61 60h-11v66h11c38 0 56 24 56 55c0 37 -25 56 -54 56c-31 0 -52 -19 -54 -52h-76c2 76 59 121 130 121c75 0 130 -50 130 -122c0 -46 -21 -74 -50 -89c31 -16 56 -45 56 -97z" />
    <glyph glyph-name="arrowleft" unicode="&#x2190;" horiz-adv-x="1027" 
d="M444 -114l-392 391l392 392h130l-345 -343h745v-97h-745l345 -343h-130z" />
    <glyph glyph-name="arrowup" unicode="&#x2191;" horiz-adv-x="1027" 
d="M121 347l391 392l392 -392v-130l-343 345v-745h-97v745l-343 -345v130z" />
    <glyph glyph-name="arrowright" unicode="&#x2192;" horiz-adv-x="1027" 
d="M453 -114l345 344h-745v96h745l-345 344h130l392 -392l-392 -392h-130z" />
    <glyph glyph-name="arrowdown" unicode="&#x2193;" horiz-adv-x="1027" 
d="M905 209l-391 -392l-392 392v130l343 -345v745h97v-745l343 345v-130z" />
    <glyph glyph-name="uni2196" unicode="&#x2196;" horiz-adv-x="1027" 
d="M873 -14l-68 -68l-527 526l1 -487l-92 92v554h555l92 -92l-487 1z" />
    <glyph glyph-name="uni2197" unicode="&#x2197;" horiz-adv-x="1027" 
d="M839 49l-91 -92l1 488l-528 -527l-68 68l527 527l-487 -2l92 92h554v-554z" />
    <glyph glyph-name="uni2198" unicode="&#x2198;" horiz-adv-x="1027" 
d="M846 -65h-554l-92 91l487 -1l-527 527l69 69l527 -527l-2 487l92 -93v-553z" />
    <glyph glyph-name="uni2199" unicode="&#x2199;" horiz-adv-x="1027" 
d="M865 551l-526 -526l487 1l-92 -91h-555v554l92 92v-487l526 527z" />
    <glyph glyph-name="partialdiff" unicode="&#x2202;" horiz-adv-x="549" 
d="M468 249c0 -84 -10 -147 -57 -196c-32 -34 -80 -59 -146 -59s-115 25 -147 59c-47 49 -57 112 -57 196c0 87 11 150 57 198c29 30 75 57 141 57c39 0 76 -7 107 -42v47c0 57 -31 122 -119 122c-50 0 -78 -14 -110 -44l-64 64c53 49 101 67 178 67c144 0 217 -94 217 -227
v-242zM366 249c0 53 -3 104 -32 135c-18 18 -41 29 -69 29s-52 -11 -70 -29c-29 -31 -32 -82 -32 -135s3 -104 32 -135c18 -18 42 -29 70 -29s51 11 69 29c29 31 32 82 32 135z" />
    <glyph glyph-name="Delta" unicode="&#x2206;" horiz-adv-x="619" 
d="M613 0h-608l261 712h87zM472 92l-161 459l-162 -459h323z" />
    <glyph glyph-name="product" unicode="&#x220f;" horiz-adv-x="690" 
d="M598 -205h-109v869h-288v-869h-108v965h505v-965z" />
    <glyph glyph-name="summation" unicode="&#x2211;" horiz-adv-x="552" 
d="M508 -205h-460v88l195 406l-193 383v88h455v-97h-329l161 -325v-100l-164 -346h335v-97z" />
    <glyph glyph-name="minus" unicode="&#x2212;" horiz-adv-x="533" 
d="M482 230h-431v95h431v-95z" />
    <glyph glyph-name="uni2219" unicode="&#x2219;" horiz-adv-x="533" 
d="M429 334c0 -90 -73 -163 -163 -163s-163 73 -163 163s73 163 163 163s163 -73 163 -163z" />
    <glyph glyph-name="radical" unicode="&#x221a;" horiz-adv-x="580" 
d="M550 615h-91l-202 -615h-84l-168 507h111l99 -313l163 518h172v-97z" />
    <glyph glyph-name="infinity" unicode="&#x221e;" horiz-adv-x="830" 
d="M769 276c0 -98 -64 -174 -175 -174c-70 0 -124 34 -179 99c-55 -65 -110 -100 -179 -100c-111 0 -175 77 -175 175s64 175 175 175c68 0 124 -35 179 -100c55 65 108 100 179 100c111 0 175 -77 175 -175zM347 274c-38 45 -68 79 -110 79c-44 0 -78 -31 -78 -79
s34 -79 78 -79c42 0 72 34 110 79zM671 274c0 48 -35 78 -79 78c-42 0 -71 -33 -109 -78c38 -45 67 -79 109 -79c44 0 79 31 79 79z" />
    <glyph glyph-name="integral" unicode="&#x222b;" horiz-adv-x="433" 
d="M385 633h-44c-47 0 -72 -25 -72 -74v-599c0 -101 -64 -162 -164 -162h-57v87h44c47 0 71 25 71 74v599c0 101 65 162 165 162h57v-87z" />
    <glyph glyph-name="approxequal" unicode="&#x2248;" horiz-adv-x="574" 
d="M531 380c-59 -59 -95 -77 -148 -77c-39 0 -71 12 -112 32c-28 14 -51 24 -79 24s-47 -5 -85 -43l-64 64c59 59 94 77 147 77c39 0 70 -12 111 -32c28 -14 52 -24 80 -24s47 5 85 43zM531 178c-59 -59 -94 -78 -147 -78c-39 0 -71 13 -112 33c-28 14 -51 24 -79 24
s-48 -6 -86 -44l-64 64c59 59 95 78 148 78c39 0 70 -13 111 -33c28 -14 52 -24 80 -24s47 6 85 44z" />
    <glyph glyph-name="notequal" unicode="&#x2260;" horiz-adv-x="571" 
d="M520 133h-303l-103 -120l-63 51l61 69h-61v95h138l88 99h-226v95h302l104 120l63 -51l-61 -69h61v-95h-138l-88 -99h226v-95z" />
    <glyph glyph-name="lessequal" unicode="&#x2264;" horiz-adv-x="533" 
d="M451 155l-369 178v90l369 178v-108l-245 -115l245 -115v-108zM451 -29l-369 177v108l369 -177v-108z" />
    <glyph glyph-name="greaterequal" unicode="&#x2265;" horiz-adv-x="533" 
d="M451 333l-369 -178v108l245 115l-245 115v108l369 -178v-90zM451 148l-369 -177v108l369 177v-108z" />
    <glyph glyph-name="dotmath" unicode="&#x22c5;" horiz-adv-x="533" 
d="M327 217h-122v122h122v-122z" />
    <glyph glyph-name="lozenge" unicode="&#x25ca;" horiz-adv-x="642" 
d="M582 346l-261 -365l-260 365l260 365zM467 346l-146 207l-146 -207l146 -208z" />
    <glyph glyph-name="fi" unicode="&#xfb01;" horiz-adv-x="586" 
d="M300 429h-101v-429h-102v429h-58v78h58v69c0 73 44 141 139 141h64v-87h-45c-38 0 -56 -22 -56 -59v-64h101v-78zM505 0h-102v507h102v-507zM508 607h-108v108h108v-108z" />
    <glyph glyph-name="fl" unicode="&#xfb02;" horiz-adv-x="633" 
d="M300 429h-101v-429h-102v429h-58v78h58v69c0 73 44 141 139 141h64v-87h-45c-38 0 -56 -22 -56 -59v-64h101v-78zM602 0h-63c-97 0 -139 65 -139 140v572h102v-566c0 -39 14 -59 55 -59h45v-87z" />
    <glyph glyph-name="i.latn_TRK" horiz-adv-x="264" 
d="M183 0h-102v507h102v-507zM186 607h-108v108h108v-108z" />
    <glyph glyph-name="Ldot.latn_CAT" horiz-adv-x="574" 
d="M544 0h-451v712h108v-615h343v-97zM380 309v97h97v-97h-97z" />
    <glyph glyph-name="ldot.latn_CAT" horiz-adv-x="340" 
d="M280 0h-63c-97 0 -139 65 -139 140v572h102v-566c0 -39 14 -59 55 -59h45v-87zM252 228v97h97v-97h-97z" />
    <glyph glyph-name="zero.numr" 
d="M292 408c0 -81 -60 -127 -129 -127s-129 46 -129 127v181c0 81 60 127 129 127s129 -46 129 -127v-181zM216 408v180c0 36 -21 60 -53 60s-53 -23 -53 -60v-180c0 -36 21 -58 53 -58s53 22 53 58z" />
    <glyph glyph-name="one.numr" 
d="M224 285h-77v341l-87 -76v87l87 75h77v-427z" />
    <glyph glyph-name="two.numr" 
d="M297 285h-260v69l161 186c16 19 22 32 22 52c0 33 -19 55 -53 55c-27 0 -53 -13 -53 -55h-77c0 77 56 124 130 124c75 0 130 -47 130 -124c0 -41 -17 -64 -46 -98l-121 -140h167v-69z" />
    <glyph glyph-name="three.numr" 
d="M302 409c0 -85 -62 -128 -135 -128c-70 0 -136 37 -137 126h77c1 -39 29 -57 60 -57c34 0 58 22 58 61c0 36 -21 60 -61 60h-11v66h11c38 0 56 24 56 55c0 37 -25 56 -54 56c-31 0 -52 -19 -54 -52h-76c2 76 59 121 130 121c75 0 130 -50 130 -122c0 -46 -21 -74 -50 -89
c31 -16 56 -45 56 -97z" />
    <glyph glyph-name="four.numr" 
d="M306 346h-40v-61h-73v61h-174v71l146 295h84l-147 -295h91v83h73v-83h40v-71z" />
    <glyph glyph-name="five.numr" 
d="M296 428c0 -48 -7 -81 -38 -112c-19 -19 -50 -35 -94 -35s-76 15 -95 34c-25 26 -31 53 -34 88h76c4 -34 20 -53 53 -53c16 0 29 5 39 14c14 15 16 39 16 64c0 47 -13 78 -53 78c-30 0 -47 -15 -52 -35h-71v241h243v-69h-173v-94c15 13 36 21 65 21c35 0 62 -11 79 -28
c34 -34 39 -73 39 -114z" />
    <glyph glyph-name="six.numr" 
d="M295 414c0 -83 -58 -133 -133 -133s-132 48 -132 132c0 30 7 58 32 108l94 191h83l-89 -177c10 4 20 5 32 5c58 0 113 -47 113 -126zM218 414c0 39 -22 64 -56 64c-33 0 -56 -23 -56 -64s23 -65 56 -65c32 0 56 24 56 65z" />
    <glyph glyph-name="seven.numr" 
d="M301 644l-139 -359h-77l139 358h-123v-70h-71v139h271v-68z" />
    <glyph glyph-name="eight.numr" 
d="M299 409c0 -83 -61 -128 -136 -128c-76 0 -137 45 -137 128c0 48 27 78 55 97c-25 17 -49 45 -49 88c0 75 60 122 131 122s131 -47 131 -122c0 -43 -23 -71 -49 -88c28 -19 54 -49 54 -97zM223 410c0 34 -26 61 -60 61s-60 -27 -60 -61s26 -60 60 -60s60 26 60 60z
M217 592c0 32 -22 55 -54 55s-54 -23 -54 -55c0 -31 23 -55 54 -55s54 24 54 55z" />
    <glyph glyph-name="nine.numr" 
d="M296 584c0 -35 -11 -64 -33 -108l-93 -191h-83l89 177c-10 -4 -21 -5 -33 -5c-57 0 -112 47 -112 126c0 83 57 133 133 133c75 0 132 -48 132 -132zM220 584c0 39 -23 63 -56 63s-57 -24 -57 -63c0 -37 22 -65 57 -65c32 0 56 25 56 65z" />
    <glyph glyph-name="zero.dnom" 
d="M292 123c0 -81 -60 -127 -129 -127s-129 46 -129 127v181c0 81 60 127 129 127s129 -46 129 -127v-181zM216 123v180c0 36 -21 60 -53 60s-53 -23 -53 -60v-180c0 -36 21 -58 53 -58s53 22 53 58z" />
    <glyph glyph-name="one.dnom" 
d="M224 0h-77v341l-87 -76v87l87 75h77v-427z" />
    <glyph glyph-name="two.dnom" 
d="M297 0h-260v69l161 186c16 19 22 32 22 52c0 33 -19 55 -53 55c-27 0 -53 -13 -53 -55h-77c0 77 56 124 130 124c75 0 130 -47 130 -124c0 -41 -17 -64 -46 -98l-121 -140h167v-69z" />
    <glyph glyph-name="three.dnom" 
d="M302 124c0 -85 -62 -128 -135 -128c-70 0 -136 37 -137 126h77c1 -39 29 -57 60 -57c34 0 58 22 58 61c0 36 -21 60 -61 60h-11v66h11c38 0 56 24 56 55c0 37 -25 56 -54 56c-31 0 -52 -19 -54 -52h-76c2 76 59 121 130 121c75 0 130 -50 130 -122c0 -46 -21 -74 -50 -89
c31 -16 56 -45 56 -97z" />
    <glyph glyph-name="four.dnom" 
d="M306 61h-40v-61h-73v61h-174v71l146 295h84l-147 -295h91v83h73v-83h40v-71z" />
    <glyph glyph-name="five.dnom" 
d="M296 143c0 -48 -7 -81 -38 -112c-19 -19 -50 -35 -94 -35s-76 15 -95 34c-25 26 -31 53 -34 88h76c4 -34 20 -53 53 -53c16 0 29 5 39 14c14 15 16 39 16 64c0 47 -13 78 -53 78c-30 0 -47 -15 -52 -35h-71v241h243v-69h-173v-94c15 13 36 21 65 21c35 0 62 -11 79 -28
c34 -34 39 -73 39 -114z" />
    <glyph glyph-name="six.dnom" 
d="M295 129c0 -83 -58 -133 -133 -133s-132 48 -132 132c0 30 7 58 32 108l94 191h83l-89 -177c10 4 20 5 32 5c58 0 113 -47 113 -126zM218 129c0 39 -22 64 -56 64c-33 0 -56 -23 -56 -64s23 -65 56 -65c32 0 56 24 56 65z" />
    <glyph glyph-name="seven.dnom" 
d="M301 359l-139 -359h-77l139 358h-123v-70h-71v139h271v-68z" />
    <glyph glyph-name="eight.dnom" 
d="M299 124c0 -83 -61 -128 -136 -128c-76 0 -137 45 -137 128c0 48 27 78 55 97c-25 17 -49 45 -49 88c0 75 60 122 131 122s131 -47 131 -122c0 -43 -23 -71 -49 -88c28 -19 54 -49 54 -97zM223 125c0 34 -26 61 -60 61s-60 -27 -60 -61s26 -60 60 -60s60 26 60 60z
M217 307c0 32 -22 55 -54 55s-54 -23 -54 -55c0 -31 23 -55 54 -55s54 24 54 55z" />
    <glyph glyph-name="nine.dnom" 
d="M296 299c0 -35 -11 -64 -33 -108l-93 -191h-83l89 177c-10 -4 -21 -5 -33 -5c-57 0 -112 47 -112 126c0 83 57 133 133 133c75 0 132 -48 132 -132zM220 299c0 39 -23 63 -56 63s-57 -24 -57 -63c0 -37 22 -65 57 -65c32 0 56 25 56 65z" />
    <glyph glyph-name="space.frac" horiz-adv-x="48" 
 />
    <glyph glyph-name="zero.osf" horiz-adv-x="534" 
d="M473 198c0 -127 -93 -204 -206 -204s-206 77 -206 204v201c0 127 93 204 206 204s206 -77 206 -204v-201zM371 201v195c0 69 -39 116 -104 116s-104 -47 -104 -116v-195c0 -69 39 -116 104 -116s104 47 104 116z" />
    <glyph glyph-name="one.osf" horiz-adv-x="407" 
d="M294 0h-102v486l-140 -122v113l140 120h102v-597z" />
    <glyph glyph-name="two.osf" horiz-adv-x="528" 
d="M471 0h-429v91l242 220c43 39 69 78 69 121c0 57 -42 100 -103 100c-55 0 -105 -37 -105 -105h-102c0 117 91 196 207 196c120 0 205 -79 205 -190c0 -74 -48 -127 -110 -186l-165 -156h291v-91z" />
    <glyph glyph-name="three.osf" horiz-adv-x="526" 
d="M472 85c0 -137 -99 -207 -218 -207c-114 0 -215 60 -219 199h102c4 -76 58 -108 117 -108c66 0 116 43 116 118c0 72 -40 117 -120 117h-17v89h17c74 0 108 44 108 109c0 72 -47 110 -105 110c-62 0 -102 -39 -107 -102h-102c6 121 95 193 209 193
c121 0 207 -81 207 -199c0 -76 -33 -125 -88 -152c61 -27 100 -79 100 -167z" />
    <glyph glyph-name="four.osf" horiz-adv-x="566" 
d="M526 30h-85v-153h-98v153h-305v95l253 510h109l-253 -510h196v176h98v-176h85v-95z" />
    <glyph glyph-name="five.osf" horiz-adv-x="535" 
d="M477 123c0 -76 -8 -137 -60 -189c-32 -32 -81 -56 -150 -56c-68 0 -120 24 -151 55c-38 38 -51 85 -55 136h102c8 -63 40 -99 104 -99c30 0 57 10 75 28c30 30 33 77 33 125c0 85 -21 149 -103 149c-58 0 -91 -29 -102 -64h-92v389h383v-91h-291v-188c24 25 65 41 117 41
c56 0 99 -17 128 -46c54 -54 62 -123 62 -190z" />
    <glyph glyph-name="six.osf" horiz-adv-x="538" 
d="M492 223c0 -139 -92 -229 -223 -229s-223 84 -223 224c0 71 20 131 61 204l171 306h109l-175 -303c25 13 49 17 82 17c113 0 198 -84 198 -219zM390 220c0 78 -45 139 -121 139c-72 0 -121 -54 -121 -139s49 -138 121 -138s121 53 121 138z" />
    <glyph glyph-name="seven.osf" horiz-adv-x="528" 
d="M493 506l-276 -626h-109l276 626h-241v-112h-98v203h448v-91z" />
    <glyph glyph-name="eight.osf" horiz-adv-x="549" 
d="M494 201c0 -129 -98 -207 -220 -207s-219 78 -219 207c0 85 48 137 98 167c-46 28 -87 78 -87 153c0 119 92 197 208 197s208 -78 208 -197c0 -75 -40 -125 -86 -153c50 -30 98 -82 98 -167zM392 203c0 66 -52 119 -118 119s-117 -53 -117 -119s51 -118 117 -118
s118 52 118 118zM380 518c0 62 -44 109 -106 109s-106 -47 -106 -109c0 -63 44 -108 106 -108s106 45 106 108z" />
    <glyph glyph-name="nine.osf" horiz-adv-x="538" 
d="M492 379c0 -71 -19 -131 -60 -204l-172 -306h-109l175 303c-25 -13 -48 -17 -81 -17c-113 0 -199 84 -199 219c0 139 92 229 223 229s223 -84 223 -224zM390 377c0 85 -49 138 -121 138s-121 -53 -121 -138c0 -78 45 -139 121 -139c72 0 121 54 121 139z" />
    <glyph glyph-name="zero.lf" horiz-adv-x="533" 
d="M472 198c0 -127 -93 -204 -206 -204s-205 77 -205 204v316c0 127 92 204 205 204s206 -77 206 -204v-316zM370 201v310c0 69 -39 116 -104 116s-103 -47 -103 -116v-310c0 -69 38 -116 103 -116s104 47 104 116z" />
    <glyph glyph-name="one.lf" horiz-adv-x="404" 
d="M293 0h-102v601l-139 -122v113l139 120h102v-712z" />
    <glyph glyph-name="two.lf" horiz-adv-x="509" 
d="M456 0h-414v91l274 333c27 33 38 59 38 95c0 64 -38 108 -104 108c-54 0 -105 -30 -105 -110h-102c0 121 86 201 207 201c122 0 206 -77 206 -200c0 -63 -23 -100 -67 -154l-223 -273h290v-91z" />
    <glyph glyph-name="three.lf" horiz-adv-x="523" 
d="M471 200c0 -137 -99 -207 -218 -207c-114 0 -214 61 -218 200h102c4 -76 57 -108 116 -108c66 0 116 43 116 118c0 72 -39 117 -119 117h-17v89h17c74 0 108 43 108 108c0 72 -47 110 -105 110c-62 0 -102 -39 -107 -102h-102c6 121 95 194 209 194
c121 0 207 -81 207 -199c0 -76 -34 -125 -89 -152c61 -27 100 -80 100 -168z" />
    <glyph glyph-name="four.lf" horiz-adv-x="541" 
d="M501 107h-76v-107h-99v107h-288v95l251 510h110l-250 -510h177v166h99v-166h76v-95z" />
    <glyph glyph-name="five.lf" horiz-adv-x="533" 
d="M475 238c0 -76 -8 -137 -60 -189c-32 -32 -81 -56 -150 -56c-68 0 -121 24 -152 55c-38 38 -50 85 -54 136h102c8 -63 40 -99 104 -99c30 0 56 10 74 28c30 30 34 77 34 125c0 85 -22 149 -104 149c-58 0 -90 -29 -101 -64h-93v389h384v-91h-292v-188c24 25 66 41 118 41
c56 0 99 -17 128 -46c54 -54 62 -123 62 -190z" />
    <glyph glyph-name="six.lf" horiz-adv-x="507" 
d="M464 211c0 -131 -87 -217 -210 -217s-211 81 -211 213c0 58 22 113 53 175l162 330h109l-153 -306c19 8 41 11 63 11c103 0 187 -81 187 -206zM362 209c0 70 -41 123 -109 123c-64 0 -108 -46 -108 -123c0 -76 44 -124 108 -124s109 48 109 124z" />
    <glyph glyph-name="seven.lf" horiz-adv-x="501" 
d="M466 621l-238 -621h-110l239 621h-217v-112h-98v203h424v-91z" />
    <glyph glyph-name="eight.lf" horiz-adv-x="549" 
d="M494 201c0 -129 -98 -207 -220 -207s-219 78 -219 207c0 85 48 137 98 167c-46 28 -86 78 -86 153c0 119 91 197 207 197s208 -78 208 -197c0 -75 -40 -125 -86 -153c50 -30 98 -82 98 -167zM391 203c0 66 -51 119 -117 119s-117 -53 -117 -119s51 -118 117 -118
s117 52 117 118zM380 518c0 62 -44 109 -106 109s-105 -47 -105 -109c0 -63 43 -108 105 -108s106 45 106 108z" />
    <glyph glyph-name="nine.lf" horiz-adv-x="507" 
d="M464 505c0 -58 -22 -113 -53 -175l-162 -330h-109l153 306c-19 -8 -42 -11 -64 -11c-103 0 -186 81 -186 206c0 131 87 217 210 217s211 -81 211 -213zM362 503c0 76 -45 124 -109 124s-108 -48 -108 -124c0 -70 40 -123 108 -123c64 0 109 46 109 123z" />
    <glyph glyph-name="zero.tosf" horiz-adv-x="533" 
d="M473 198c0 -127 -93 -204 -206 -204s-206 77 -206 204v201c0 127 93 204 206 204s206 -77 206 -204v-201zM371 201v195c0 69 -39 116 -104 116s-104 -47 -104 -116v-195c0 -69 39 -116 104 -116s104 47 104 116z" />
    <glyph glyph-name="one.tosf" horiz-adv-x="533" 
d="M356 0h-102v486l-140 -122v113l140 120h102v-597z" />
    <glyph glyph-name="two.tosf" horiz-adv-x="533" 
d="M484 0h-429v91l242 220c43 39 69 78 69 121c0 57 -42 100 -103 100c-55 0 -105 -37 -105 -105h-102c0 117 91 196 207 196c120 0 205 -79 205 -190c0 -74 -48 -127 -110 -186l-165 -156h291v-91z" />
    <glyph glyph-name="three.tosf" horiz-adv-x="533" 
d="M479 85c0 -137 -99 -207 -218 -207c-114 0 -215 60 -219 199h102c4 -76 58 -108 117 -108c66 0 116 43 116 118c0 72 -40 117 -120 117h-17v89h17c74 0 108 44 108 109c0 72 -47 110 -105 110c-62 0 -102 -39 -107 -102h-102c6 121 95 193 209 193
c121 0 207 -81 207 -199c0 -76 -33 -125 -88 -152c61 -27 100 -79 100 -167z" />
    <glyph glyph-name="four.tosf" horiz-adv-x="533" 
d="M500 30h-76v-153h-99v153h-288v95l251 510h110l-250 -510h177v166h99v-166h76v-95z" />
    <glyph glyph-name="five.tosf" horiz-adv-x="533" 
d="M476 123c0 -76 -8 -137 -60 -189c-32 -32 -81 -56 -150 -56c-68 0 -120 24 -151 55c-38 38 -51 85 -55 136h102c8 -63 40 -99 104 -99c30 0 57 10 75 28c30 30 33 77 33 125c0 85 -21 149 -103 149c-58 0 -91 -29 -102 -64h-92v389h383v-91h-291v-188c24 25 65 41 117 41
c56 0 99 -17 128 -46c54 -54 62 -123 62 -190z" />
    <glyph glyph-name="six.tosf" horiz-adv-x="533" 
d="M491 223c0 -139 -92 -229 -223 -229s-223 84 -223 224c0 71 20 131 61 204l171 306h109l-175 -303c25 13 49 17 82 17c113 0 198 -84 198 -219zM389 220c0 78 -45 139 -121 139c-72 0 -121 -54 -121 -139s49 -138 121 -138s121 53 121 138z" />
    <glyph glyph-name="seven.tosf" horiz-adv-x="533" 
d="M496 506l-276 -626h-109l276 626h-241v-112h-98v203h448v-91z" />
    <glyph glyph-name="eight.tosf" horiz-adv-x="533" 
d="M486 201c0 -129 -98 -207 -220 -207s-219 78 -219 207c0 85 48 137 98 167c-46 28 -87 78 -87 153c0 119 92 197 208 197s208 -78 208 -197c0 -75 -40 -125 -86 -153c50 -30 98 -82 98 -167zM384 203c0 66 -52 119 -118 119s-117 -53 -117 -119s51 -118 117 -118
s118 52 118 118zM372 518c0 62 -44 109 -106 109s-106 -47 -106 -109c0 -63 44 -108 106 -108s106 45 106 108z" />
    <glyph glyph-name="nine.tosf" horiz-adv-x="533" 
d="M488 379c0 -71 -19 -131 -60 -204l-172 -306h-109l175 303c-25 -13 -48 -17 -81 -17c-113 0 -199 84 -199 219c0 139 92 229 223 229s223 -84 223 -224zM386 377c0 85 -49 138 -121 138s-121 -53 -121 -138c0 -78 45 -139 121 -139c72 0 121 54 121 139z" />
    <glyph glyph-name="uni2007.tosf" horiz-adv-x="533" 
 />
    <glyph glyph-name="hyphen.case" horiz-adv-x="426" 
d="M359 308h-292v95h292v-95z" />
    <glyph glyph-name="exclamdown.case" horiz-adv-x="332" 
d="M211 0h-124l22 500h80zM205 603h-112v109h112v-109z" />
    <glyph glyph-name="guillemotleft.case" horiz-adv-x="592" 
d="M267 126l-230 230l230 229v-123l-107 -106l107 -107v-123zM520 126l-230 230l230 229v-123l-108 -106l108 -107v-123z" />
    <glyph glyph-name="uni00AD.case" horiz-adv-x="426" 
d="M359 308h-292v95h292v-95z" />
    <glyph glyph-name="guillemotright.case" horiz-adv-x="592" 
d="M556 356l-231 -230v123l107 107l-107 106v123zM303 356l-231 -230v123l108 107l-108 106v123z" />
    <glyph glyph-name="questiondown.case" horiz-adv-x="511" 
d="M440 186c0 -113 -87 -192 -200 -192c-109 0 -199 74 -199 192c0 48 20 86 47 123l78 108c11 15 18 38 18 54v30h102v-36c0 -41 -11 -67 -35 -99l-77 -105c-18 -24 -31 -48 -31 -76c0 -56 39 -99 97 -99c62 0 98 46 98 100h102zM291 603h-112v109h112v-109z" />
    <glyph glyph-name="endash.case" horiz-adv-x="533" 
d="M482 308h-431v95h431v-95z" />
    <glyph glyph-name="emdash.case" horiz-adv-x="972" 
d="M905 307h-838v97h838v-97z" />
    <glyph glyph-name="afii00208.case" horiz-adv-x="972" 
d="M905 307h-838v97h838v-97z" />
    <glyph glyph-name="guilsinglleft.case" horiz-adv-x="339" 
d="M267 126l-230 230l230 229v-123l-107 -106l107 -107v-123z" />
    <glyph glyph-name="guilsinglright.case" horiz-adv-x="339" 
d="M303 356l-231 -230v123l108 107l-108 106v123z" />
    <glyph glyph-name="caroncomma.ss01" horiz-adv-x="537" 
d="M656 612l-91 -76v198h91v-122z" />
    <glyph glyph-name="commaaccent.ss01" horiz-adv-x="272" 
d="M193 -133c0 -56 -43 -99 -108 -99v55c27 0 46 20 46 44s-19 44 -46 44v55c65 0 108 -43 108 -99z" />
    <glyph glyph-name="commaturn.ss01" horiz-adv-x="272" 
d="M196 569c-65 0 -108 42 -108 98s43 99 108 99v-55c-27 0 -46 -20 -46 -44s19 -44 46 -44v-54z" />
    <glyph glyph-name="exclam.ss01" horiz-adv-x="332" 
d="M245 712l-23 -500h-77l-24 500h124zM248 62c0 -36 -29 -65 -65 -65s-65 29 -65 65s29 65 65 65s65 -29 65 -65z" />
    <glyph glyph-name="period.ss01" horiz-adv-x="284" 
d="M215 70c0 -40 -33 -73 -73 -73s-73 33 -73 73s33 72 73 72s73 -32 73 -72z" />
    <glyph glyph-name="colon.ss01" horiz-adv-x="310" 
d="M240 347c0 -40 -32 -73 -72 -73s-73 33 -73 73s33 73 73 73s72 -33 72 -73zM240 70c0 -40 -32 -73 -72 -73s-73 33 -73 73s33 72 73 72s72 -32 72 -72z" />
    <glyph glyph-name="semicolon.ss01" horiz-adv-x="303" 
d="M226 -60l-116 -95v271h116v-176zM240 347c0 -40 -32 -73 -72 -73s-73 33 -73 73s33 73 73 73s72 -33 72 -73z" />
    <glyph glyph-name="question.ss01" horiz-adv-x="511" 
d="M470 527c0 -48 -21 -86 -48 -123l-77 -108c-11 -15 -18 -38 -18 -54v-30h-102v35c0 41 10 67 34 99l78 105c18 24 31 48 31 76c0 56 -40 100 -98 100c-62 0 -97 -47 -97 -101h-102c0 113 86 192 199 192c109 0 200 -73 200 -191zM340 62c0 -36 -29 -65 -65 -65
s-64 29 -64 65s28 65 64 65s65 -29 65 -65z" />
    <glyph glyph-name="at.ss01" horiz-adv-x="960" 
d="M903 330c0 -159 -123 -297 -297 -297h-84l11 52c-34 -38 -70 -58 -118 -58c-86 0 -140 52 -140 137c0 26 5 58 11 90c16 82 35 142 83 184c37 32 78 43 118 43c58 0 93 -26 110 -59l10 53h92l-75 -379c125 5 199 116 199 234c0 172 -125 286 -305 286
c-205 0 -367 -161 -367 -367c0 -221 144 -368 373 -368h63l-14 -69h-63c-263 0 -443 184 -443 437c0 249 198 442 451 442c230 0 385 -149 385 -361zM569 322c0 55 -33 77 -70 77c-25 0 -49 -9 -67 -26c-23 -22 -40 -56 -52 -120c-4 -23 -8 -47 -8 -67c0 -55 32 -77 69 -77
c25 0 51 10 69 27c23 22 39 56 51 119c4 23 8 47 8 67z" />
    <glyph glyph-name="C.ss01" horiz-adv-x="574" 
d="M522 79c-53 -52 -110 -85 -199 -85c-78 0 -138 26 -184 72c-69 70 -72 141 -72 290s3 220 72 290c46 46 106 72 184 72c89 0 146 -33 199 -85l-72 -71c-37 37 -68 60 -127 60c-43 0 -79 -16 -105 -44c-36 -38 -43 -81 -43 -222s7 -184 43 -222c26 -28 62 -44 105 -44
c59 0 90 23 127 60z" />
    <glyph glyph-name="G.ss01" horiz-adv-x="641" 
d="M580 277c0 -92 -16 -152 -63 -201c-50 -53 -116 -82 -194 -82s-138 26 -184 72c-69 70 -72 141 -72 290s3 220 72 290c46 46 106 72 184 72c96 0 152 -31 215 -94l-73 -73c-45 45 -78 71 -142 71c-43 0 -79 -16 -106 -44c-35 -38 -42 -81 -42 -222s7 -184 42 -222
c27 -28 63 -44 106 -44c47 0 86 18 114 51c26 29 35 68 35 113v39h-149v92h257v-108z" />
    <glyph glyph-name="i.ss01" horiz-adv-x="264" 
d="M183 0h-102v507h102v-507zM198 672c0 -36 -30 -66 -66 -66s-66 30 -66 66s30 66 66 66s66 -30 66 -66z" />
    <glyph glyph-name="j.ss01" horiz-adv-x="264" 
d="M183 -67c0 -75 -42 -140 -139 -140h-63v87h45c41 0 55 20 55 59v568h102v-574zM198 672c0 -36 -30 -66 -66 -66s-66 30 -66 66s30 66 66 66s66 -30 66 -66z" />
    <glyph glyph-name="exclamdown.ss01" horiz-adv-x="332" 
d="M229 -205h-124l23 500h77zM232 445c0 -36 -29 -64 -65 -64s-65 28 -65 64s29 65 65 65s65 -29 65 -65z" />
    <glyph glyph-name="dieresis.ss01" horiz-adv-x="500" 
d="M416 657c0 -31 -25 -57 -56 -57s-57 26 -57 57s26 56 57 56s56 -25 56 -56zM197 657c0 -31 -26 -57 -57 -57s-56 26 -56 57s25 56 56 56s57 -25 57 -56z" />
    <glyph glyph-name="periodcentered.ss01" horiz-adv-x="284" 
d="M215 276c0 -40 -33 -73 -73 -73s-73 33 -73 73s33 72 73 72s73 -32 73 -72z" />
    <glyph glyph-name="cedilla.ss01" horiz-adv-x="500" 
d="M324 -133c0 -56 -43 -99 -108 -99v55c27 0 46 20 46 44s-19 44 -46 44v55c65 0 108 -43 108 -99z" />
    <glyph glyph-name="questiondown.ss01" horiz-adv-x="511" 
d="M453 -19c0 -113 -86 -192 -199 -192c-109 0 -199 74 -199 192c0 48 20 86 47 123l77 108c11 15 18 38 18 54v30h102v-36c0 -41 -10 -67 -34 -99l-78 -105c-18 -24 -30 -48 -30 -76c0 -56 39 -99 97 -99c62 0 97 46 97 100h102zM314 445c0 -36 -29 -64 -65 -64
s-65 28 -65 64s29 65 65 65s65 -29 65 -65z" />
    <glyph glyph-name="Adieresis.ss01" horiz-adv-x="625" 
d="M617 0h-115l-49 143h-281l-49 -143h-115l261 712h87zM423 235l-108 316l-111 -316h219zM474 839c0 -31 -25 -57 -56 -57s-57 26 -57 57s26 56 57 56s56 -25 56 -56zM255 839c0 -31 -26 -57 -57 -57s-56 26 -56 57s25 56 56 56s57 -25 57 -56z" />
    <glyph glyph-name="Ccedilla.ss01" horiz-adv-x="574" 
d="M522 79c-53 -52 -110 -85 -199 -85c-78 0 -138 26 -184 72c-69 70 -72 141 -72 290s3 220 72 290c46 46 106 72 184 72c89 0 146 -33 199 -85l-72 -71c-37 37 -68 60 -127 60c-43 0 -79 -16 -105 -44c-36 -38 -43 -81 -43 -222s7 -184 43 -222c26 -28 62 -44 105 -44
c59 0 90 23 127 60zM373 -133c0 -56 -43 -99 -108 -99v55c27 0 46 20 46 44s-19 44 -46 44v55c65 0 108 -43 108 -99z" />
    <glyph glyph-name="Edieresis.ss01" horiz-adv-x="603" 
d="M548 0h-455v712h455v-97h-347v-208h296v-96h-296v-214h347v-97zM477 839c0 -31 -25 -57 -56 -57s-57 26 -57 57s26 56 57 56s56 -25 56 -56zM258 839c0 -31 -26 -57 -57 -57s-56 26 -56 57s25 56 56 56s57 -25 57 -56z" />
    <glyph glyph-name="Idieresis.ss01" horiz-adv-x="294" 
d="M201 0h-108v712h108v-712zM316 839c0 -31 -25 -57 -56 -57s-57 26 -57 57s26 56 57 56s56 -25 56 -56zM97 839c0 -31 -26 -57 -57 -57s-56 26 -56 57s25 56 56 56s57 -25 57 -56z" />
    <glyph glyph-name="Odieresis.ss01" horiz-adv-x="646" 
d="M579 356c0 -149 -2 -220 -72 -290c-46 -46 -106 -72 -184 -72s-138 26 -184 72c-70 70 -72 141 -72 290s2 220 72 290c46 46 106 72 184 72s138 -26 184 -72c70 -70 72 -141 72 -290zM471 356c0 141 -6 185 -42 222c-27 28 -63 44 -106 44s-79 -16 -106 -44
c-35 -38 -42 -81 -42 -222s7 -183 42 -221c27 -28 63 -45 106 -45s79 17 106 45c36 37 42 80 42 221zM489 839c0 -31 -25 -57 -56 -57s-57 26 -57 57s26 56 57 56s56 -25 56 -56zM270 839c0 -31 -26 -57 -57 -57s-56 26 -56 57s25 56 56 56s57 -25 57 -56z" />
    <glyph glyph-name="Udieresis.ss01" horiz-adv-x="675" 
d="M593 240c0 -147 -111 -246 -256 -246s-255 99 -255 246v472h108v-467c0 -95 58 -154 147 -154s148 59 148 154v467h108v-472zM503 839c0 -31 -25 -57 -56 -57s-57 26 -57 57s26 56 57 56s56 -25 56 -56zM284 839c0 -31 -26 -57 -57 -57s-56 26 -56 57s25 56 56 56
s57 -25 57 -56z" />
    <glyph glyph-name="adieresis.ss01" horiz-adv-x="530" 
d="M454 0h-100v46c-37 -37 -72 -52 -135 -52s-105 15 -136 46c-26 27 -40 66 -40 109c0 85 59 146 176 146h133v36c0 65 -31 95 -111 95c-54 0 -82 -14 -111 -50l-66 63c47 56 96 74 181 74c140 0 209 -60 209 -174v-339zM352 183v41h-117c-62 0 -93 -26 -93 -73
s29 -72 96 -72c36 0 65 4 92 29c16 15 22 39 22 75zM422 657c0 -31 -25 -57 -56 -57s-57 26 -57 57s26 56 57 56s56 -25 56 -56zM203 657c0 -31 -26 -57 -57 -57s-56 26 -56 57s25 56 56 56s57 -25 57 -56z" />
    <glyph glyph-name="ccedilla.ss01" horiz-adv-x="485" 
d="M448 66c-48 -51 -97 -72 -167 -72c-114 0 -226 70 -226 260s112 259 226 259c70 0 119 -20 167 -71l-70 -68c-32 35 -57 48 -97 48c-39 0 -72 -16 -94 -45c-22 -28 -30 -64 -30 -123s8 -96 30 -124c22 -29 55 -45 94 -45c40 0 65 13 97 48zM324 -133
c0 -56 -43 -99 -108 -99v55c27 0 46 20 46 44s-19 44 -46 44v55c65 0 108 -43 108 -99z" />
    <glyph glyph-name="edieresis.ss01" horiz-adv-x="539" 
d="M485 224h-329c0 -88 45 -142 129 -142c57 0 87 16 123 52l65 -61c-52 -52 -101 -79 -190 -79c-127 0 -228 67 -228 260c0 165 85 259 215 259c136 0 215 -98 215 -246v-43zM384 295c-2 31 -4 47 -14 69c-17 38 -52 64 -100 64c-49 0 -84 -26 -101 -64
c-10 -22 -12 -38 -13 -69h228zM439 657c0 -31 -25 -57 -56 -57s-57 26 -57 57s26 56 57 56s56 -25 56 -56zM220 657c0 -31 -26 -57 -57 -57s-56 26 -56 57s25 56 56 56s57 -25 57 -56z" />
    <glyph glyph-name="idieresis.ss01" horiz-adv-x="264" 
d="M183 0h-102v507h102v-507zM297 657c0 -31 -25 -57 -56 -57s-57 26 -57 57s26 56 57 56s56 -25 56 -56zM78 657c0 -31 -26 -57 -57 -57s-56 26 -56 57s25 56 56 56s57 -25 57 -56z" />
    <glyph glyph-name="odieresis.ss01" horiz-adv-x="537" 
d="M480 254c0 -86 -12 -150 -60 -200c-33 -34 -83 -60 -152 -60s-118 26 -151 60c-48 50 -60 114 -60 200c0 85 12 149 60 199c33 34 82 60 151 60s119 -26 152 -60c48 -50 60 -114 60 -199zM378 254c0 55 -4 108 -35 139c-19 19 -45 29 -75 29s-55 -10 -74 -29
c-31 -31 -35 -84 -35 -139s4 -108 35 -139c19 -19 44 -30 74 -30s56 11 75 30c31 31 35 84 35 139zM433 657c0 -31 -25 -57 -56 -57s-57 26 -57 57s26 56 57 56s56 -25 56 -56zM214 657c0 -31 -26 -57 -57 -57s-56 26 -56 57s25 56 56 56s57 -25 57 -56z" />
    <glyph glyph-name="divide.ss01" horiz-adv-x="533" 
d="M484 230h-436v95h436v-95zM339 84c0 -40 -33 -73 -73 -73s-72 33 -72 73s32 73 72 73s73 -33 73 -73zM339 471c0 -40 -33 -72 -73 -72s-72 32 -72 72s32 73 72 73s73 -33 73 -73z" />
    <glyph glyph-name="udieresis.ss01" horiz-adv-x="568" 
d="M487 0h-100v51c-35 -38 -84 -57 -135 -57c-52 0 -95 17 -125 46c-39 38 -51 86 -51 143v324h102v-309c0 -79 45 -113 102 -113s105 35 105 113v309h102v-507zM447 657c0 -31 -25 -57 -56 -57s-57 26 -57 57s26 56 57 56s56 -25 56 -56zM228 657c0 -31 -26 -57 -57 -57
s-56 26 -56 57s25 56 56 56s57 -25 57 -56z" />
    <glyph glyph-name="ydieresis.ss01" horiz-adv-x="468" 
d="M464 507l-224 -608c-10 -28 -22 -48 -37 -63c-28 -28 -65 -37 -104 -37h-41v92h26c43 0 58 13 73 54l28 79l-177 483h108l121 -357l118 357h109zM399 657c0 -31 -25 -57 -56 -57s-57 26 -57 57s26 56 57 56s56 -25 56 -56zM180 657c0 -31 -26 -57 -57 -57s-56 26 -56 57
s25 56 56 56s57 -25 57 -56z" />
    <glyph glyph-name="Aogonek.ss01" horiz-adv-x="625" 
d="M617 0h-115l-49 143h-281l-49 -143h-115l261 712h87zM423 235l-108 316l-111 -316h219zM605 -232c-65 0 -108 43 -108 99s43 99 108 99v-55c-27 0 -46 -20 -46 -44s19 -44 46 -44v-55z" />
    <glyph glyph-name="aogonek.ss01" horiz-adv-x="530" 
d="M454 0h-100v46c-37 -37 -72 -52 -135 -52s-105 15 -136 46c-26 27 -40 66 -40 109c0 85 59 146 176 146h133v36c0 65 -31 95 -111 95c-54 0 -82 -14 -111 -50l-66 63c47 56 96 74 181 74c140 0 209 -60 209 -174v-339zM352 183v41h-117c-62 0 -93 -26 -93 -73
s29 -72 96 -72c36 0 65 4 92 29c16 15 22 39 22 75zM442 -232c-65 0 -108 43 -108 99s43 99 108 99v-55c-27 0 -46 -20 -46 -44s19 -44 46 -44v-55z" />
    <glyph glyph-name="Cacute.ss01" horiz-adv-x="574" 
d="M522 79c-53 -52 -110 -85 -199 -85c-78 0 -138 26 -184 72c-69 70 -72 141 -72 290s3 220 72 290c46 46 106 72 184 72c89 0 146 -33 199 -85l-72 -71c-37 37 -68 60 -127 60c-43 0 -79 -16 -105 -44c-36 -38 -43 -81 -43 -222s7 -184 43 -222c26 -28 62 -44 105 -44
c59 0 90 23 127 60zM440 943l-111 -162h-77l75 162h113z" />
    <glyph glyph-name="Ccircumflex.ss01" horiz-adv-x="574" 
d="M522 79c-53 -52 -110 -85 -199 -85c-78 0 -138 26 -184 72c-69 70 -72 141 -72 290s3 220 72 290c46 46 106 72 184 72c89 0 146 -33 199 -85l-72 -71c-37 37 -68 60 -127 60c-43 0 -79 -16 -105 -44c-36 -38 -43 -81 -43 -222s7 -184 43 -222c26 -28 62 -44 105 -44
c59 0 90 23 127 60zM495 781h-85l-87 97l-87 -97h-85l129 161h86z" />
    <glyph glyph-name="Cdotaccent.ss01" horiz-adv-x="574" 
d="M522 79c-53 -52 -110 -85 -199 -85c-78 0 -138 26 -184 72c-69 70 -72 141 -72 290s3 220 72 290c46 46 106 72 184 72c89 0 146 -33 199 -85l-72 -71c-37 37 -68 60 -127 60c-43 0 -79 -16 -105 -44c-36 -38 -43 -81 -43 -222s7 -184 43 -222c26 -28 62 -44 105 -44
c59 0 90 23 127 60zM373 840c0 -31 -26 -57 -57 -57s-57 26 -57 57s26 57 57 57s57 -26 57 -57z" />
    <glyph glyph-name="cdotaccent.ss01" horiz-adv-x="493" 
d="M448 66c-48 -51 -97 -72 -167 -72c-114 0 -226 70 -226 260s112 259 226 259c70 0 119 -20 167 -71l-70 -68c-32 35 -57 48 -97 48c-39 0 -72 -16 -94 -45c-22 -28 -30 -64 -30 -123s8 -96 30 -124c22 -29 55 -45 94 -45c40 0 65 13 97 48zM337 664
c0 -31 -26 -57 -56 -57c-32 0 -57 26 -57 56c0 32 25 57 56 57s57 -25 57 -56z" />
    <glyph glyph-name="Ccaron.ss01" horiz-adv-x="574" 
d="M522 79c-53 -52 -110 -85 -199 -85c-78 0 -138 26 -184 72c-69 70 -72 141 -72 290s3 220 72 290c46 46 106 72 184 72c89 0 146 -33 199 -85l-72 -71c-37 37 -68 60 -127 60c-43 0 -79 -16 -105 -44c-36 -38 -43 -81 -43 -222s7 -184 43 -222c26 -28 62 -44 105 -44
c59 0 90 23 127 60zM495 942l-129 -161h-86l-129 161h85l87 -97l87 97h85z" />
    <glyph glyph-name="dcaron.ss01" horiz-adv-x="553" 
d="M472 0h-100v54c-38 -46 -79 -60 -134 -60c-51 0 -96 17 -124 45c-49 50 -57 131 -57 215c0 83 8 164 57 214c28 28 72 45 123 45c54 0 96 -13 133 -57v256h102v-712zM370 254c0 90 -13 168 -105 168c-93 0 -106 -78 -106 -168s13 -169 106 -169c92 0 105 79 105 169z
M656 612l-91 -76v198h91v-122z" />
    <glyph glyph-name="Edotaccent.ss01" horiz-adv-x="602" 
d="M548 0h-455v712h455v-97h-347v-208h296v-96h-296v-214h347v-97zM365 840c0 -31 -26 -57 -57 -57s-57 26 -57 57s26 57 57 57s57 -26 57 -57z" />
    <glyph glyph-name="edotaccent.ss01" horiz-adv-x="539" 
d="M485 224h-329c0 -88 45 -142 129 -142c57 0 87 16 123 52l65 -61c-52 -52 -101 -79 -190 -79c-127 0 -228 67 -228 260c0 165 85 259 215 259c136 0 215 -98 215 -246v-43zM384 295c-2 31 -4 47 -14 69c-17 38 -52 64 -100 64c-49 0 -84 -26 -101 -64
c-10 -22 -12 -38 -13 -69h228zM334 673c0 -37 -29 -66 -65 -66s-66 29 -66 65s30 66 66 66s65 -30 65 -65z" />
    <glyph glyph-name="Eogonek.ss01" horiz-adv-x="603" 
d="M548 0h-455v712h455v-97h-347v-208h296v-96h-296v-214h347v-97zM532 -232c-65 0 -108 43 -108 99s43 99 108 99v-55c-27 0 -46 -20 -46 -44s19 -44 46 -44v-55z" />
    <glyph glyph-name="eogonek.ss01" horiz-adv-x="539" 
d="M485 224h-329c0 -88 45 -142 129 -142c57 0 87 16 123 52l65 -61c-52 -52 -101 -79 -190 -79c-127 0 -228 67 -228 260c0 165 85 259 215 259c136 0 215 -98 215 -246v-43zM384 295c-2 31 -4 47 -14 69c-17 38 -52 64 -100 64c-49 0 -84 -26 -101 -64
c-10 -22 -12 -38 -13 -69h228zM439 -232c-65 0 -108 43 -108 99s43 99 108 99v-55c-27 0 -46 -20 -46 -44s19 -44 46 -44v-55z" />
    <glyph glyph-name="Gcircumflex.ss01" horiz-adv-x="641" 
d="M580 277c0 -92 -16 -152 -63 -201c-50 -53 -116 -82 -194 -82s-138 26 -184 72c-69 70 -72 141 -72 290s3 220 72 290c46 46 106 72 184 72c96 0 152 -31 215 -94l-73 -73c-45 45 -78 71 -142 71c-43 0 -79 -16 -106 -44c-35 -38 -42 -81 -42 -222s7 -184 42 -222
c27 -28 63 -44 106 -44c47 0 86 18 114 51c26 29 35 68 35 113v39h-149v92h257v-108zM495 781h-85l-87 97l-87 -97h-85l129 161h86z" />
    <glyph glyph-name="Gbreve.ss01" horiz-adv-x="641" 
d="M580 277c0 -92 -16 -152 -63 -201c-50 -53 -116 -82 -194 -82s-138 26 -184 72c-69 70 -72 141 -72 290s3 220 72 290c46 46 106 72 184 72c96 0 152 -31 215 -94l-73 -73c-45 45 -78 71 -142 71c-43 0 -79 -16 -106 -44c-35 -38 -42 -81 -42 -222s7 -184 42 -222
c27 -28 63 -44 106 -44c47 0 86 18 114 51c26 29 35 68 35 113v39h-149v92h257v-108zM488 937c-6 -100 -71 -145 -165 -145s-159 45 -165 145h72c6 -47 44 -71 93 -71s87 24 93 71h72z" />
    <glyph glyph-name="Gdotaccent.ss01" horiz-adv-x="641" 
d="M580 277c0 -92 -16 -152 -63 -201c-50 -53 -116 -82 -194 -82s-138 26 -184 72c-69 70 -72 141 -72 290s3 220 72 290c46 46 106 72 184 72c96 0 152 -31 215 -94l-73 -73c-45 45 -78 71 -142 71c-43 0 -79 -16 -106 -44c-35 -38 -42 -81 -42 -222s7 -184 42 -222
c27 -28 63 -44 106 -44c47 0 86 18 114 51c26 29 35 68 35 113v39h-149v92h257v-108zM379 840c0 -31 -26 -57 -57 -57s-57 26 -57 57s26 57 57 57s57 -26 57 -57z" />
    </font>
</defs>
</svg>
